<svg version="1.1" viewBox="0.0 0.0 600.0 371.0" fill="none" stroke="none" stroke-linecap="square" stroke-miterlimit="10" width="600" height="371" xmlns:xlink="http://www.w3.org/1999/xlink" xmlns="http://www.w3.org/2000/svg"><path fill="#ffffff" d="M0 0L600.0 0L600.0 371.0L0 371.0L0 0Z" fill-rule="nonzero"/><path stroke="#cccccc" stroke-width="1.0" stroke-linecap="butt" d="M131.5 25.5L131.5 300.5" fill-rule="nonzero"/><path stroke="#cccccc" stroke-width="1.0" stroke-linecap="butt" d="M181.5 25.5L181.5 300.5" fill-rule="nonzero"/><path stroke="#cccccc" stroke-width="1.0" stroke-linecap="butt" d="M231.5 25.5L231.5 300.5" fill-rule="nonzero"/><path stroke="#cccccc" stroke-width="1.0" stroke-linecap="butt" d="M281.5 25.5L281.5 300.5" fill-rule="nonzero"/><path stroke="#cccccc" stroke-width="1.0" stroke-linecap="butt" d="M331.5 25.5L331.5 300.5" fill-rule="nonzero"/><path stroke="#cccccc" stroke-width="1.0" stroke-linecap="butt" d="M381.5 25.5L381.5 300.5" fill-rule="nonzero"/><path stroke="#cccccc" stroke-width="1.0" stroke-linecap="butt" d="M431.5 25.5L431.5 300.5" fill-rule="nonzero"/><path stroke="#cccccc" stroke-width="1.0" stroke-linecap="butt" d="M481.5 25.5L481.5 300.5" fill-rule="nonzero"/><path stroke="#cccccc" stroke-width="1.0" stroke-linecap="butt" d="M531.5 25.5L531.5 300.5" fill-rule="nonzero"/><path stroke="#cccccc" stroke-width="1.0" stroke-linecap="butt" d="M581.5 25.5L581.5 300.5" fill-rule="nonzero"/><path stroke="#cccccc" stroke-width="1.0" stroke-linecap="butt" d="M86.5 300.5L581.5 300.5" fill-rule="nonzero"/><path stroke="#cccccc" stroke-width="1.0" stroke-linecap="butt" d="M86.5 231.5L581.5 231.5" fill-rule="nonzero"/><path stroke="#cccccc" stroke-width="1.0" stroke-linecap="butt" d="M86.5 163.5L581.5 163.5" fill-rule="nonzero"/><path stroke="#cccccc" stroke-width="1.0" stroke-linecap="butt" d="M86.5 94.5L581.5 94.5" fill-rule="nonzero"/><path stroke="#333333" stroke-width="1.0" stroke-linecap="butt" d="M86.5 25.5L581.5 25.5" fill-rule="nonzero"/><path stroke="#e6e6e6" stroke-width="1.0" stroke-linecap="butt" d="M86.5 266.5L581.5 266.5" fill-rule="nonzero"/><path stroke="#e6e6e6" stroke-width="1.0" stroke-linecap="butt" d="M86.5 197.5L581.5 197.5" fill-rule="nonzero"/><path stroke="#e6e6e6" stroke-width="1.0" stroke-linecap="butt" d="M86.5 128.5L581.5 128.5" fill-rule="nonzero"/><path stroke="#e6e6e6" stroke-width="1.0" stroke-linecap="butt" d="M86.5 59.5L581.5 59.5" fill-rule="nonzero"/><clipPath id="id_0"><path d="M86.09404 25.55L581.45 25.55L581.45 300.45L86.09404 300.45L86.09404 25.55Z" clip-rule="nonzero"/></clipPath><path stroke="#4285f4" stroke-width="2.0" stroke-linecap="butt" clip-path="url(#id_0)" d="M86.09404 260.4569L91.09763 248.5649L96.101234 240.49475L101.10483 234.3382L106.10842 229.3012L111.11202 225.01172L116.115616 221.28993L121.11921 218.01117L126.1228 215.0363L131.1264 212.31747L136.12999 209.8485L141.13359 207.554L146.13719 205.3969L151.14078 203.38045L156.14438 201.48393L161.14798 199.68513L166.15157 197.97668L171.15517 196.35269L176.15877 194.80437L181.16235 193.32176L186.16595 191.91092L191.16954 190.57968L196.17314 189.30621L201.17674 188.0823L206.18033 186.92648L211.18393 185.8278L216.18753 184.75467L221.19112 183.70108L226.19472 182.66281L231.19832 181.65256L236.2019 180.6737L241.2055 179.71689L246.20909 178.77592L251.21269 177.84566L256.21628 176.91171L261.21988 175.97981L266.22348 175.05035L271.22708 174.12527L276.23068 173.21085L281.23425 172.29985L286.23785 171.40056L291.24146 170.5173L296.24506 169.64423L301.24866 168.79352L306.25226 167.96686L311.25583 167.17479L316.25943 166.42441L321.26303 165.70842L326.26663 165.0242L331.27023 164.36429L336.2738 163.71556L341.2774 163.0755L346.281 162.43527L351.2846 161.78758L356.2882 161.13943L361.2918 160.48376L366.29538 159.81224L371.29898 159.11705L376.30258 158.4116L381.30618 157.71346L386.30978 157.0209L391.31335 156.33347L396.31696 155.63443L401.32056 154.91628L406.32416 154.18062L411.32776 153.4307L416.33136 152.66168L421.33493 151.8851L426.33853 151.10709L431.34213 150.31793L436.34573 149.51862L441.34933 148.71072L446.3529 147.89955L451.3565 147.07556L456.3601 146.23375L461.3637 145.3759L466.3673 144.47604L471.3709 143.55484L476.37448 142.62018L481.37808 141.65237L486.38168 140.6617L491.38528 139.6458L496.3889 138.59561L501.3925 137.52011L506.39606 136.40866L511.39966 135.2575L516.40326 134.06206L521.40686 132.8031L526.41046 131.49255L531.41406 130.10849L536.41766 128.61743L541.42126 127.03627L546.4248 125.31039L551.4284 123.41192L556.432 121.30088L561.4356 118.889046L566.4392 115.9158L571.4428 112.03914L576.4464 106.300064" fill-rule="nonzero"/><path fill="#000000" fill-opacity="0.0" clip-path="url(#id_0)" d="M89.09404 260.4569C89.09404 262.11377 87.75089 263.4569 86.09404 263.4569C84.43719 263.4569 83.09404 262.11377 83.09404 260.4569C83.09404 258.80008 84.43719 257.4569 86.09404 257.4569C87.75089 257.4569 89.09404 258.80008 89.09404 260.4569Z" fill-rule="nonzero"/><path fill="#000000" fill-opacity="0.0" clip-path="url(#id_0)" d="M94.09763 248.5649C94.09763 250.22176 92.75449 251.5649 91.09763 251.5649C89.44078 251.5649 88.09763 250.22176 88.09763 248.5649C88.09763 246.90805 89.44078 245.5649 91.09763 245.5649C92.75449 245.5649 94.09763 246.90805 94.09763 248.5649Z" fill-rule="nonzero"/><path fill="#000000" fill-opacity="0.0" clip-path="url(#id_0)" d="M99.101234 240.49475C99.101234 242.1516 97.75809 243.49475 96.101234 243.49475C94.44438 243.49475 93.101234 242.1516 93.101234 240.49475C93.101234 238.83789 94.44438 237.49475 96.101234 237.49475C97.75809 237.49475 99.101234 238.83789 99.101234 240.49475Z" fill-rule="nonzero"/><path fill="#000000" fill-opacity="0.0" clip-path="url(#id_0)" d="M104.10483 234.3382C104.10483 235.99506 102.76168 237.3382 101.10483 237.3382C99.447975 237.3382 98.10483 235.99506 98.10483 234.3382C98.10483 232.68135 99.447975 231.3382 101.10483 231.3382C102.76168 231.3382 104.10483 232.68135 104.10483 234.3382Z" fill-rule="nonzero"/><path fill="#000000" fill-opacity="0.0" clip-path="url(#id_0)" d="M109.10842 229.3012C109.10842 230.95805 107.76528 232.3012 106.10842 232.3012C104.45157 232.3012 103.10842 230.95805 103.10842 229.3012C103.10842 227.64433 104.45157 226.3012 106.10842 226.3012C107.76528 226.3012 109.10842 227.64433 109.10842 229.3012Z" fill-rule="nonzero"/><path fill="#000000" fill-opacity="0.0" clip-path="url(#id_0)" d="M114.11202 225.01172C114.11202 226.66858 112.768875 228.01172 111.11202 228.01172C109.45516 228.01172 108.11202 226.66858 108.11202 225.01172C108.11202 223.35487 109.45516 222.01172 111.11202 222.01172C112.768875 222.01172 114.11202 223.35487 114.11202 225.01172Z" fill-rule="nonzero"/><path fill="#000000" fill-opacity="0.0" clip-path="url(#id_0)" d="M119.115616 221.28993C119.115616 222.9468 117.77247 224.28993 116.115616 224.28993C114.45876 224.28993 113.115616 222.9468 113.115616 221.28993C113.115616 219.63309 114.45876 218.28993 116.115616 218.28993C117.77247 218.28993 119.115616 219.63309 119.115616 221.28993Z" fill-rule="nonzero"/><path fill="#000000" fill-opacity="0.0" clip-path="url(#id_0)" d="M124.11921 218.01117C124.11921 219.66801 122.77606 221.01117 121.11921 221.01117C119.46236 221.01117 118.11921 219.66801 118.11921 218.01117C118.11921 216.35431 119.46236 215.01117 121.11921 215.01117C122.77606 215.01117 124.11921 216.35431 124.11921 218.01117Z" fill-rule="nonzero"/><path fill="#000000" fill-opacity="0.0" clip-path="url(#id_0)" d="M129.1228 215.0363C129.1228 216.69315 127.77966 218.0363 126.1228 218.0363C124.46595 218.0363 123.1228 216.69315 123.1228 215.0363C123.1228 213.37944 124.46595 212.0363 126.1228 212.0363C127.77966 212.0363 129.1228 213.37944 129.1228 215.0363Z" fill-rule="nonzero"/><path fill="#000000" fill-opacity="0.0" clip-path="url(#id_0)" d="M134.1264 212.31747C134.1264 213.97433 132.78325 215.31747 131.1264 215.31747C129.46954 215.31747 128.1264 213.97433 128.1264 212.31747C128.1264 210.66061 129.46954 209.31747 131.1264 209.31747C132.78325 209.31747 134.1264 210.66061 134.1264 212.31747Z" fill-rule="nonzero"/><path fill="#000000" fill-opacity="0.0" clip-path="url(#id_0)" d="M139.12999 209.8485C139.12999 211.50536 137.78685 212.8485 136.12999 212.8485C134.47314 212.8485 133.12999 211.50536 133.12999 209.8485C133.12999 208.19165 134.47314 206.8485 136.12999 206.8485C137.78685 206.8485 139.12999 208.19165 139.12999 209.8485Z" fill-rule="nonzero"/><path fill="#000000" fill-opacity="0.0" clip-path="url(#id_0)" d="M144.13359 207.554C144.13359 209.21086 142.79045 210.554 141.13359 210.554C139.47675 210.554 138.13359 209.21086 138.13359 207.554C138.13359 205.89716 139.47675 204.554 141.13359 204.554C142.79045 204.554 144.13359 205.89716 144.13359 207.554Z" fill-rule="nonzero"/><path fill="#000000" fill-opacity="0.0" clip-path="url(#id_0)" d="M149.13719 205.3969C149.13719 207.05376 147.79404 208.3969 146.13719 208.3969C144.48033 208.3969 143.13719 207.05376 143.13719 205.3969C143.13719 203.74004 144.48033 202.3969 146.13719 202.3969C147.79404 202.3969 149.13719 203.74004 149.13719 205.3969Z" fill-rule="nonzero"/><path fill="#000000" fill-opacity="0.0" clip-path="url(#id_0)" d="M154.14078 203.38045C154.14078 205.03731 152.79764 206.38045 151.14078 206.38045C149.48393 206.38045 148.14078 205.03731 148.14078 203.38045C148.14078 201.7236 149.48393 200.38045 151.14078 200.38045C152.79764 200.38045 154.14078 201.7236 154.14078 203.38045Z" fill-rule="nonzero"/><path fill="#000000" fill-opacity="0.0" clip-path="url(#id_0)" d="M159.14438 201.48393C159.14438 203.14078 157.80124 204.48393 156.14438 204.48393C154.48752 204.48393 153.14438 203.14078 153.14438 201.48393C153.14438 199.82707 154.48752 198.48393 156.14438 198.48393C157.80124 198.48393 159.14438 199.82707 159.14438 201.48393Z" fill-rule="nonzero"/><path fill="#000000" fill-opacity="0.0" clip-path="url(#id_0)" d="M164.14798 199.68513C164.14798 201.342 162.80482 202.68513 161.14798 202.68513C159.49112 202.68513 158.14798 201.342 158.14798 199.68513C158.14798 198.02829 159.49112 196.68513 161.14798 196.68513C162.80482 196.68513 164.14798 198.02829 164.14798 199.68513Z" fill-rule="nonzero"/><path fill="#000000" fill-opacity="0.0" clip-path="url(#id_0)" d="M169.15157 197.97668C169.15157 199.63354 167.80843 200.97668 166.15157 200.97668C164.49472 200.97668 163.15157 199.63354 163.15157 197.97668C163.15157 196.31982 164.49472 194.97668 166.15157 194.97668C167.80843 194.97668 169.15157 196.31982 169.15157 197.97668Z" fill-rule="nonzero"/><path fill="#000000" fill-opacity="0.0" clip-path="url(#id_0)" d="M174.15517 196.35269C174.15517 198.00954 172.81203 199.35269 171.15517 199.35269C169.4983 199.35269 168.15517 198.00954 168.15517 196.35269C168.15517 194.69583 169.4983 193.35269 171.15517 193.35269C172.81203 193.35269 174.15517 194.69583 174.15517 196.35269Z" fill-rule="nonzero"/><path fill="#000000" fill-opacity="0.0" clip-path="url(#id_0)" d="M179.15877 194.80437C179.15877 196.46123 177.81561 197.80437 176.15877 197.80437C174.5019 197.80437 173.15877 196.46123 173.15877 194.80437C173.15877 193.1475 174.5019 191.80437 176.15877 191.80437C177.81561 191.80437 179.15877 193.1475 179.15877 194.80437Z" fill-rule="nonzero"/><path fill="#000000" fill-opacity="0.0" clip-path="url(#id_0)" d="M184.16235 193.32176C184.16235 194.9786 182.81921 196.32176 181.16235 196.32176C179.50551 196.32176 178.16235 194.9786 178.16235 193.32176C178.16235 191.6649 179.50551 190.32176 181.16235 190.32176C182.81921 190.32176 184.16235 191.6649 184.16235 193.32176Z" fill-rule="nonzero"/><path fill="#000000" fill-opacity="0.0" clip-path="url(#id_0)" d="M189.16595 191.91092C189.16595 193.56778 187.8228 194.91092 186.16595 194.91092C184.5091 194.91092 183.16595 193.56778 183.16595 191.91092C183.16595 190.25407 184.5091 188.91092 186.16595 188.91092C187.8228 188.91092 189.16595 190.25407 189.16595 191.91092Z" fill-rule="nonzero"/><path fill="#000000" fill-opacity="0.0" clip-path="url(#id_0)" d="M194.16954 190.57968C194.16954 192.23654 192.8264 193.57968 191.16954 193.57968C189.5127 193.57968 188.16954 192.23654 188.16954 190.57968C188.16954 188.92282 189.5127 187.57968 191.16954 187.57968C192.8264 187.57968 194.16954 188.92282 194.16954 190.57968Z" fill-rule="nonzero"/><path fill="#000000" fill-opacity="0.0" clip-path="url(#id_0)" d="M199.17314 189.30621C199.17314 190.96307 197.83 192.30621 196.17314 192.30621C194.5163 192.30621 193.17314 190.96307 193.17314 189.30621C193.17314 187.64937 194.5163 186.30621 196.17314 186.30621C197.83 186.30621 199.17314 187.64937 199.17314 189.30621Z" fill-rule="nonzero"/><path fill="#000000" fill-opacity="0.0" clip-path="url(#id_0)" d="M204.17674 188.0823C204.17674 189.73917 202.83359 191.0823 201.17674 191.0823C199.51988 191.0823 198.17674 189.73917 198.17674 188.0823C198.17674 186.42545 199.51988 185.0823 201.17674 185.0823C202.83359 185.0823 204.17674 186.42545 204.17674 188.0823Z" fill-rule="nonzero"/><path fill="#000000" fill-opacity="0.0" clip-path="url(#id_0)" d="M209.18033 186.92648C209.18033 188.58333 207.83719 189.92648 206.18033 189.92648C204.52348 189.92648 203.18033 188.58333 203.18033 186.92648C203.18033 185.26962 204.52348 183.92648 206.18033 183.92648C207.83719 183.92648 209.18033 185.26962 209.18033 186.92648Z" fill-rule="nonzero"/><path fill="#000000" fill-opacity="0.0" clip-path="url(#id_0)" d="M214.18393 185.8278C214.18393 187.48466 212.84079 188.8278 211.18393 188.8278C209.52707 188.8278 208.18393 187.48466 208.18393 185.8278C208.18393 184.17096 209.52707 182.8278 211.18393 182.8278C212.84079 182.8278 214.18393 184.17096 214.18393 185.8278Z" fill-rule="nonzero"/><path fill="#000000" fill-opacity="0.0" clip-path="url(#id_0)" d="M219.18753 184.75467C219.18753 186.41153 217.84438 187.75467 216.18753 187.75467C214.53067 187.75467 213.18753 186.41153 213.18753 184.75467C213.18753 183.09782 214.53067 181.75467 216.18753 181.75467C217.84438 181.75467 219.18753 183.09782 219.18753 184.75467Z" fill-rule="nonzero"/><path fill="#000000" fill-opacity="0.0" clip-path="url(#id_0)" d="M224.19112 183.70108C224.19112 185.35793 222.84798 186.70108 221.19112 186.70108C219.53427 186.70108 218.19112 185.35793 218.19112 183.70108C218.19112 182.04422 219.53427 180.70108 221.19112 180.70108C222.84798 180.70108 224.19112 182.04422 224.19112 183.70108Z" fill-rule="nonzero"/><path fill="#000000" fill-opacity="0.0" clip-path="url(#id_0)" d="M229.19472 182.66281C229.19472 184.31967 227.85158 185.66281 226.19472 185.66281C224.53786 185.66281 223.19472 184.31967 223.19472 182.66281C223.19472 181.00595 224.53786 179.66281 226.19472 179.66281C227.85158 179.66281 229.19472 181.00595 229.19472 182.66281Z" fill-rule="nonzero"/><path fill="#000000" fill-opacity="0.0" clip-path="url(#id_0)" d="M234.19832 181.65256C234.19832 183.30942 232.85516 184.65256 231.19832 184.65256C229.54146 184.65256 228.19832 183.30942 228.19832 181.65256C228.19832 179.9957 229.54146 178.65256 231.19832 178.65256C232.85516 178.65256 234.19832 179.9957 234.19832 181.65256Z" fill-rule="nonzero"/><path fill="#000000" fill-opacity="0.0" clip-path="url(#id_0)" d="M239.2019 180.6737C239.2019 182.33057 237.85876 183.6737 236.2019 183.6737C234.54506 183.6737 233.2019 182.33057 233.2019 180.6737C233.2019 179.01685 234.54506 177.6737 236.2019 177.6737C237.85876 177.6737 239.2019 179.01685 239.2019 180.6737Z" fill-rule="nonzero"/><path fill="#000000" fill-opacity="0.0" clip-path="url(#id_0)" d="M244.2055 179.71689C244.2055 181.37375 242.86235 182.71689 241.2055 182.71689C239.54865 182.71689 238.2055 181.37375 238.2055 179.71689C238.2055 178.06004 239.54865 176.71689 241.2055 176.71689C242.86235 176.71689 244.2055 178.06004 244.2055 179.71689Z" fill-rule="nonzero"/><path fill="#000000" fill-opacity="0.0" clip-path="url(#id_0)" d="M249.20909 178.77592C249.20909 180.43279 247.86595 181.77592 246.20909 181.77592C244.55225 181.77592 243.20909 180.43279 243.20909 178.77592C243.20909 177.11906 244.55225 175.77592 246.20909 175.77592C247.86595 175.77592 249.20909 177.11906 249.20909 178.77592Z" fill-rule="nonzero"/><path fill="#000000" fill-opacity="0.0" clip-path="url(#id_0)" d="M254.21269 177.84566C254.21269 179.5025 252.86955 180.84566 251.21269 180.84566C249.55585 180.84566 248.21269 179.5025 248.21269 177.84566C248.21269 176.1888 249.55585 174.84566 251.21269 174.84566C252.86955 174.84566 254.21269 176.1888 254.21269 177.84566Z" fill-rule="nonzero"/><path fill="#000000" fill-opacity="0.0" clip-path="url(#id_0)" d="M259.21628 176.91171C259.21628 178.56856 257.87314 179.91171 256.21628 179.91171C254.55943 179.91171 253.2163 178.56856 253.2163 176.91171C253.2163 175.25485 254.55943 173.91171 256.21628 173.91171C257.87314 173.91171 259.21628 175.25485 259.21628 176.91171Z" fill-rule="nonzero"/><path fill="#000000" fill-opacity="0.0" clip-path="url(#id_0)" d="M264.21988 175.97981C264.21988 177.63666 262.87674 178.97981 261.21988 178.97981C259.56302 178.97981 258.21988 177.63666 258.21988 175.97981C258.21988 174.32295 259.56302 172.97981 261.21988 172.97981C262.87674 172.97981 264.21988 174.32295 264.21988 175.97981Z" fill-rule="nonzero"/><path fill="#000000" fill-opacity="0.0" clip-path="url(#id_0)" d="M269.22348 175.05035C269.22348 176.70721 267.88034 178.05035 266.22348 178.05035C264.56662 178.05035 263.22348 176.70721 263.22348 175.05035C263.22348 173.39351 264.56662 172.05035 266.22348 172.05035C267.88034 172.05035 269.22348 173.39351 269.22348 175.05035Z" fill-rule="nonzero"/><path fill="#000000" fill-opacity="0.0" clip-path="url(#id_0)" d="M274.22708 174.12527C274.22708 175.78212 272.88394 177.12527 271.22708 177.12527C269.57022 177.12527 268.22708 175.78212 268.22708 174.12527C268.22708 172.46841 269.57022 171.12527 271.22708 171.12527C272.88394 171.12527 274.22708 172.46841 274.22708 174.12527Z" fill-rule="nonzero"/><path fill="#000000" fill-opacity="0.0" clip-path="url(#id_0)" d="M279.23068 173.21085C279.23068 174.86769 277.8875 176.21085 276.23068 176.21085C274.57382 176.21085 273.23068 174.86769 273.23068 173.21085C273.23068 171.55399 274.57382 170.21085 276.23068 170.21085C277.8875 170.21085 279.23068 171.55399 279.23068 173.21085Z" fill-rule="nonzero"/><path fill="#000000" fill-opacity="0.0" clip-path="url(#id_0)" d="M284.23425 172.29985C284.23425 173.9567 282.8911 175.29985 281.23425 175.29985C279.57742 175.29985 278.23425 173.9567 278.23425 172.29985C278.23425 170.64299 279.57742 169.29985 281.23425 169.29985C282.8911 169.29985 284.23425 170.64299 284.23425 172.29985Z" fill-rule="nonzero"/><path fill="#000000" fill-opacity="0.0" clip-path="url(#id_0)" d="M289.23785 171.40056C289.23785 173.0574 287.8947 174.40056 286.23785 174.40056C284.581 174.40056 283.23785 173.0574 283.23785 171.40056C283.23785 169.7437 284.581 168.40056 286.23785 168.40056C287.8947 168.40056 289.23785 169.7437 289.23785 171.40056Z" fill-rule="nonzero"/><path fill="#000000" fill-opacity="0.0" clip-path="url(#id_0)" d="M294.24146 170.5173C294.24146 172.17416 292.89832 173.5173 291.24146 173.5173C289.5846 173.5173 288.24146 172.17416 288.24146 170.5173C288.24146 168.86046 289.5846 167.5173 291.24146 167.5173C292.89832 167.5173 294.24146 168.86046 294.24146 170.5173Z" fill-rule="nonzero"/><path fill="#000000" fill-opacity="0.0" clip-path="url(#id_0)" d="M299.24506 169.64423C299.24506 171.30109 297.90192 172.64423 296.24506 172.64423C294.5882 172.64423 293.24506 171.30109 293.24506 169.64423C293.24506 167.98738 294.5882 166.64423 296.24506 166.64423C297.90192 166.64423 299.24506 167.98738 299.24506 169.64423Z" fill-rule="nonzero"/><path fill="#000000" fill-opacity="0.0" clip-path="url(#id_0)" d="M304.24866 168.79352C304.24866 170.45038 302.90552 171.79352 301.24866 171.79352C299.5918 171.79352 298.24866 170.45038 298.24866 168.79352C298.24866 167.13667 299.5918 165.79352 301.24866 165.79352C302.90552 165.79352 304.24866 167.13667 304.24866 168.79352Z" fill-rule="nonzero"/><path fill="#000000" fill-opacity="0.0" clip-path="url(#id_0)" d="M309.25226 167.96686C309.25226 169.6237 307.9091 170.96686 306.25226 170.96686C304.5954 170.96686 303.25226 169.6237 303.25226 167.96686C303.25226 166.31 304.5954 164.96686 306.25226 164.96686C307.9091 164.96686 309.25226 166.31 309.25226 167.96686Z" fill-rule="nonzero"/><path fill="#000000" fill-opacity="0.0" clip-path="url(#id_0)" d="M314.25583 167.17479C314.25583 168.83165 312.9127 170.17479 311.25583 170.17479C309.599 170.17479 308.25583 168.83165 308.25583 167.17479C308.25583 165.51794 309.599 164.17479 311.25583 164.17479C312.9127 164.17479 314.25583 165.51794 314.25583 167.17479Z" fill-rule="nonzero"/><path fill="#000000" fill-opacity="0.0" clip-path="url(#id_0)" d="M319.25943 166.42441C319.25943 168.08125 317.9163 169.42441 316.25943 169.42441C314.60257 169.42441 313.25943 168.08125 313.25943 166.42441C313.25943 164.76755 314.60257 163.42441 316.25943 163.42441C317.9163 163.42441 319.25943 164.76755 319.25943 166.42441Z" fill-rule="nonzero"/><path fill="#000000" fill-opacity="0.0" clip-path="url(#id_0)" d="M324.26303 165.70842C324.26303 167.36528 322.9199 168.70842 321.26303 168.70842C319.60617 168.70842 318.26303 167.36528 318.26303 165.70842C318.26303 164.05157 319.60617 162.70842 321.26303 162.70842C322.9199 162.70842 324.26303 164.05157 324.26303 165.70842Z" fill-rule="nonzero"/><path fill="#000000" fill-opacity="0.0" clip-path="url(#id_0)" d="M329.26663 165.0242C329.26663 166.68106 327.9235 168.0242 326.26663 168.0242C324.60977 168.0242 323.26663 166.68106 323.26663 165.0242C323.26663 163.36736 324.60977 162.0242 326.26663 162.0242C327.9235 162.0242 329.26663 163.36736 329.26663 165.0242Z" fill-rule="nonzero"/><path fill="#000000" fill-opacity="0.0" clip-path="url(#id_0)" d="M334.27023 164.36429C334.27023 166.02115 332.92706 167.36429 331.27023 167.36429C329.61337 167.36429 328.27023 166.02115 328.27023 164.36429C328.27023 162.70743 329.61337 161.36429 331.27023 161.36429C332.92706 161.36429 334.27023 162.70743 334.27023 164.36429Z" fill-rule="nonzero"/><path fill="#000000" fill-opacity="0.0" clip-path="url(#id_0)" d="M339.2738 163.71556C339.2738 165.37242 337.93066 166.71556 336.2738 166.71556C334.61697 166.71556 333.2738 165.37242 333.2738 163.71556C333.2738 162.05872 334.61697 160.71556 336.2738 160.71556C337.93066 160.71556 339.2738 162.05872 339.2738 163.71556Z" fill-rule="nonzero"/><path fill="#000000" fill-opacity="0.0" clip-path="url(#id_0)" d="M344.2774 163.0755C344.2774 164.73235 342.93427 166.0755 341.2774 166.0755C339.62057 166.0755 338.2774 164.73235 338.2774 163.0755C338.2774 161.41864 339.62057 160.0755 341.2774 160.0755C342.93427 160.0755 344.2774 161.41864 344.2774 163.0755Z" fill-rule="nonzero"/><path fill="#000000" fill-opacity="0.0" clip-path="url(#id_0)" d="M349.281 162.43527C349.281 164.09213 347.93787 165.43527 346.281 165.43527C344.62415 165.43527 343.281 164.09213 343.281 162.43527C343.281 160.77841 344.62415 159.43527 346.281 159.43527C347.93787 159.43527 349.281 160.77841 349.281 162.43527Z" fill-rule="nonzero"/><path fill="#000000" fill-opacity="0.0" clip-path="url(#id_0)" d="M354.2846 161.78758C354.2846 163.44444 352.94147 164.78758 351.2846 164.78758C349.62775 164.78758 348.2846 163.44444 348.2846 161.78758C348.2846 160.13072 349.62775 158.78758 351.2846 158.78758C352.94147 158.78758 354.2846 160.13072 354.2846 161.78758Z" fill-rule="nonzero"/><path fill="#000000" fill-opacity="0.0" clip-path="url(#id_0)" d="M359.2882 161.13943C359.2882 162.79628 357.94507 164.13943 356.2882 164.13943C354.63135 164.13943 353.2882 162.79628 353.2882 161.13943C353.2882 159.48257 354.63135 158.13943 356.2882 158.13943C357.94507 158.13943 359.2882 159.48257 359.2882 161.13943Z" fill-rule="nonzero"/><path fill="#000000" fill-opacity="0.0" clip-path="url(#id_0)" d="M364.2918 160.48376C364.2918 162.14062 362.94864 163.48376 361.2918 163.48376C359.63495 163.48376 358.2918 162.14062 358.2918 160.48376C358.2918 158.82692 359.63495 157.48376 361.2918 157.48376C362.94864 157.48376 364.2918 158.82692 364.2918 160.48376Z" fill-rule="nonzero"/><path fill="#000000" fill-opacity="0.0" clip-path="url(#id_0)" d="M369.29538 159.81224C369.29538 161.4691 367.95224 162.81224 366.29538 162.81224C364.63855 162.81224 363.29538 161.4691 363.29538 159.81224C363.29538 158.15538 364.63855 156.81224 366.29538 156.81224C367.95224 156.81224 369.29538 158.15538 369.29538 159.81224Z" fill-rule="nonzero"/><path fill="#000000" fill-opacity="0.0" clip-path="url(#id_0)" d="M374.29898 159.11705C374.29898 160.7739 372.95584 162.11705 371.29898 162.11705C369.64212 162.11705 368.29898 160.7739 368.29898 159.11705C368.29898 157.46019 369.64212 156.11705 371.29898 156.11705C372.95584 156.11705 374.29898 157.46019 374.29898 159.11705Z" fill-rule="nonzero"/><path fill="#000000" fill-opacity="0.0" clip-path="url(#id_0)" d="M379.30258 158.4116C379.30258 160.06847 377.95944 161.4116 376.30258 161.4116C374.64572 161.4116 373.30258 160.06847 373.30258 158.4116C373.30258 156.75476 374.64572 155.4116 376.30258 155.4116C377.95944 155.4116 379.30258 156.75476 379.30258 158.4116Z" fill-rule="nonzero"/><path fill="#000000" fill-opacity="0.0" clip-path="url(#id_0)" d="M384.30618 157.71346C384.30618 159.37032 382.96304 160.71346 381.30618 160.71346C379.64932 160.71346 378.30618 159.37032 378.30618 157.71346C378.30618 156.05661 379.64932 154.71346 381.30618 154.71346C382.96304 154.71346 384.30618 156.05661 384.30618 157.71346Z" fill-rule="nonzero"/><path fill="#000000" fill-opacity="0.0" clip-path="url(#id_0)" d="M389.30978 157.0209C389.30978 158.67775 387.9666 160.0209 386.30978 160.0209C384.65292 160.0209 383.30978 158.67775 383.30978 157.0209C383.30978 155.36404 384.65292 154.0209 386.30978 154.0209C387.9666 154.0209 389.30978 155.36404 389.30978 157.0209Z" fill-rule="nonzero"/><path fill="#000000" fill-opacity="0.0" clip-path="url(#id_0)" d="M394.31335 156.33347C394.31335 157.99033 392.9702 159.33347 391.31335 159.33347C389.65652 159.33347 388.31335 157.99033 388.31335 156.33347C388.31335 154.6766 389.65652 153.33347 391.31335 153.33347C392.9702 153.33347 394.31335 154.6766 394.31335 156.33347Z" fill-rule="nonzero"/><path fill="#000000" fill-opacity="0.0" clip-path="url(#id_0)" d="M399.31696 155.63443C399.31696 157.29128 397.97382 158.63443 396.31696 158.63443C394.66013 158.63443 393.31696 157.29128 393.31696 155.63443C393.31696 153.97757 394.66013 152.63443 396.31696 152.63443C397.97382 152.63443 399.31696 153.97757 399.31696 155.63443Z" fill-rule="nonzero"/><path fill="#000000" fill-opacity="0.0" clip-path="url(#id_0)" d="M404.32056 154.91628C404.32056 156.57314 402.97742 157.91628 401.32056 157.91628C399.6637 157.91628 398.32056 156.57314 398.32056 154.91628C398.32056 153.25943 399.6637 151.91628 401.32056 151.91628C402.97742 151.91628 404.32056 153.25943 404.32056 154.91628Z" fill-rule="nonzero"/><path fill="#000000" fill-opacity="0.0" clip-path="url(#id_0)" d="M409.32416 154.18062C409.32416 155.83746 407.98102 157.18062 406.32416 157.18062C404.6673 157.18062 403.32416 155.83746 403.32416 154.18062C403.32416 152.52376 404.6673 151.18062 406.32416 151.18062C407.98102 151.18062 409.32416 152.52376 409.32416 154.18062Z" fill-rule="nonzero"/><path fill="#000000" fill-opacity="0.0" clip-path="url(#id_0)" d="M414.32776 153.4307C414.32776 155.08755 412.98462 156.4307 411.32776 156.4307C409.6709 156.4307 408.32776 155.08755 408.32776 153.4307C408.32776 151.77385 409.6709 150.4307 411.32776 150.4307C412.98462 150.4307 414.32776 151.77385 414.32776 153.4307Z" fill-rule="nonzero"/><path fill="#000000" fill-opacity="0.0" clip-path="url(#id_0)" d="M419.33136 152.66168C419.33136 154.31854 417.9882 155.66168 416.33136 155.66168C414.6745 155.66168 413.33136 154.31854 413.33136 152.66168C413.33136 151.00484 414.6745 149.66168 416.33136 149.66168C417.9882 149.66168 419.33136 151.00484 419.33136 152.66168Z" fill-rule="nonzero"/><path fill="#000000" fill-opacity="0.0" clip-path="url(#id_0)" d="M424.33493 151.8851C424.33493 153.54195 422.9918 154.8851 421.33493 154.8851C419.6781 154.8851 418.33493 153.54195 418.33493 151.8851C418.33493 150.22824 419.6781 148.8851 421.33493 148.8851C422.9918 148.8851 424.33493 150.22824 424.33493 151.8851Z" fill-rule="nonzero"/><path fill="#000000" fill-opacity="0.0" clip-path="url(#id_0)" d="M429.33853 151.10709C429.33853 152.76393 427.9954 154.10709 426.33853 154.10709C424.68167 154.10709 423.33853 152.76393 423.33853 151.10709C423.33853 149.45023 424.68167 148.10709 426.33853 148.10709C427.9954 148.10709 429.33853 149.45023 429.33853 151.10709Z" fill-rule="nonzero"/><path fill="#000000" fill-opacity="0.0" clip-path="url(#id_0)" d="M434.34213 150.31793C434.34213 151.9748 432.999 153.31793 431.34213 153.31793C429.68527 153.31793 428.34213 151.9748 428.34213 150.31793C428.34213 148.66107 429.68527 147.31793 431.34213 147.31793C432.999 147.31793 434.34213 148.66107 434.34213 150.31793Z" fill-rule="nonzero"/><path fill="#000000" fill-opacity="0.0" clip-path="url(#id_0)" d="M439.34573 149.51862C439.34573 151.17546 438.0026 152.51862 436.34573 152.51862C434.68887 152.51862 433.34573 151.17546 433.34573 149.51862C433.34573 147.86176 434.68887 146.51862 436.34573 146.51862C438.0026 146.51862 439.34573 147.86176 439.34573 149.51862Z" fill-rule="nonzero"/><path fill="#000000" fill-opacity="0.0" clip-path="url(#id_0)" d="M444.34933 148.71072C444.34933 150.36758 443.00616 151.71072 441.34933 151.71072C439.69247 151.71072 438.34933 150.36758 438.34933 148.71072C438.34933 147.05388 439.69247 145.71072 441.34933 145.71072C443.00616 145.71072 444.34933 147.05388 444.34933 148.71072Z" fill-rule="nonzero"/><path fill="#000000" fill-opacity="0.0" clip-path="url(#id_0)" d="M449.3529 147.89955C449.3529 149.55641 448.00977 150.89955 446.3529 150.89955C444.69608 150.89955 443.3529 149.55641 443.3529 147.89955C443.3529 146.24269 444.69608 144.89955 446.3529 144.89955C448.00977 144.89955 449.3529 146.24269 449.3529 147.89955Z" fill-rule="nonzero"/><path fill="#000000" fill-opacity="0.0" clip-path="url(#id_0)" d="M454.3565 147.07556C454.3565 148.73242 453.01337 150.07556 451.3565 150.07556C449.69968 150.07556 448.3565 148.73242 448.3565 147.07556C448.3565 145.41872 449.69968 144.07556 451.3565 144.07556C453.01337 144.07556 454.3565 145.41872 454.3565 147.07556Z" fill-rule="nonzero"/><path fill="#000000" fill-opacity="0.0" clip-path="url(#id_0)" d="M459.3601 146.23375C459.3601 147.89061 458.01697 149.23375 456.3601 149.23375C454.70325 149.23375 453.3601 147.89061 453.3601 146.23375C453.3601 144.5769 454.70325 143.23375 456.3601 143.23375C458.01697 143.23375 459.3601 144.5769 459.3601 146.23375Z" fill-rule="nonzero"/><path fill="#000000" fill-opacity="0.0" clip-path="url(#id_0)" d="M464.3637 145.3759C464.3637 147.03276 463.02057 148.3759 461.3637 148.3759C459.70685 148.3759 458.3637 147.03276 458.3637 145.3759C458.3637 143.71906 459.70685 142.3759 461.3637 142.3759C463.02057 142.3759 464.3637 143.71906 464.3637 145.3759Z" fill-rule="nonzero"/><path fill="#000000" fill-opacity="0.0" clip-path="url(#id_0)" d="M469.3673 144.47604C469.3673 146.13289 468.02417 147.47604 466.3673 147.47604C464.71045 147.47604 463.3673 146.13289 463.3673 144.47604C463.3673 142.81918 464.71045 141.47604 466.3673 141.47604C468.02417 141.47604 469.3673 142.81918 469.3673 144.47604Z" fill-rule="nonzero"/><path fill="#000000" fill-opacity="0.0" clip-path="url(#id_0)" d="M474.3709 143.55484C474.3709 145.2117 473.02774 146.55484 471.3709 146.55484C469.71405 146.55484 468.3709 145.2117 468.3709 143.55484C468.3709 141.89798 469.71405 140.55484 471.3709 140.55484C473.02774 140.55484 474.3709 141.89798 474.3709 143.55484Z" fill-rule="nonzero"/><path fill="#000000" fill-opacity="0.0" clip-path="url(#id_0)" d="M479.37448 142.62018C479.37448 144.27704 478.03134 145.62018 476.37448 145.62018C474.71765 145.62018 473.37448 144.27704 473.37448 142.62018C473.37448 140.96333 474.71765 139.62018 476.37448 139.62018C478.03134 139.62018 479.37448 140.96333 479.37448 142.62018Z" fill-rule="nonzero"/><path fill="#000000" fill-opacity="0.0" clip-path="url(#id_0)" d="M484.37808 141.65237C484.37808 143.30923 483.03494 144.65237 481.37808 144.65237C479.72122 144.65237 478.37808 143.30923 478.37808 141.65237C478.37808 139.99553 479.72122 138.65237 481.37808 138.65237C483.03494 138.65237 484.37808 139.99553 484.37808 141.65237Z" fill-rule="nonzero"/><path fill="#000000" fill-opacity="0.0" clip-path="url(#id_0)" d="M489.38168 140.6617C489.38168 142.31856 488.03854 143.6617 486.38168 143.6617C484.72482 143.6617 483.38168 142.31856 483.38168 140.6617C483.38168 139.00485 484.72482 137.6617 486.38168 137.6617C488.03854 137.6617 489.38168 139.00485 489.38168 140.6617Z" fill-rule="nonzero"/><path fill="#000000" fill-opacity="0.0" clip-path="url(#id_0)" d="M494.38528 139.6458C494.38528 141.30264 493.04214 142.6458 491.38528 142.6458C489.72842 142.6458 488.38528 141.30264 488.38528 139.6458C488.38528 137.98894 489.72842 136.6458 491.38528 136.6458C493.04214 136.6458 494.38528 137.98894 494.38528 139.6458Z" fill-rule="nonzero"/><path fill="#000000" fill-opacity="0.0" clip-path="url(#id_0)" d="M499.3889 138.59561C499.3889 140.25247 498.04572 141.59561 496.3889 141.59561C494.73203 141.59561 493.3889 140.25247 493.3889 138.59561C493.3889 136.93875 494.73203 135.59561 496.3889 135.59561C498.04572 135.59561 499.3889 136.93875 499.3889 138.59561Z" fill-rule="nonzero"/><path fill="#000000" fill-opacity="0.0" clip-path="url(#id_0)" d="M504.3925 137.52011C504.3925 139.17696 503.04932 140.52011 501.3925 140.52011C499.73563 140.52011 498.3925 139.17696 498.3925 137.52011C498.3925 135.86325 499.73563 134.52011 501.3925 134.52011C503.04932 134.52011 504.3925 135.86325 504.3925 137.52011Z" fill-rule="nonzero"/><path fill="#000000" fill-opacity="0.0" clip-path="url(#id_0)" d="M509.39606 136.40866C509.39606 138.0655 508.05292 139.40866 506.39606 139.40866C504.73923 139.40866 503.39606 138.0655 503.39606 136.40866C503.39606 134.7518 504.73923 133.40866 506.39606 133.40866C508.05292 133.40866 509.39606 134.7518 509.39606 136.40866Z" fill-rule="nonzero"/><path fill="#000000" fill-opacity="0.0" clip-path="url(#id_0)" d="M514.39966 135.2575C514.39966 136.91435 513.0565 138.2575 511.39966 138.2575C509.7428 138.2575 508.39966 136.91435 508.39966 135.2575C508.39966 133.60065 509.7428 132.2575 511.39966 132.2575C513.0565 132.2575 514.39966 133.60065 514.39966 135.2575Z" fill-rule="nonzero"/><path fill="#000000" fill-opacity="0.0" clip-path="url(#id_0)" d="M519.40326 134.06206C519.40326 135.71892 518.0601 137.06206 516.40326 137.06206C514.7464 137.06206 513.40326 135.71892 513.40326 134.06206C513.40326 132.40521 514.7464 131.06206 516.40326 131.06206C518.0601 131.06206 519.40326 132.40521 519.40326 134.06206Z" fill-rule="nonzero"/><path fill="#000000" fill-opacity="0.0" clip-path="url(#id_0)" d="M524.40686 132.8031C524.40686 134.45996 523.0637 135.8031 521.40686 135.8031C519.75 135.8031 518.40686 134.45996 518.40686 132.8031C518.40686 131.14624 519.75 129.8031 521.40686 129.8031C523.0637 129.8031 524.40686 131.14624 524.40686 132.8031Z" fill-rule="nonzero"/><path fill="#000000" fill-opacity="0.0" clip-path="url(#id_0)" d="M529.41046 131.49255C529.41046 133.14941 528.0673 134.49255 526.41046 134.49255C524.7536 134.49255 523.41046 133.14941 523.41046 131.49255C523.41046 129.83571 524.7536 128.49255 526.41046 128.49255C528.0673 128.49255 529.41046 129.83571 529.41046 131.49255Z" fill-rule="nonzero"/><path fill="#000000" fill-opacity="0.0" clip-path="url(#id_0)" d="M534.41406 130.10849C534.41406 131.76535 533.0709 133.10849 531.41406 133.10849C529.7572 133.10849 528.41406 131.76535 528.41406 130.10849C528.41406 128.45164 529.7572 127.1085 531.41406 127.1085C533.0709 127.1085 534.41406 128.45164 534.41406 130.10849Z" fill-rule="nonzero"/><path fill="#000000" fill-opacity="0.0" clip-path="url(#id_0)" d="M539.41766 128.61743C539.41766 130.27428 538.0745 131.61743 536.41766 131.61743C534.7608 131.61743 533.41766 130.27428 533.41766 128.61743C533.41766 126.96057 534.7608 125.61743 536.41766 125.61743C538.0745 125.61743 539.41766 126.96057 539.41766 128.61743Z" fill-rule="nonzero"/><path fill="#000000" fill-opacity="0.0" clip-path="url(#id_0)" d="M544.42126 127.03627C544.42126 128.69313 543.07806 130.03627 541.42126 130.03627C539.7644 130.03627 538.42126 128.69313 538.42126 127.03627C538.42126 125.37942 539.7644 124.03627 541.42126 124.03627C543.07806 124.03627 544.42126 125.37942 544.42126 127.03627Z" fill-rule="nonzero"/><path fill="#000000" fill-opacity="0.0" clip-path="url(#id_0)" d="M549.4248 125.31039C549.4248 126.96724 548.08167 128.31038 546.4248 128.31038C544.768 128.31038 543.4248 126.96724 543.4248 125.31039C543.4248 123.65353 544.768 122.31039 546.4248 122.31039C548.08167 122.31039 549.4248 123.65353 549.4248 125.31039Z" fill-rule="nonzero"/><path fill="#000000" fill-opacity="0.0" clip-path="url(#id_0)" d="M554.4284 123.41192C554.4284 125.06877 553.08527 126.41192 551.4284 126.41192C549.77155 126.41192 548.4284 125.06877 548.4284 123.41192C548.4284 121.755066 549.77155 120.41192 551.4284 120.41192C553.08527 120.41192 554.4284 121.755066 554.4284 123.41192Z" fill-rule="nonzero"/><path fill="#000000" fill-opacity="0.0" clip-path="url(#id_0)" d="M559.432 121.30088C559.432 122.95773 558.08887 124.30088 556.432 124.30088C554.77515 124.30088 553.432 122.95773 553.432 121.30088C553.432 119.64402 554.77515 118.30088 556.432 118.30088C558.08887 118.30088 559.432 119.64402 559.432 121.30088Z" fill-rule="nonzero"/><path fill="#000000" fill-opacity="0.0" clip-path="url(#id_0)" d="M564.4356 118.889046C564.4356 120.5459 563.09247 121.889046 561.4356 121.889046C559.77875 121.889046 558.4356 120.5459 558.4356 118.889046C558.4356 117.232185 559.77875 115.889046 561.4356 115.889046C563.09247 115.889046 564.4356 117.232185 564.4356 118.889046Z" fill-rule="nonzero"/><path fill="#000000" fill-opacity="0.0" clip-path="url(#id_0)" d="M569.4392 115.9158C569.4392 117.572655 568.09607 118.9158 566.4392 118.9158C564.78235 118.9158 563.4392 117.572655 563.4392 115.9158C563.4392 114.25895 564.78235 112.9158 566.4392 112.9158C568.09607 112.9158 569.4392 114.25895 569.4392 115.9158Z" fill-rule="nonzero"/><path fill="#000000" fill-opacity="0.0" clip-path="url(#id_0)" d="M574.4428 112.03914C574.4428 113.69599 573.0997 115.03914 571.4428 115.03914C569.78595 115.03914 568.4428 113.69599 568.4428 112.03914C568.4428 110.38228 569.78595 109.03914 571.4428 109.03914C573.0997 109.03914 574.4428 110.38228 574.4428 112.03914Z" fill-rule="nonzero"/><path fill="#000000" fill-opacity="0.0" clip-path="url(#id_0)" d="M579.4464 106.300064C579.4464 107.95692 578.1033 109.300064 576.4464 109.300064C574.78955 109.300064 573.4464 107.95692 573.4464 106.300064C573.4464 104.64321 574.78955 103.300064 576.4464 103.300064C578.1033 103.300064 579.4464 104.64321 579.4464 106.300064Z" fill-rule="nonzero"/><path fill="#000000" d="M307.1939 349.45L307.1939 340.85626L310.4439 340.85626Q311.28766 340.85626 311.74078 340.9344Q312.3814 341.04376 312.80328 341.34064Q313.24078 341.6375 313.49078 342.16876Q313.7564 342.7 313.7564 343.34064Q313.7564 344.4344 313.05328 345.2Q312.36578 345.95 310.53766 345.95L308.33453 345.95L308.33453 349.45L307.1939 349.45ZM308.33453 344.95L310.55328 344.95Q311.66266 344.95 312.11578 344.54376Q312.58453 344.1219 312.58453 343.3719Q312.58453 342.84064 312.30328 342.46564Q312.03766 342.075 311.60016 341.95Q311.30328 341.8719 310.53766 341.8719L308.33453 341.8719L308.33453 344.95ZM319.3189 347.45L320.41266 347.575Q320.16266 348.52814 319.45953 349.0594Q318.7564 349.59064 317.67828 349.59064Q316.3189 349.59064 315.5064 348.7469Q314.70953 347.90314 314.70953 346.3875Q314.70953 344.825 315.52203 343.96564Q316.33453 343.09064 317.61578 343.09064Q318.86578 343.09064 319.64703 343.9344Q320.4439 344.77814 320.4439 346.325Q320.4439 346.41876 320.4439 346.60626L315.80328 346.60626Q315.86578 347.6375 316.3814 348.1844Q316.89703 348.71564 317.67828 348.71564Q318.2564 348.71564 318.66266 348.41876Q319.08453 348.10626 319.3189 347.45ZM315.86578 345.7469L319.33453 345.7469Q319.27203 344.95 318.9439 344.5594Q318.42828 343.95 317.6314 343.95Q316.89703 343.95 316.39703 344.4344Q315.91266 344.91876 315.86578 345.7469ZM322.05328 349.45L322.05328 343.23126L323.0064 343.23126L323.0064 344.16876Q323.36578 343.5125 323.66266 343.3094Q323.97516 343.09064 324.35016 343.09064Q324.8814 343.09064 325.42828 343.41876L325.0689 344.40314Q324.67828 344.16876 324.30328 344.16876Q323.9439 344.16876 323.66266 344.3875Q323.39703 344.59064 323.28766 344.96564Q323.10016 345.52814 323.10016 346.1844L323.10016 349.45L322.05328 349.45ZM330.1314 347.16876L331.16266 347.3094Q330.99078 348.3719 330.28766 348.98126Q329.58453 349.59064 328.5689 349.59064Q327.28766 349.59064 326.5064 348.7625Q325.74078 347.91876 325.74078 346.35626Q325.74078 345.35626 326.0689 344.60626Q326.41266 343.84064 327.08453 343.46564Q327.77203 343.09064 328.58453 343.09064Q329.58453 343.09064 330.22516 343.60626Q330.8814 344.10626 331.0689 345.0594L330.03766 345.21564Q329.89703 344.59064 329.52203 344.27814Q329.14703 343.95 328.61578 343.95Q327.8189 343.95 327.3189 344.52814Q326.8189 345.09064 326.8189 346.325Q326.8189 347.59064 327.30328 348.15314Q327.78766 348.71564 328.55328 348.71564Q329.17828 348.71564 329.58453 348.34064Q330.0064 347.96564 330.1314 347.16876ZM336.3189 347.45L337.41266 347.575Q337.16266 348.52814 336.45953 349.0594Q335.7564 349.59064 334.67828 349.59064Q333.3189 349.59064 332.5064 348.7469Q331.70953 347.90314 331.70953 346.3875Q331.70953 344.825 332.52203 343.96564Q333.33453 343.09064 334.61578 343.09064Q335.86578 343.09064 336.64703 343.9344Q337.4439 344.77814 337.4439 346.325Q337.4439 346.41876 337.4439 346.60626L332.80328 346.60626Q332.86578 347.6375 333.3814 348.1844Q333.89703 348.71564 334.67828 348.71564Q335.2564 348.71564 335.66266 348.41876Q336.08453 348.10626 336.3189 347.45ZM332.86578 345.7469L336.33453 345.7469Q336.27203 344.95 335.9439 344.5594Q335.42828 343.95 334.6314 343.95Q333.89703 343.95 333.39703 344.4344Q332.91266 344.91876 332.86578 345.7469ZM339.0689 349.45L339.0689 343.23126L340.0064 343.23126L340.0064 344.10626Q340.6939 343.09064 341.99078 343.09064Q342.55328 343.09064 343.02203 343.29376Q343.5064 343.4969 343.74078 343.825Q343.97516 344.15314 344.0689 344.59064Q344.11578 344.8875 344.11578 345.6219L344.11578 349.45L343.0689 349.45L343.0689 345.66876Q343.0689 345.0125 342.9439 344.7Q342.8189 344.3875 342.5064 344.2Q342.1939 343.9969 341.77203 343.9969Q341.10016 343.9969 340.60016 344.4344Q340.11578 344.85626 340.11578 346.04376L340.11578 349.45L339.0689 349.45ZM348.36578 348.5125L348.52203 349.4344Q348.0689 349.52814 347.72516 349.52814Q347.14703 349.52814 346.83453 349.35626Q346.52203 349.16876 346.3814 348.8719Q346.2564 348.575 346.2564 347.6219L346.2564 344.04376L345.49078 344.04376L345.49078 343.23126L346.2564 343.23126L346.2564 341.6844L347.30328 341.0594L347.30328 343.23126L348.36578 343.23126L348.36578 344.04376L347.30328 344.04376L347.30328 347.6844Q347.30328 348.1375 347.35016 348.2625Q347.41266 348.3875 347.53766 348.46564Q347.66266 348.54376 347.89703 348.54376Q348.08453 348.54376 348.36578 348.5125ZM349.0689 342.075L349.0689 340.85626L350.1314 340.85626L350.1314 342.075L349.0689 342.075ZM349.0689 349.45L349.0689 343.23126L350.1314 343.23126L350.1314 349.45L349.0689 349.45ZM352.03766 349.45L352.03766 340.85626L353.10016 340.85626L353.10016 349.45L352.03766 349.45ZM359.3189 347.45L360.41266 347.575Q360.16266 348.52814 359.45953 349.0594Q358.7564 349.59064 357.67828 349.59064Q356.3189 349.59064 355.5064 348.7469Q354.70953 347.90314 354.70953 346.3875Q354.70953 344.825 355.52203 343.96564Q356.33453 343.09064 357.61578 343.09064Q358.86578 343.09064 359.64703 343.9344Q360.4439 344.77814 360.4439 346.325Q360.4439 346.41876 360.4439 346.60626L355.80328 346.60626Q355.86578 347.6375 356.3814 348.1844Q356.89703 348.71564 357.67828 348.71564Q358.2564 348.71564 358.66266 348.41876Q359.08453 348.10626 359.3189 347.45ZM355.86578 345.7469L359.33453 345.7469Q359.27203 344.95 358.9439 344.5594Q358.42828 343.95 357.6314 343.95Q356.89703 343.95 356.39703 344.4344Q355.91266 344.91876 355.86578 345.7469Z" fill-rule="nonzero"/><path fill="#000000" d="M23.052475 200.9314L22.052475 200.9314L22.03685 197.3064L25.22435 197.3064Q25.896225 198.13452 26.239975 199.02515Q26.5681 199.91577 26.5681 200.85327Q26.5681 202.1189 26.03685 203.16577Q25.489975 204.19702 24.47435 204.72827Q23.4431 205.2439 22.177475 205.2439Q20.91185 205.2439 19.833725 204.72827Q18.739975 204.19702 18.22435 203.21265Q17.6931 202.22827 17.6931 200.94702Q17.6931 200.00952 17.989975 199.25952Q18.28685 198.50952 18.833725 198.08765Q19.364975 197.65015 20.239975 197.4314L20.521225 198.44702Q19.864975 198.65015 19.489975 198.94702Q19.114975 199.22827 18.896225 199.75952Q18.66185 200.29077 18.66185 200.9314Q18.66185 201.71265 18.896225 202.29077Q19.1306 202.85327 19.521225 203.21265Q19.91185 203.5564 20.3806 203.7439Q21.177475 204.07202 22.09935 204.07202Q23.2556 204.07202 24.03685 203.6814Q24.802475 203.27515 25.177475 202.52515Q25.552475 201.77515 25.552475 200.91577Q25.552475 200.1814 25.271225 199.47827Q24.97435 198.77515 24.66185 198.41577L23.052475 198.41577L23.052475 200.9314ZM25.66185 192.02515Q26.16185 192.6189 26.364975 193.16577Q26.5681 193.69702 26.5681 194.32202Q26.5681 195.35327 26.0681 195.90015Q25.5681 196.44702 24.78685 196.44702Q24.333725 196.44702 23.958725 196.2439Q23.5681 196.04077 23.34935 195.69702Q23.114975 195.35327 23.0056 194.9314Q22.91185 194.63452 22.833725 193.9939Q22.6931 192.72827 22.47435 192.1189Q22.2556 192.1189 22.208725 192.1189Q21.552475 192.1189 21.28685 192.41577Q20.9431 192.82202 20.9431 193.6189Q20.9431 194.35327 21.208725 194.71265Q21.458725 195.07202 22.114975 195.2439L21.97435 196.27515Q21.3181 196.13452 20.91185 195.8064Q20.5056 195.47827 20.28685 194.8689Q20.0681 194.25952 20.0681 193.46265Q20.0681 192.66577 20.2556 192.16577Q20.4431 191.66577 20.72435 191.4314Q21.0056 191.19702 21.4431 191.10327Q21.708725 191.0564 22.41185 191.0564L23.8181 191.0564Q25.28685 191.0564 25.677475 190.9939Q26.0681 190.91577 26.427475 190.71265L26.427475 191.82202Q26.09935 191.97827 25.66185 192.02515ZM23.302475 192.1189Q23.53685 192.69702 23.708725 193.83765Q23.802475 194.4939 23.927475 194.75952Q24.03685 195.02515 24.2556 195.1814Q24.47435 195.32202 24.7556 195.32202Q25.177475 195.32202 25.458725 195.00952Q25.739975 194.6814 25.739975 194.07202Q25.739975 193.46265 25.47435 192.9939Q25.208725 192.50952 24.739975 192.29077Q24.3806 192.1189 23.6931 192.1189L23.302475 192.1189ZM19.052475 189.08765L17.833725 189.08765L17.833725 188.02515L19.052475 188.02515L19.052475 189.08765ZM26.427475 189.08765L20.208725 189.08765L20.208725 188.02515L26.427475 188.02515L26.427475 189.08765ZM26.427475 186.08765L20.208725 186.08765L20.208725 185.15015L21.083725 185.15015Q20.0681 184.46265 20.0681 183.16577Q20.0681 182.60327 20.271225 182.13452Q20.47435 181.65015 20.802475 181.41577Q21.1306 181.1814 21.5681 181.08765Q21.864975 181.04077 22.59935 181.04077L26.427475 181.04077L26.427475 182.08765L22.646225 182.08765Q21.989975 182.08765 21.677475 182.21265Q21.364975 182.33765 21.177475 182.65015Q20.97435 182.96265 20.97435 183.38452Q20.97435 184.0564 21.41185 184.5564Q21.833725 185.04077 23.021225 185.04077L26.427475 185.04077L26.427475 186.08765ZM28.8181 176.08765L20.208725 176.08765L20.208725 175.13452L21.0056 175.13452Q20.53685 174.79077 20.302475 174.3689Q20.0681 173.9314 20.0681 173.32202Q20.0681 172.52515 20.47435 171.91577Q20.8806 171.3064 21.6306 171.00952Q22.3806 170.69702 23.271225 170.69702Q24.22435 170.69702 24.989975 171.04077Q25.7556 171.3689 26.16185 172.02515Q26.5681 172.6814 26.5681 173.40015Q26.5681 173.9314 26.34935 174.35327Q26.114975 174.77515 25.78685 175.04077L28.8181 175.04077L28.8181 176.08765ZM23.34935 175.13452Q24.552475 175.13452 25.1306 174.65015Q25.6931 174.16577 25.6931 173.47827Q25.6931 172.77515 25.09935 172.27515Q24.5056 171.77515 23.2556 171.77515Q22.0681 171.77515 21.489975 172.25952Q20.896225 172.7439 20.896225 173.4314Q20.896225 174.10327 21.521225 174.6189Q22.146225 175.13452 23.34935 175.13452ZM23.3181 169.47827Q21.583725 169.47827 20.7556 168.52515Q20.0681 167.72827 20.0681 166.57202Q20.0681 165.29077 20.91185 164.47827Q21.739975 163.65015 23.22435 163.65015Q24.427475 163.65015 25.114975 164.00952Q25.802475 164.3689 26.1931 165.07202Q26.5681 165.75952 26.5681 166.57202Q26.5681 167.8689 25.739975 168.6814Q24.896225 169.47827 23.3181 169.47827ZM23.3181 168.40015Q24.5056 168.40015 25.09935 167.88452Q25.6931 167.35327 25.6931 166.57202Q25.6931 165.77515 25.09935 165.25952Q24.5056 164.7439 23.28685 164.7439Q22.1306 164.7439 21.53685 165.27515Q20.9431 165.79077 20.9431 166.57202Q20.9431 167.35327 21.53685 167.88452Q22.114975 168.40015 23.3181 168.40015ZM19.052475 162.08765L17.833725 162.08765L17.833725 161.02515L19.052475 161.02515L19.052475 162.08765ZM26.427475 162.08765L20.208725 162.08765L20.208725 161.02515L26.427475 161.02515L26.427475 162.08765ZM26.427475 155.0564L25.646225 155.0564Q26.5681 155.65015 26.5681 156.79077Q26.5681 157.54077 26.16185 158.16577Q25.739975 158.79077 25.0056 159.13452Q24.271225 159.47827 23.3181 159.47827Q22.396225 159.47827 21.6306 159.16577Q20.864975 158.85327 20.47435 158.22827Q20.0681 157.60327 20.0681 156.83765Q20.0681 156.27515 20.302475 155.83765Q20.53685 155.40015 20.91185 155.1189L17.833725 155.1189L17.833725 154.07202L26.427475 154.07202L26.427475 155.0564ZM23.3181 158.38452Q24.521225 158.38452 25.114975 157.88452Q25.6931 157.38452 25.6931 156.69702Q25.6931 156.00952 25.1306 155.52515Q24.5681 155.04077 23.41185 155.04077Q22.1306 155.04077 21.53685 155.54077Q20.9431 156.02515 20.9431 156.7439Q20.9431 157.44702 21.521225 157.91577Q22.083725 158.38452 23.3181 158.38452ZM24.5681 152.50952L24.41185 151.47827Q25.03685 151.38452 25.364975 150.9939Q25.6931 150.58765 25.6931 149.85327Q25.6931 149.13452 25.41185 148.79077Q25.114975 148.4314 24.708725 148.4314Q24.34935 148.4314 24.146225 148.7439Q24.0056 148.96265 23.78685 149.82202Q23.489975 150.97827 23.28685 151.4314Q23.0681 151.8689 22.6931 152.10327Q22.3181 152.33765 21.84935 152.33765Q21.4431 152.33765 21.083725 152.15015Q20.72435 151.96265 20.489975 151.63452Q20.3181 151.38452 20.1931 150.96265Q20.0681 150.54077 20.0681 150.04077Q20.0681 149.32202 20.28685 148.77515Q20.489975 148.21265 20.84935 147.94702Q21.208725 147.6814 21.802475 147.58765L21.9431 148.6189Q21.47435 148.6814 21.208725 149.02515Q20.927475 149.35327 20.927475 149.97827Q20.927475 150.69702 21.177475 151.00952Q21.41185 151.32202 21.739975 151.32202Q21.9431 151.32202 22.09935 151.19702Q22.271225 151.0564 22.3806 150.79077Q22.4431 150.63452 22.646225 149.85327Q22.958725 148.72827 23.146225 148.29077Q23.333725 147.85327 23.6931 147.60327Q24.052475 147.35327 24.59935 147.35327Q25.1306 147.35327 25.59935 147.66577Q26.052475 147.96265 26.3181 148.54077Q26.5681 149.1189 26.5681 149.85327Q26.5681 151.07202 26.0681 151.71265Q25.552475 152.33765 24.5681 152.50952Z" fill-rule="nonzero"/><path fill="#000000" d="M34.46904 301.8719L34.46904 300.8094L37.71904 300.8094L37.71904 301.8719L34.46904 301.8719ZM40.21904 299.79376Q39.56279 299.54376 39.234665 299.10626Q38.922165 298.65314 38.922165 298.04376Q38.922165 297.10626 39.59404 296.46564Q40.28154 295.825 41.390915 295.825Q42.515915 295.825 43.203415 296.48126Q43.890915 297.1375 43.890915 298.075Q43.890915 298.66876 43.578415 299.10626Q43.265915 299.54376 42.62529 299.79376Q43.422165 300.04376 43.828415 300.6219Q44.234665 301.2 44.234665 301.9969Q44.234665 303.09064 43.453415 303.84064Q42.68779 304.59064 41.40654 304.59064Q40.140915 304.59064 39.359665 303.84064Q38.578415 303.09064 38.578415 301.96564Q38.578415 301.1219 39.00029 300.5594Q39.43779 299.9969 40.21904 299.79376ZM40.00029 297.9969Q40.00029 298.60626 40.390915 298.9969Q40.797165 299.3875 41.422165 299.3875Q42.03154 299.3875 42.422165 299.0125Q42.81279 298.6219 42.81279 298.0594Q42.81279 297.48126 42.40654 297.09064Q42.00029 296.6844 41.40654 296.6844Q40.797165 296.6844 40.390915 297.075Q40.00029 297.46564 40.00029 297.9969ZM39.672165 301.96564Q39.672165 302.41876 39.87529 302.84064Q40.09404 303.2625 40.515915 303.4969Q40.93779 303.73126 41.422165 303.73126Q42.172165 303.73126 42.65654 303.2469Q43.15654 302.7625 43.15654 302.0125Q43.15654 301.2469 42.65654 300.7469Q42.15654 300.2469 41.390915 300.2469Q40.640915 300.2469 40.15654 300.7469Q39.672165 301.23126 39.672165 301.96564ZM45.59404 300.21564Q45.59404 298.6844 45.90654 297.7625Q46.21904 296.825 46.828415 296.325Q47.453415 295.825 48.390915 295.825Q49.078415 295.825 49.59404 296.10626Q50.12529 296.3875 50.46904 296.91876Q50.81279 297.4344 51.00029 298.1844Q51.18779 298.9344 51.18779 300.21564Q51.18779 301.73126 50.87529 302.65314Q50.578415 303.575 49.953415 304.09064Q49.34404 304.59064 48.390915 304.59064Q47.15654 304.59064 46.43779 303.7Q45.59404 302.6375 45.59404 300.21564ZM46.672165 300.21564Q46.672165 302.325 47.172165 303.02814Q47.672165 303.73126 48.390915 303.73126Q49.12529 303.73126 49.609665 303.02814Q50.109665 302.325 50.109665 300.21564Q50.109665 298.09064 49.609665 297.40314Q49.12529 296.7 48.37529 296.7Q47.65654 296.7 47.21904 297.3094Q46.672165 298.09064 46.672165 300.21564ZM53.15654 304.45L53.15654 303.2469L54.359665 303.2469L54.359665 304.45Q54.359665 305.10626 54.12529 305.5125Q53.890915 305.9344 53.390915 306.15314L53.09404 305.7Q53.422165 305.5594 53.578415 305.2625Q53.734665 304.98126 53.765915 304.45L53.15654 304.45ZM55.59404 300.21564Q55.59404 298.6844 55.90654 297.7625Q56.21904 296.825 56.828415 296.325Q57.453415 295.825 58.390915 295.825Q59.078415 295.825 59.59404 296.10626Q60.12529 296.3875 60.46904 296.91876Q60.81279 297.4344 61.00029 298.1844Q61.18779 298.9344 61.18779 300.21564Q61.18779 301.73126 60.87529 302.65314Q60.578415 303.575 59.953415 304.09064Q59.34404 304.59064 58.390915 304.59064Q57.15654 304.59064 56.43779 303.7Q55.59404 302.6375 55.59404 300.21564ZM56.672165 300.21564Q56.672165 302.325 57.172165 303.02814Q57.672165 303.73126 58.390915 303.73126Q59.12529 303.73126 59.609665 303.02814Q60.109665 302.325 60.109665 300.21564Q60.109665 298.09064 59.609665 297.40314Q59.12529 296.7 58.37529 296.7Q57.65654 296.7 57.21904 297.3094Q56.672165 298.09064 56.672165 300.21564ZM62.59404 300.21564Q62.59404 298.6844 62.90654 297.7625Q63.21904 296.825 63.828415 296.325Q64.453415 295.825 65.390915 295.825Q66.078415 295.825 66.59404 296.10626Q67.12529 296.3875 67.46904 296.91876Q67.81279 297.4344 68.00029 298.1844Q68.18779 298.9344 68.18779 300.21564Q68.18779 301.73126 67.87529 302.65314Q67.578415 303.575 66.953415 304.09064Q66.34404 304.59064 65.390915 304.59064Q64.15654 304.59064 63.43779 303.7Q62.59404 302.6375 62.59404 300.21564ZM63.672165 300.21564Q63.672165 302.325 64.172165 303.02814Q64.672165 303.73126 65.390915 303.73126Q66.12529 303.73126 66.609665 303.02814Q67.109665 302.325 67.109665 300.21564Q67.109665 298.09064 66.609665 297.40314Q66.12529 296.7 65.37529 296.7Q64.65654 296.7 64.21904 297.3094Q63.672165 298.09064 63.672165 300.21564ZM69.797165 297.91876Q69.797165 296.9969 70.25029 296.35626Q70.71904 295.71564 71.59404 295.71564Q72.40654 295.71564 72.93779 296.29376Q73.46904 296.8719 73.46904 297.98126Q73.46904 299.075 72.922165 299.66876Q72.390915 300.2469 71.609665 300.2469Q70.828415 300.2469 70.31279 299.66876Q69.797165 299.09064 69.797165 297.91876ZM71.62529 296.4344Q71.234665 296.4344 70.96904 296.77814Q70.71904 297.1219 70.71904 298.02814Q70.71904 298.85626 70.96904 299.2Q71.234665 299.52814 71.62529 299.52814Q72.03154 299.52814 72.28154 299.1844Q72.547165 298.84064 72.547165 297.95Q72.547165 297.10626 72.28154 296.77814Q72.015915 296.4344 71.62529 296.4344ZM71.62529 304.7625L76.328415 295.71564L77.18779 295.71564L72.50029 304.7625L71.62529 304.7625ZM75.34404 302.4344Q75.34404 301.5125 75.797165 300.8719Q76.265915 300.23126 77.15654 300.23126Q77.96904 300.23126 78.50029 300.8094Q79.03154 301.3719 79.03154 302.4969Q79.03154 303.59064 78.484665 304.1844Q77.953415 304.7625 77.15654 304.7625Q76.390915 304.7625 75.859665 304.1844Q75.34404 303.60626 75.34404 302.4344ZM77.18779 300.95Q76.78154 300.95 76.515915 301.29376Q76.265915 301.6375 76.265915 302.54376Q76.265915 303.35626 76.53154 303.7Q76.797165 304.04376 77.18779 304.04376Q77.578415 304.04376 77.84404 303.7Q78.109665 303.35626 78.109665 302.45Q78.109665 301.6219 77.84404 301.29376Q77.578415 300.95 77.18779 300.95Z" fill-rule="nonzero"/><path fill="#000000" d="M34.46904 233.14688L34.46904 232.08438L37.71904 232.08438L37.71904 233.14688L34.46904 233.14688ZM44.06279 229.24063L43.015915 229.31876Q42.87529 228.69376 42.62529 228.4125Q42.18779 227.95938 41.56279 227.95938Q41.06279 227.95938 40.672165 228.24063Q40.18779 228.61563 39.890915 229.31876Q39.609665 230.00626 39.59404 231.2875Q39.96904 230.70938 40.515915 230.42813Q41.078415 230.14688 41.68779 230.14688Q42.734665 230.14688 43.46904 230.92813Q44.21904 231.70938 44.21904 232.92813Q44.21904 233.74063 43.859665 234.44376Q43.515915 235.13126 42.90654 235.50626Q42.297165 235.86563 41.53154 235.86563Q40.203415 235.86563 39.37529 234.89688Q38.547165 233.92813 38.547165 231.70938Q38.547165 229.20938 39.46904 228.08438Q40.265915 227.1 41.62529 227.1Q42.640915 227.1 43.28154 227.67813Q43.93779 228.24063 44.06279 229.24063ZM39.765915 232.94376Q39.765915 233.49063 39.984665 233.99063Q40.21904 234.475 40.62529 234.74063Q41.047165 235.00626 41.515915 235.00626Q42.172165 235.00626 42.65654 234.475Q43.140915 233.92813 43.140915 233.00626Q43.140915 232.11563 42.65654 231.6Q42.18779 231.08438 41.46904 231.08438Q40.75029 231.08438 40.25029 231.6Q39.765915 232.11563 39.765915 232.94376ZM45.59404 231.49063Q45.59404 229.95938 45.90654 229.0375Q46.21904 228.1 46.828415 227.6Q47.453415 227.1 48.390915 227.1Q49.078415 227.1 49.59404 227.38126Q50.12529 227.6625 50.46904 228.19376Q50.81279 228.70938 51.00029 229.45938Q51.18779 230.20938 51.18779 231.49063Q51.18779 233.00626 50.87529 233.92813Q50.578415 234.85 49.953415 235.36563Q49.34404 235.86563 48.390915 235.86563Q47.15654 235.86563 46.43779 234.975Q45.59404 233.9125 45.59404 231.49063ZM46.672165 231.49063Q46.672165 233.6 47.172165 234.30313Q47.672165 235.00626 48.390915 235.00626Q49.12529 235.00626 49.609665 234.30313Q50.109665 233.6 50.109665 231.49063Q50.109665 229.36563 49.609665 228.67813Q49.12529 227.975 48.37529 227.975Q47.65654 227.975 47.21904 228.58438Q46.672165 229.36563 46.672165 231.49063ZM53.15654 235.725L53.15654 234.52188L54.359665 234.52188L54.359665 235.725Q54.359665 236.38126 54.12529 236.7875Q53.890915 237.20938 53.390915 237.42813L53.09404 236.975Q53.422165 236.83438 53.578415 236.5375Q53.734665 236.25626 53.765915 235.725L53.15654 235.725ZM55.59404 231.49063Q55.59404 229.95938 55.90654 229.0375Q56.21904 228.1 56.828415 227.6Q57.453415 227.1 58.390915 227.1Q59.078415 227.1 59.59404 227.38126Q60.12529 227.6625 60.46904 228.19376Q60.81279 228.70938 61.00029 229.45938Q61.18779 230.20938 61.18779 231.49063Q61.18779 233.00626 60.87529 233.92813Q60.578415 234.85 59.953415 235.36563Q59.34404 235.86563 58.390915 235.86563Q57.15654 235.86563 56.43779 234.975Q55.59404 233.9125 55.59404 231.49063ZM56.672165 231.49063Q56.672165 233.6 57.172165 234.30313Q57.672165 235.00626 58.390915 235.00626Q59.12529 235.00626 59.609665 234.30313Q60.109665 233.6 60.109665 231.49063Q60.109665 229.36563 59.609665 228.67813Q59.12529 227.975 58.37529 227.975Q57.65654 227.975 57.21904 228.58438Q56.672165 229.36563 56.672165 231.49063ZM62.59404 231.49063Q62.59404 229.95938 62.90654 229.0375Q63.21904 228.1 63.828415 227.6Q64.453415 227.1 65.390915 227.1Q66.078415 227.1 66.59404 227.38126Q67.12529 227.6625 67.46904 228.19376Q67.81279 228.70938 68.00029 229.45938Q68.18779 230.20938 68.18779 231.49063Q68.18779 233.00626 67.87529 233.92813Q67.578415 234.85 66.953415 235.36563Q66.34404 235.86563 65.390915 235.86563Q64.15654 235.86563 63.43779 234.975Q62.59404 233.9125 62.59404 231.49063ZM63.672165 231.49063Q63.672165 233.6 64.172165 234.30313Q64.672165 235.00626 65.390915 235.00626Q66.12529 235.00626 66.609665 234.30313Q67.109665 233.6 67.109665 231.49063Q67.109665 229.36563 66.609665 228.67813Q66.12529 227.975 65.37529 227.975Q64.65654 227.975 64.21904 228.58438Q63.672165 229.36563 63.672165 231.49063ZM69.797165 229.19376Q69.797165 228.27188 70.25029 227.63126Q70.71904 226.99063 71.59404 226.99063Q72.40654 226.99063 72.93779 227.56876Q73.46904 228.14688 73.46904 229.25626Q73.46904 230.35 72.922165 230.94376Q72.390915 231.52188 71.609665 231.52188Q70.828415 231.52188 70.31279 230.94376Q69.797165 230.36563 69.797165 229.19376ZM71.62529 227.70938Q71.234665 227.70938 70.96904 228.05313Q70.71904 228.39688 70.71904 229.30313Q70.71904 230.13126 70.96904 230.475Q71.234665 230.80313 71.62529 230.80313Q72.03154 230.80313 72.28154 230.45938Q72.547165 230.11563 72.547165 229.225Q72.547165 228.38126 72.28154 228.05313Q72.015915 227.70938 71.62529 227.70938ZM71.62529 236.0375L76.328415 226.99063L77.18779 226.99063L72.50029 236.0375L71.62529 236.0375ZM75.34404 233.70938Q75.34404 232.7875 75.797165 232.14688Q76.265915 231.50626 77.15654 231.50626Q77.96904 231.50626 78.50029 232.08438Q79.03154 232.64688 79.03154 233.77188Q79.03154 234.86563 78.484665 235.45938Q77.953415 236.0375 77.15654 236.0375Q76.390915 236.0375 75.859665 235.45938Q75.34404 234.88126 75.34404 233.70938ZM77.18779 232.225Q76.78154 232.225 76.515915 232.56876Q76.265915 232.9125 76.265915 233.81876Q76.265915 234.63126 76.53154 234.975Q76.797165 235.31876 77.18779 235.31876Q77.578415 235.31876 77.84404 234.975Q78.109665 234.63126 78.109665 233.725Q78.109665 232.89688 77.84404 232.56876Q77.578415 232.225 77.18779 232.225Z" fill-rule="nonzero"/><path fill="#000000" d="M34.46904 164.42188L34.46904 163.35938L37.71904 163.35938L37.71904 164.42188L34.46904 164.42188ZM41.96904 167.0L41.96904 164.9375L38.25029 164.9375L38.25029 163.96875L42.172165 158.40625L43.03154 158.40625L43.03154 163.96875L44.18779 163.96875L44.18779 164.9375L43.03154 164.9375L43.03154 167.0L41.96904 167.0ZM41.96904 163.96875L41.96904 160.10938L39.28154 163.96875L41.96904 163.96875ZM45.59404 162.76562Q45.59404 161.23438 45.90654 160.3125Q46.21904 159.375 46.828415 158.875Q47.453415 158.375 48.390915 158.375Q49.078415 158.375 49.59404 158.65625Q50.12529 158.9375 50.46904 159.46875Q50.81279 159.98438 51.00029 160.73438Q51.18779 161.48438 51.18779 162.76562Q51.18779 164.28125 50.87529 165.20312Q50.578415 166.125 49.953415 166.64062Q49.34404 167.14062 48.390915 167.14062Q47.15654 167.14062 46.43779 166.25Q45.59404 165.1875 45.59404 162.76562ZM46.672165 162.76562Q46.672165 164.875 47.172165 165.57812Q47.672165 166.28125 48.390915 166.28125Q49.12529 166.28125 49.609665 165.57812Q50.109665 164.875 50.109665 162.76562Q50.109665 160.64062 49.609665 159.95312Q49.12529 159.25 48.37529 159.25Q47.65654 159.25 47.21904 159.85938Q46.672165 160.64062 46.672165 162.76562ZM53.15654 167.0L53.15654 165.79688L54.359665 165.79688L54.359665 167.0Q54.359665 167.65625 54.12529 168.0625Q53.890915 168.48438 53.390915 168.70312L53.09404 168.25Q53.422165 168.10938 53.578415 167.8125Q53.734665 167.53125 53.765915 167.0L53.15654 167.0ZM55.59404 162.76562Q55.59404 161.23438 55.90654 160.3125Q56.21904 159.375 56.828415 158.875Q57.453415 158.375 58.390915 158.375Q59.078415 158.375 59.59404 158.65625Q60.12529 158.9375 60.46904 159.46875Q60.81279 159.98438 61.00029 160.73438Q61.18779 161.48438 61.18779 162.76562Q61.18779 164.28125 60.87529 165.20312Q60.578415 166.125 59.953415 166.64062Q59.34404 167.14062 58.390915 167.14062Q57.15654 167.14062 56.43779 166.25Q55.59404 165.1875 55.59404 162.76562ZM56.672165 162.76562Q56.672165 164.875 57.172165 165.57812Q57.672165 166.28125 58.390915 166.28125Q59.12529 166.28125 59.609665 165.57812Q60.109665 164.875 60.109665 162.76562Q60.109665 160.64062 59.609665 159.95312Q59.12529 159.25 58.37529 159.25Q57.65654 159.25 57.21904 159.85938Q56.672165 160.64062 56.672165 162.76562ZM62.59404 162.76562Q62.59404 161.23438 62.90654 160.3125Q63.21904 159.375 63.828415 158.875Q64.453415 158.375 65.390915 158.375Q66.078415 158.375 66.59404 158.65625Q67.12529 158.9375 67.46904 159.46875Q67.81279 159.98438 68.00029 160.73438Q68.18779 161.48438 68.18779 162.76562Q68.18779 164.28125 67.87529 165.20312Q67.578415 166.125 66.953415 166.64062Q66.34404 167.14062 65.390915 167.14062Q64.15654 167.14062 63.43779 166.25Q62.59404 165.1875 62.59404 162.76562ZM63.672165 162.76562Q63.672165 164.875 64.172165 165.57812Q64.672165 166.28125 65.390915 166.28125Q66.12529 166.28125 66.609665 165.57812Q67.109665 164.875 67.109665 162.76562Q67.109665 160.64062 66.609665 159.95312Q66.12529 159.25 65.37529 159.25Q64.65654 159.25 64.21904 159.85938Q63.672165 160.64062 63.672165 162.76562ZM69.797165 160.46875Q69.797165 159.54688 70.25029 158.90625Q70.71904 158.26562 71.59404 158.26562Q72.40654 158.26562 72.93779 158.84375Q73.46904 159.42188 73.46904 160.53125Q73.46904 161.625 72.922165 162.21875Q72.390915 162.79688 71.609665 162.79688Q70.828415 162.79688 70.31279 162.21875Q69.797165 161.64062 69.797165 160.46875ZM71.62529 158.98438Q71.234665 158.98438 70.96904 159.32812Q70.71904 159.67188 70.71904 160.57812Q70.71904 161.40625 70.96904 161.75Q71.234665 162.07812 71.62529 162.07812Q72.03154 162.07812 72.28154 161.73438Q72.547165 161.39062 72.547165 160.5Q72.547165 159.65625 72.28154 159.32812Q72.015915 158.98438 71.62529 158.98438ZM71.62529 167.3125L76.328415 158.26562L77.18779 158.26562L72.50029 167.3125L71.62529 167.3125ZM75.34404 164.98438Q75.34404 164.0625 75.797165 163.42188Q76.265915 162.78125 77.15654 162.78125Q77.96904 162.78125 78.50029 163.35938Q79.03154 163.92188 79.03154 165.04688Q79.03154 166.14062 78.484665 166.73438Q77.953415 167.3125 77.15654 167.3125Q76.390915 167.3125 75.859665 166.73438Q75.34404 166.15625 75.34404 164.98438ZM77.18779 163.5Q76.78154 163.5 76.515915 163.84375Q76.265915 164.1875 76.265915 165.09375Q76.265915 165.90625 76.53154 166.25Q76.797165 166.59375 77.18779 166.59375Q77.578415 166.59375 77.84404 166.25Q78.109665 165.90625 78.109665 165.0Q78.109665 164.17188 77.84404 163.84375Q77.578415 163.5 77.18779 163.5Z" fill-rule="nonzero"/><path fill="#000000" d="M34.46904 95.69688L34.46904 94.63438L37.71904 94.63438L37.71904 95.69688L34.46904 95.69688ZM44.140915 97.25938L44.140915 98.275L38.453415 98.275Q38.453415 97.9 38.578415 97.54063Q38.797165 96.9625 39.265915 96.4Q39.75029 95.8375 40.65654 95.10313Q42.06279 93.94688 42.547165 93.275Q43.047165 92.60313 43.047165 92.00938Q43.047165 91.38438 42.59404 90.9625Q42.140915 90.525 41.422165 90.525Q40.65654 90.525 40.203415 90.97813Q39.75029 91.43125 39.734665 92.24375L38.65654 92.13438Q38.765915 90.91563 39.484665 90.29063Q40.21904 89.65 41.453415 89.65Q42.68779 89.65 43.40654 90.3375Q44.12529 91.025 44.12529 92.04063Q44.12529 92.55625 43.90654 93.05625Q43.703415 93.54063 43.203415 94.10313Q42.71904 94.65 41.59404 95.60313Q40.640915 96.4 40.359665 96.69688Q40.09404 96.97813 39.922165 97.25938L44.140915 97.25938ZM45.59404 94.04063Q45.59404 92.50938 45.90654 91.5875Q46.21904 90.65 46.828415 90.15Q47.453415 89.65 48.390915 89.65Q49.078415 89.65 49.59404 89.93125Q50.12529 90.2125 50.46904 90.74375Q50.81279 91.25938 51.00029 92.00938Q51.18779 92.75938 51.18779 94.04063Q51.18779 95.55625 50.87529 96.47813Q50.578415 97.4 49.953415 97.91563Q49.34404 98.41563 48.390915 98.41563Q47.15654 98.41563 46.43779 97.525Q45.59404 96.4625 45.59404 94.04063ZM46.672165 94.04063Q46.672165 96.15 47.172165 96.85313Q47.672165 97.55625 48.390915 97.55625Q49.12529 97.55625 49.609665 96.85313Q50.109665 96.15 50.109665 94.04063Q50.109665 91.91563 49.609665 91.22813Q49.12529 90.525 48.37529 90.525Q47.65654 90.525 47.21904 91.13438Q46.672165 91.91563 46.672165 94.04063ZM53.15654 98.275L53.15654 97.07188L54.359665 97.07188L54.359665 98.275Q54.359665 98.93125 54.12529 99.3375Q53.890915 99.75938 53.390915 99.97813L53.09404 99.525Q53.422165 99.38438 53.578415 99.0875Q53.734665 98.80625 53.765915 98.275L53.15654 98.275ZM55.59404 94.04063Q55.59404 92.50938 55.90654 91.5875Q56.21904 90.65 56.828415 90.15Q57.453415 89.65 58.390915 89.65Q59.078415 89.65 59.59404 89.93125Q60.12529 90.2125 60.46904 90.74375Q60.81279 91.25938 61.00029 92.00938Q61.18779 92.75938 61.18779 94.04063Q61.18779 95.55625 60.87529 96.47813Q60.578415 97.4 59.953415 97.91563Q59.34404 98.41563 58.390915 98.41563Q57.15654 98.41563 56.43779 97.525Q55.59404 96.4625 55.59404 94.04063ZM56.672165 94.04063Q56.672165 96.15 57.172165 96.85313Q57.672165 97.55625 58.390915 97.55625Q59.12529 97.55625 59.609665 96.85313Q60.109665 96.15 60.109665 94.04063Q60.109665 91.91563 59.609665 91.22813Q59.12529 90.525 58.37529 90.525Q57.65654 90.525 57.21904 91.13438Q56.672165 91.91563 56.672165 94.04063ZM62.59404 94.04063Q62.59404 92.50938 62.90654 91.5875Q63.21904 90.65 63.828415 90.15Q64.453415 89.65 65.390915 89.65Q66.078415 89.65 66.59404 89.93125Q67.12529 90.2125 67.46904 90.74375Q67.81279 91.25938 68.00029 92.00938Q68.18779 92.75938 68.18779 94.04063Q68.18779 95.55625 67.87529 96.47813Q67.578415 97.4 66.953415 97.91563Q66.34404 98.41563 65.390915 98.41563Q64.15654 98.41563 63.43779 97.525Q62.59404 96.4625 62.59404 94.04063ZM63.672165 94.04063Q63.672165 96.15 64.172165 96.85313Q64.672165 97.55625 65.390915 97.55625Q66.12529 97.55625 66.609665 96.85313Q67.109665 96.15 67.109665 94.04063Q67.109665 91.91563 66.609665 91.22813Q66.12529 90.525 65.37529 90.525Q64.65654 90.525 64.21904 91.13438Q63.672165 91.91563 63.672165 94.04063ZM69.797165 91.74375Q69.797165 90.82188 70.25029 90.18125Q70.71904 89.54063 71.59404 89.54063Q72.40654 89.54063 72.93779 90.11875Q73.46904 90.69688 73.46904 91.80625Q73.46904 92.9 72.922165 93.49375Q72.390915 94.07188 71.609665 94.07188Q70.828415 94.07188 70.31279 93.49375Q69.797165 92.91563 69.797165 91.74375ZM71.62529 90.25938Q71.234665 90.25938 70.96904 90.60313Q70.71904 90.94688 70.71904 91.85313Q70.71904 92.68125 70.96904 93.025Q71.234665 93.35313 71.62529 93.35313Q72.03154 93.35313 72.28154 93.00938Q72.547165 92.66563 72.547165 91.775Q72.547165 90.93125 72.28154 90.60313Q72.015915 90.25938 71.62529 90.25938ZM71.62529 98.5875L76.328415 89.54063L77.18779 89.54063L72.50029 98.5875L71.62529 98.5875ZM75.34404 96.25938Q75.34404 95.3375 75.797165 94.69688Q76.265915 94.05625 77.15654 94.05625Q77.96904 94.05625 78.50029 94.63438Q79.03154 95.19688 79.03154 96.32188Q79.03154 97.41563 78.484665 98.00938Q77.953415 98.5875 77.15654 98.5875Q76.390915 98.5875 75.859665 98.00938Q75.34404 97.43125 75.34404 96.25938ZM77.18779 94.775Q76.78154 94.775 76.515915 95.11875Q76.265915 95.4625 76.265915 96.36875Q76.265915 97.18125 76.53154 97.525Q76.797165 97.86875 77.18779 97.86875Q77.578415 97.86875 77.84404 97.525Q78.109665 97.18125 78.109665 96.275Q78.109665 95.44688 77.84404 95.11875Q77.578415 94.775 77.18779 94.775Z" fill-rule="nonzero"/><path fill="#000000" d="M45.59404 25.315624Q45.59404 23.784374 45.90654 22.8625Q46.21904 21.925 46.828415 21.425Q47.453415 20.925 48.390915 20.925Q49.078415 20.925 49.59404 21.20625Q50.12529 21.4875 50.46904 22.01875Q50.81279 22.534374 51.00029 23.284374Q51.18779 24.034374 51.18779 25.315624Q51.18779 26.83125 50.87529 27.753124Q50.578415 28.675 49.953415 29.190624Q49.34404 29.690624 48.390915 29.690624Q47.15654 29.690624 46.43779 28.8Q45.59404 27.7375 45.59404 25.315624ZM46.672165 25.315624Q46.672165 27.425 47.172165 28.128124Q47.672165 28.83125 48.390915 28.83125Q49.12529 28.83125 49.609665 28.128124Q50.109665 27.425 50.109665 25.315624Q50.109665 23.190624 49.609665 22.503124Q49.12529 21.8 48.37529 21.8Q47.65654 21.8 47.21904 22.409374Q46.672165 23.190624 46.672165 25.315624ZM53.15654 29.55L53.15654 28.346874L54.359665 28.346874L54.359665 29.55Q54.359665 30.20625 54.12529 30.6125Q53.890915 31.034374 53.390915 31.253124L53.09404 30.8Q53.422165 30.659374 53.578415 30.3625Q53.734665 30.08125 53.765915 29.55L53.15654 29.55ZM55.59404 25.315624Q55.59404 23.784374 55.90654 22.8625Q56.21904 21.925 56.828415 21.425Q57.453415 20.925 58.390915 20.925Q59.078415 20.925 59.59404 21.20625Q60.12529 21.4875 60.46904 22.01875Q60.81279 22.534374 61.00029 23.284374Q61.18779 24.034374 61.18779 25.315624Q61.18779 26.83125 60.87529 27.753124Q60.578415 28.675 59.953415 29.190624Q59.34404 29.690624 58.390915 29.690624Q57.15654 29.690624 56.43779 28.8Q55.59404 27.7375 55.59404 25.315624ZM56.672165 25.315624Q56.672165 27.425 57.172165 28.128124Q57.672165 28.83125 58.390915 28.83125Q59.12529 28.83125 59.609665 28.128124Q60.109665 27.425 60.109665 25.315624Q60.109665 23.190624 59.609665 22.503124Q59.12529 21.8 58.37529 21.8Q57.65654 21.8 57.21904 22.409374Q56.672165 23.190624 56.672165 25.315624ZM62.59404 25.315624Q62.59404 23.784374 62.90654 22.8625Q63.21904 21.925 63.828415 21.425Q64.453415 20.925 65.390915 20.925Q66.078415 20.925 66.59404 21.20625Q67.12529 21.4875 67.46904 22.01875Q67.81279 22.534374 68.00029 23.284374Q68.18779 24.034374 68.18779 25.315624Q68.18779 26.83125 67.87529 27.753124Q67.578415 28.675 66.953415 29.190624Q66.34404 29.690624 65.390915 29.690624Q64.15654 29.690624 63.43779 28.8Q62.59404 27.7375 62.59404 25.315624ZM63.672165 25.315624Q63.672165 27.425 64.172165 28.128124Q64.672165 28.83125 65.390915 28.83125Q66.12529 28.83125 66.609665 28.128124Q67.109665 27.425 67.109665 25.315624Q67.109665 23.190624 66.609665 22.503124Q66.12529 21.8 65.37529 21.8Q64.65654 21.8 64.21904 22.409374Q63.672165 23.190624 63.672165 25.315624ZM69.797165 23.01875Q69.797165 22.096874 70.25029 21.45625Q70.71904 20.815624 71.59404 20.815624Q72.40654 20.815624 72.93779 21.39375Q73.46904 21.971874 73.46904 23.08125Q73.46904 24.175 72.922165 24.76875Q72.390915 25.346874 71.609665 25.346874Q70.828415 25.346874 70.31279 24.76875Q69.797165 24.190624 69.797165 23.01875ZM71.62529 21.534374Q71.234665 21.534374 70.96904 21.878124Q70.71904 22.221874 70.71904 23.128124Q70.71904 23.95625 70.96904 24.3Q71.234665 24.628124 71.62529 24.628124Q72.03154 24.628124 72.28154 24.284374Q72.547165 23.940624 72.547165 23.05Q72.547165 22.20625 72.28154 21.878124Q72.015915 21.534374 71.62529 21.534374ZM71.62529 29.8625L76.328415 20.815624L77.18779 20.815624L72.50029 29.8625L71.62529 29.8625ZM75.34404 27.534374Q75.34404 26.6125 75.797165 25.971874Q76.265915 25.33125 77.15654 25.33125Q77.96904 25.33125 78.50029 25.909374Q79.03154 26.471874 79.03154 27.596874Q79.03154 28.690624 78.484665 29.284374Q77.953415 29.8625 77.15654 29.8625Q76.390915 29.8625 75.859665 29.284374Q75.34404 28.70625 75.34404 27.534374ZM77.18779 26.05Q76.78154 26.05 76.515915 26.39375Q76.265915 26.7375 76.265915 27.64375Q76.265915 28.45625 76.53154 28.8Q76.797165 29.14375 77.18779 29.14375Q77.578415 29.14375 77.84404 28.8Q78.109665 28.45625 78.109665 27.55Q78.109665 26.721874 77.84404 26.39375Q77.578415 26.05 77.18779 26.05Z" fill-rule="nonzero"/><path fill="#000000" d="M128.59515 317.45L127.54828 317.45L127.54828 310.73126Q127.15765 311.09064 126.53265 311.46564Q125.92328 311.825 125.4389 311.9969L125.4389 310.98126Q126.3139 310.5594 126.97015 309.98126Q127.64203 309.3875 127.92328 308.825L128.59515 308.825L128.59515 317.45ZM131.6264 313.21564Q131.6264 311.6844 131.9389 310.7625Q132.2514 309.825 132.86078 309.325Q133.48578 308.825 134.42328 308.825Q135.11078 308.825 135.6264 309.10626Q136.15765 309.3875 136.5014 309.91876Q136.84515 310.4344 137.03265 311.1844Q137.22015 311.9344 137.22015 313.21564Q137.22015 314.73126 136.90765 315.65314Q136.61078 316.575 135.98578 317.09064Q135.3764 317.59064 134.42328 317.59064Q133.1889 317.59064 132.47015 316.7Q131.6264 315.6375 131.6264 313.21564ZM132.70453 313.21564Q132.70453 315.325 133.20453 316.02814Q133.70453 316.73126 134.42328 316.73126Q135.15765 316.73126 135.64203 316.02814Q136.14203 315.325 136.14203 313.21564Q136.14203 311.09064 135.64203 310.40314Q135.15765 309.7 134.40765 309.7Q133.6889 309.7 133.2514 310.3094Q132.70453 311.09064 132.70453 313.21564Z" fill-rule="nonzero"/><path fill="#000000" d="M180.20923 316.4344L180.20923 317.45L174.52173 317.45Q174.52173 317.075 174.64673 316.71564Q174.86548 316.1375 175.33423 315.575Q175.8186 315.0125 176.72485 314.27814Q178.1311 313.1219 178.61548 312.45Q179.11548 311.77814 179.11548 311.1844Q179.11548 310.5594 178.66235 310.1375Q178.20923 309.7 177.49048 309.7Q176.72485 309.7 176.27173 310.15314Q175.8186 310.60626 175.80298 311.41876L174.72485 311.3094Q174.83423 310.09064 175.55298 309.46564Q176.28735 308.825 177.52173 308.825Q178.7561 308.825 179.47485 309.5125Q180.1936 310.2 180.1936 311.21564Q180.1936 311.73126 179.97485 312.23126Q179.77173 312.71564 179.27173 313.27814Q178.78735 313.825 177.66235 314.77814Q176.70923 315.575 176.42798 315.8719Q176.16235 316.15314 175.99048 316.4344L180.20923 316.4344ZM181.66235 313.21564Q181.66235 311.6844 181.97485 310.7625Q182.28735 309.825 182.89673 309.325Q183.52173 308.825 184.45923 308.825Q185.14673 308.825 185.66235 309.10626Q186.1936 309.3875 186.53735 309.91876Q186.8811 310.4344 187.0686 311.1844Q187.2561 311.9344 187.2561 313.21564Q187.2561 314.73126 186.9436 315.65314Q186.64673 316.575 186.02173 317.09064Q185.41235 317.59064 184.45923 317.59064Q183.22485 317.59064 182.5061 316.7Q181.66235 315.6375 181.66235 313.21564ZM182.74048 313.21564Q182.74048 315.325 183.24048 316.02814Q183.74048 316.73126 184.45923 316.73126Q185.1936 316.73126 185.67798 316.02814Q186.17798 315.325 186.17798 313.21564Q186.17798 311.09064 185.67798 310.40314Q185.1936 309.7 184.4436 309.7Q183.72485 309.7 183.28735 310.3094Q182.74048 311.09064 182.74048 313.21564Z" fill-rule="nonzero"/><path fill="#000000" d="M224.69832 315.1844L225.76082 315.04376Q225.9327 315.9344 226.3702 316.34064Q226.8077 316.73126 227.4327 316.73126Q228.1827 316.73126 228.69832 316.21564Q229.21394 315.7 229.21394 314.9344Q229.21394 314.21564 228.72957 313.7469Q228.26082 313.2625 227.52644 313.2625Q227.22957 313.2625 226.77644 313.3875L226.90144 312.45Q227.01082 312.46564 227.07332 312.46564Q227.7452 312.46564 228.27644 312.1219Q228.82332 311.7625 228.82332 311.02814Q228.82332 310.45 228.4327 310.075Q228.04207 309.6844 227.41707 309.6844Q226.8077 309.6844 226.38582 310.075Q225.97957 310.46564 225.8702 311.23126L224.8077 311.04376Q224.9952 309.9969 225.6827 309.41876Q226.3702 308.825 227.38582 308.825Q228.08894 308.825 228.6827 309.1375Q229.27644 309.4344 229.58894 309.95Q229.90144 310.46564 229.90144 311.0594Q229.90144 311.60626 229.60457 312.075Q229.3077 312.52814 228.72957 312.79376Q229.47957 312.96564 229.90144 313.52814Q230.32332 314.075 230.32332 314.91876Q230.32332 316.04376 229.4952 316.825Q228.6827 317.60626 227.4327 317.60626Q226.3077 317.60626 225.5577 316.9344Q224.8077 316.2469 224.69832 315.1844ZM231.69832 313.21564Q231.69832 311.6844 232.01082 310.7625Q232.32332 309.825 232.9327 309.325Q233.5577 308.825 234.4952 308.825Q235.1827 308.825 235.69832 309.10626Q236.22957 309.3875 236.57332 309.91876Q236.91707 310.4344 237.10457 311.1844Q237.29207 311.9344 237.29207 313.21564Q237.29207 314.73126 236.97957 315.65314Q236.6827 316.575 236.0577 317.09064Q235.44832 317.59064 234.4952 317.59064Q233.26082 317.59064 232.54207 316.7Q231.69832 315.6375 231.69832 313.21564ZM232.77644 313.21564Q232.77644 315.325 233.27644 316.02814Q233.77644 316.73126 234.4952 316.73126Q235.22957 316.73126 235.71394 316.02814Q236.21394 315.325 236.21394 313.21564Q236.21394 311.09064 235.71394 310.40314Q235.22957 309.7 234.47957 309.7Q233.76082 309.7 233.32332 310.3094Q232.77644 311.09064 232.77644 313.21564Z" fill-rule="nonzero"/><path fill="#000000" d="M278.10925 317.45L278.10925 315.3875L274.3905 315.3875L274.3905 314.41876L278.31238 308.85626L279.17175 308.85626L279.17175 314.41876L280.328 314.41876L280.328 315.3875L279.17175 315.3875L279.17175 317.45L278.10925 317.45ZM278.10925 314.41876L278.10925 310.5594L275.42175 314.41876L278.10925 314.41876ZM281.73425 313.21564Q281.73425 311.6844 282.04675 310.7625Q282.35925 309.825 282.96863 309.325Q283.59363 308.825 284.53113 308.825Q285.21863 308.825 285.73425 309.10626Q286.2655 309.3875 286.60925 309.91876Q286.953 310.4344 287.1405 311.1844Q287.328 311.9344 287.328 313.21564Q287.328 314.73126 287.0155 315.65314Q286.71863 316.575 286.09363 317.09064Q285.48425 317.59064 284.53113 317.59064Q283.29675 317.59064 282.578 316.7Q281.73425 315.6375 281.73425 313.21564ZM282.81238 313.21564Q282.81238 315.325 283.31238 316.02814Q283.81238 316.73126 284.53113 316.73126Q285.2655 316.73126 285.74988 316.02814Q286.24988 315.325 286.24988 313.21564Q286.24988 311.09064 285.74988 310.40314Q285.2655 309.7 284.5155 309.7Q283.79675 309.7 283.35925 310.3094Q282.81238 311.09064 282.81238 313.21564Z" fill-rule="nonzero"/><path fill="#000000" d="M324.77023 315.2L325.8796 315.10626Q326.0046 315.91876 326.4421 316.325Q326.89523 316.73126 327.53586 316.73126Q328.28586 316.73126 328.8171 316.15314Q329.34836 315.575 329.34836 314.6375Q329.34836 313.73126 328.83273 313.21564Q328.33273 312.6844 327.5046 312.6844Q327.0046 312.6844 326.58273 312.91876Q326.17648 313.15314 325.9421 313.5125L324.95773 313.3875L325.78586 308.98126L330.0671 308.98126L330.0671 309.98126L326.6296 309.98126L326.17648 312.29376Q326.9421 311.7469 327.78586 311.7469Q328.91086 311.7469 329.67648 312.52814Q330.45773 313.3094 330.45773 314.54376Q330.45773 315.7 329.78586 316.5594Q328.95773 317.59064 327.53586 317.59064Q326.36398 317.59064 325.61398 316.9344Q324.8796 316.27814 324.77023 315.2ZM331.77023 313.21564Q331.77023 311.6844 332.08273 310.7625Q332.39523 309.825 333.0046 309.325Q333.6296 308.825 334.5671 308.825Q335.2546 308.825 335.77023 309.10626Q336.30148 309.3875 336.64523 309.91876Q336.98898 310.4344 337.17648 311.1844Q337.36398 311.9344 337.36398 313.21564Q337.36398 314.73126 337.05148 315.65314Q336.7546 316.575 336.1296 317.09064Q335.52023 317.59064 334.5671 317.59064Q333.33273 317.59064 332.61398 316.7Q331.77023 315.6375 331.77023 313.21564ZM332.84836 313.21564Q332.84836 315.325 333.34836 316.02814Q333.84836 316.73126 334.5671 316.73126Q335.30148 316.73126 335.78586 316.02814Q336.28586 315.325 336.28586 313.21564Q336.28586 311.09064 335.78586 310.40314Q335.30148 309.7 334.55148 309.7Q333.83273 309.7 333.39523 310.3094Q332.84836 311.09064 332.84836 313.21564Z" fill-rule="nonzero"/><path fill="#000000" d="M380.27493 310.96564L379.22806 311.04376Q379.08743 310.41876 378.83743 310.1375Q378.39993 309.6844 377.77493 309.6844Q377.27493 309.6844 376.8843 309.96564Q376.39993 310.34064 376.10306 311.04376Q375.8218 311.73126 375.80618 313.0125Q376.18118 312.4344 376.72806 312.15314Q377.29056 311.8719 377.89993 311.8719Q378.9468 311.8719 379.68118 312.65314Q380.43118 313.4344 380.43118 314.65314Q380.43118 315.46564 380.0718 316.16876Q379.72806 316.85626 379.11868 317.23126Q378.5093 317.59064 377.74368 317.59064Q376.41556 317.59064 375.58743 316.6219Q374.7593 315.65314 374.7593 313.4344Q374.7593 310.9344 375.68118 309.8094Q376.47806 308.825 377.83743 308.825Q378.85306 308.825 379.49368 309.40314Q380.14993 309.96564 380.27493 310.96564ZM375.97806 314.66876Q375.97806 315.21564 376.1968 315.71564Q376.43118 316.2 376.83743 316.46564Q377.2593 316.73126 377.72806 316.73126Q378.3843 316.73126 378.86868 316.2Q379.35306 315.65314 379.35306 314.73126Q379.35306 313.84064 378.86868 313.325Q378.39993 312.8094 377.68118 312.8094Q376.96243 312.8094 376.46243 313.325Q375.97806 313.84064 375.97806 314.66876ZM381.80618 313.21564Q381.80618 311.6844 382.11868 310.7625Q382.43118 309.825 383.04056 309.325Q383.66556 308.825 384.60306 308.825Q385.29056 308.825 385.80618 309.10626Q386.33743 309.3875 386.68118 309.91876Q387.02493 310.4344 387.21243 311.1844Q387.39993 311.9344 387.39993 313.21564Q387.39993 314.73126 387.08743 315.65314Q386.79056 316.575 386.16556 317.09064Q385.55618 317.59064 384.60306 317.59064Q383.36868 317.59064 382.64993 316.7Q381.80618 315.6375 381.80618 313.21564ZM382.8843 313.21564Q382.8843 315.325 383.3843 316.02814Q383.8843 316.73126 384.60306 316.73126Q385.33743 316.73126 385.8218 316.02814Q386.3218 315.325 386.3218 313.21564Q386.3218 311.09064 385.8218 310.40314Q385.33743 309.7 384.58743 309.7Q383.86868 309.7 383.43118 310.3094Q382.8843 311.09064 382.8843 313.21564Z" fill-rule="nonzero"/><path fill="#000000" d="M424.90463 309.98126L424.90463 308.96564L430.46713 308.96564L430.46713 309.79376Q429.65463 310.66876 428.84213 312.1219Q428.04526 313.5594 427.60776 315.09064Q427.27963 316.16876 427.2015 317.45L426.10776 317.45Q426.12338 316.4344 426.49838 314.9969Q426.889 313.5594 427.59213 312.23126Q428.31088 310.90314 429.12338 309.98126L424.90463 309.98126ZM431.84213 313.21564Q431.84213 311.6844 432.15463 310.7625Q432.46713 309.825 433.0765 309.325Q433.7015 308.825 434.639 308.825Q435.3265 308.825 435.84213 309.10626Q436.37338 309.3875 436.71713 309.91876Q437.06088 310.4344 437.24838 311.1844Q437.43588 311.9344 437.43588 313.21564Q437.43588 314.73126 437.12338 315.65314Q436.8265 316.575 436.2015 317.09064Q435.59213 317.59064 434.639 317.59064Q433.40463 317.59064 432.68588 316.7Q431.84213 315.6375 431.84213 313.21564ZM432.92026 313.21564Q432.92026 315.325 433.42026 316.02814Q433.92026 316.73126 434.639 316.73126Q435.37338 316.73126 435.85776 316.02814Q436.35776 315.325 436.35776 313.21564Q436.35776 311.09064 435.85776 310.40314Q435.37338 309.7 434.62338 309.7Q433.90463 309.7 433.46713 310.3094Q432.92026 311.09064 432.92026 313.21564Z" fill-rule="nonzero"/><path fill="#000000" d="M476.50308 312.79376Q475.84683 312.54376 475.5187 312.10626Q475.2062 311.65314 475.2062 311.04376Q475.2062 310.10626 475.87808 309.46564Q476.56558 308.825 477.67496 308.825Q478.79996 308.825 479.48746 309.48126Q480.17496 310.1375 480.17496 311.075Q480.17496 311.66876 479.86246 312.10626Q479.54996 312.54376 478.90933 312.79376Q479.7062 313.04376 480.11246 313.6219Q480.5187 314.2 480.5187 314.9969Q480.5187 316.09064 479.73746 316.84064Q478.97183 317.59064 477.69058 317.59064Q476.42496 317.59064 475.6437 316.84064Q474.86246 316.09064 474.86246 314.96564Q474.86246 314.1219 475.28433 313.5594Q475.72183 312.9969 476.50308 312.79376ZM476.28433 310.9969Q476.28433 311.60626 476.67496 311.9969Q477.0812 312.3875 477.7062 312.3875Q478.31558 312.3875 478.7062 312.0125Q479.09683 311.6219 479.09683 311.0594Q479.09683 310.48126 478.69058 310.09064Q478.28433 309.6844 477.69058 309.6844Q477.0812 309.6844 476.67496 310.075Q476.28433 310.46564 476.28433 310.9969ZM475.9562 314.96564Q475.9562 315.41876 476.15933 315.84064Q476.37808 316.2625 476.79996 316.4969Q477.22183 316.73126 477.7062 316.73126Q478.4562 316.73126 478.94058 316.2469Q479.44058 315.7625 479.44058 315.0125Q479.44058 314.2469 478.94058 313.7469Q478.44058 313.2469 477.67496 313.2469Q476.92496 313.2469 476.44058 313.7469Q475.9562 314.23126 475.9562 314.96564ZM481.87808 313.21564Q481.87808 311.6844 482.19058 310.7625Q482.50308 309.825 483.11246 309.325Q483.73746 308.825 484.67496 308.825Q485.36246 308.825 485.87808 309.10626Q486.40933 309.3875 486.75308 309.91876Q487.09683 310.4344 487.28433 311.1844Q487.47183 311.9344 487.47183 313.21564Q487.47183 314.73126 487.15933 315.65314Q486.86246 316.575 486.23746 317.09064Q485.62808 317.59064 484.67496 317.59064Q483.44058 317.59064 482.72183 316.7Q481.87808 315.6375 481.87808 313.21564ZM482.9562 313.21564Q482.9562 315.325 483.4562 316.02814Q483.9562 316.73126 484.67496 316.73126Q485.40933 316.73126 485.8937 316.02814Q486.3937 315.325 486.3937 313.21564Q486.3937 311.09064 485.8937 310.40314Q485.40933 309.7 484.65933 309.7Q483.94058 309.7 483.50308 310.3094Q482.9562 311.09064 482.9562 313.21564Z" fill-rule="nonzero"/><path fill="#000000" d="M525.0703 315.46564L526.08594 315.3719Q526.21094 316.09064 526.5703 316.41876Q526.9453 316.73126 527.5078 316.73126Q527.9922 316.73126 528.35156 316.5125Q528.72656 316.27814 528.96094 315.91876Q529.1953 315.54376 529.35156 314.91876Q529.5078 314.27814 529.5078 313.6219Q529.5078 313.54376 529.5078 313.40314Q529.1953 313.90314 528.64844 314.23126Q528.10156 314.54376 527.46094 314.54376Q526.3828 314.54376 525.64844 313.77814Q524.91406 312.9969 524.91406 311.73126Q524.91406 310.41876 525.6797 309.6219Q526.46094 308.825 527.6172 308.825Q528.4453 308.825 529.1328 309.27814Q529.83594 309.73126 530.1953 310.575Q530.5547 311.40314 530.5547 312.98126Q530.5547 314.6219 530.1953 315.60626Q529.85156 316.575 529.1328 317.09064Q528.4297 317.59064 527.4922 317.59064Q526.47656 317.59064 525.83594 317.04376Q525.1953 316.48126 525.0703 315.46564ZM529.3828 311.66876Q529.3828 310.7625 528.89844 310.23126Q528.4297 309.7 527.7422 309.7Q527.03906 309.7 526.5078 310.27814Q525.9922 310.84064 525.9922 311.7625Q525.9922 312.575 526.4922 313.09064Q526.9922 313.60626 527.71094 313.60626Q528.4453 313.60626 528.91406 313.09064Q529.3828 312.575 529.3828 311.66876ZM531.91406 313.21564Q531.91406 311.6844 532.22656 310.7625Q532.53906 309.825 533.14844 309.325Q533.77344 308.825 534.71094 308.825Q535.39844 308.825 535.91406 309.10626Q536.4453 309.3875 536.78906 309.91876Q537.1328 310.4344 537.3203 311.1844Q537.5078 311.9344 537.5078 313.21564Q537.5078 314.73126 537.1953 315.65314Q536.89844 316.575 536.27344 317.09064Q535.66406 317.59064 534.71094 317.59064Q533.47656 317.59064 532.7578 316.7Q531.91406 315.6375 531.91406 313.21564ZM532.9922 313.21564Q532.9922 315.325 533.4922 316.02814Q533.9922 316.73126 534.71094 316.73126Q535.4453 316.73126 535.9297 316.02814Q536.4297 315.325 536.4297 313.21564Q536.4297 311.09064 535.9297 310.40314Q535.4453 309.7 534.6953 309.7Q533.97656 309.7 533.53906 310.3094Q532.9922 311.09064 532.9922 313.21564Z" fill-rule="nonzero"/><path fill="#000000" d="M575.41876 317.45L574.3719 317.45L574.3719 310.73126Q573.98126 311.09064 573.35626 311.46564Q572.7469 311.825 572.2625 311.9969L572.2625 310.98126Q573.1375 310.5594 573.79376 309.98126Q574.46564 309.3875 574.7469 308.825L575.41876 308.825L575.41876 317.45ZM578.45 313.21564Q578.45 311.6844 578.7625 310.7625Q579.075 309.825 579.6844 309.325Q580.3094 308.825 581.2469 308.825Q581.9344 308.825 582.45 309.10626Q582.98126 309.3875 583.325 309.91876Q583.66876 310.4344 583.85626 311.1844Q584.04376 311.9344 584.04376 313.21564Q584.04376 314.73126 583.73126 315.65314Q583.4344 316.575 582.8094 317.09064Q582.2 317.59064 581.2469 317.59064Q580.0125 317.59064 579.29376 316.7Q578.45 315.6375 578.45 313.21564ZM579.52814 313.21564Q579.52814 315.325 580.02814 316.02814Q580.52814 316.73126 581.2469 316.73126Q581.98126 316.73126 582.46564 316.02814Q582.96564 315.325 582.96564 313.21564Q582.96564 311.09064 582.46564 310.40314Q581.98126 309.7 581.23126 309.7Q580.5125 309.7 580.075 310.3094Q579.52814 311.09064 579.52814 313.21564ZM585.45 313.21564Q585.45 311.6844 585.7625 310.7625Q586.075 309.825 586.6844 309.325Q587.3094 308.825 588.2469 308.825Q588.9344 308.825 589.45 309.10626Q589.98126 309.3875 590.325 309.91876Q590.66876 310.4344 590.85626 311.1844Q591.04376 311.9344 591.04376 313.21564Q591.04376 314.73126 590.73126 315.65314Q590.4344 316.575 589.8094 317.09064Q589.2 317.59064 588.2469 317.59064Q587.0125 317.59064 586.29376 316.7Q585.45 315.6375 585.45 313.21564ZM586.52814 313.21564Q586.52814 315.325 587.02814 316.02814Q587.52814 316.73126 588.2469 316.73126Q588.98126 316.73126 589.46564 316.02814Q589.96564 315.325 589.96564 313.21564Q589.96564 311.09064 589.46564 310.40314Q588.98126 309.7 588.23126 309.7Q587.5125 309.7 587.075 310.3094Q586.52814 311.09064 586.52814 313.21564Z" fill-rule="nonzero"/></svg>