<svg version="1.1" viewBox="0.0 0.0 600.0 371.0" fill="none" stroke="none" stroke-linecap="square" stroke-miterlimit="10" width="600" height="371" xmlns:xlink="http://www.w3.org/1999/xlink" xmlns="http://www.w3.org/2000/svg"><path fill="#ffffff" d="M0 0L600.0 0L600.0 371.0L0 371.0L0 0Z" fill-rule="nonzero"/><path stroke="#cccccc" stroke-width="1.0" stroke-linecap="butt" d="M146.5 25.5L146.5 300.5" fill-rule="nonzero"/><path stroke="#cccccc" stroke-width="1.0" stroke-linecap="butt" d="M194.5 25.5L194.5 300.5" fill-rule="nonzero"/><path stroke="#cccccc" stroke-width="1.0" stroke-linecap="butt" d="M242.5 25.5L242.5 300.5" fill-rule="nonzero"/><path stroke="#cccccc" stroke-width="1.0" stroke-linecap="butt" d="M291.5 25.5L291.5 300.5" fill-rule="nonzero"/><path stroke="#cccccc" stroke-width="1.0" stroke-linecap="butt" d="M339.5 25.5L339.5 300.5" fill-rule="nonzero"/><path stroke="#cccccc" stroke-width="1.0" stroke-linecap="butt" d="M387.5 25.5L387.5 300.5" fill-rule="nonzero"/><path stroke="#cccccc" stroke-width="1.0" stroke-linecap="butt" d="M436.5 25.5L436.5 300.5" fill-rule="nonzero"/><path stroke="#cccccc" stroke-width="1.0" stroke-linecap="butt" d="M484.5 25.5L484.5 300.5" fill-rule="nonzero"/><path stroke="#cccccc" stroke-width="1.0" stroke-linecap="butt" d="M533.5 25.5L533.5 300.5" fill-rule="nonzero"/><path stroke="#cccccc" stroke-width="1.0" stroke-linecap="butt" d="M581.5 25.5L581.5 300.5" fill-rule="nonzero"/><path stroke="#cccccc" stroke-width="1.0" stroke-linecap="butt" d="M102.5 300.5L581.5 300.5" fill-rule="nonzero"/><path stroke="#cccccc" stroke-width="1.0" stroke-linecap="butt" d="M102.5 231.5L581.5 231.5" fill-rule="nonzero"/><path stroke="#333333" stroke-width="1.0" stroke-linecap="butt" d="M102.5 163.5L581.5 163.5" fill-rule="nonzero"/><path stroke="#cccccc" stroke-width="1.0" stroke-linecap="butt" d="M102.5 94.5L581.5 94.5" fill-rule="nonzero"/><path stroke="#cccccc" stroke-width="1.0" stroke-linecap="butt" d="M102.5 25.5L581.5 25.5" fill-rule="nonzero"/><path stroke="#e6e6e6" stroke-width="1.0" stroke-linecap="butt" d="M102.5 286.5L581.5 286.5" fill-rule="nonzero"/><path stroke="#e6e6e6" stroke-width="1.0" stroke-linecap="butt" d="M102.5 272.5L581.5 272.5" fill-rule="nonzero"/><path stroke="#e6e6e6" stroke-width="1.0" stroke-linecap="butt" d="M102.5 259.5L581.5 259.5" fill-rule="nonzero"/><path stroke="#e6e6e6" stroke-width="1.0" stroke-linecap="butt" d="M102.5 245.5L581.5 245.5" fill-rule="nonzero"/><path stroke="#e6e6e6" stroke-width="1.0" stroke-linecap="butt" d="M102.5 217.5L581.5 217.5" fill-rule="nonzero"/><path stroke="#e6e6e6" stroke-width="1.0" stroke-linecap="butt" d="M102.5 204.5L581.5 204.5" fill-rule="nonzero"/><path stroke="#e6e6e6" stroke-width="1.0" stroke-linecap="butt" d="M102.5 190.5L581.5 190.5" fill-rule="nonzero"/><path stroke="#e6e6e6" stroke-width="1.0" stroke-linecap="butt" d="M102.5 176.5L581.5 176.5" fill-rule="nonzero"/><path stroke="#e6e6e6" stroke-width="1.0" stroke-linecap="butt" d="M102.5 149.5L581.5 149.5" fill-rule="nonzero"/><path stroke="#e6e6e6" stroke-width="1.0" stroke-linecap="butt" d="M102.5 135.5L581.5 135.5" fill-rule="nonzero"/><path stroke="#e6e6e6" stroke-width="1.0" stroke-linecap="butt" d="M102.5 121.5L581.5 121.5" fill-rule="nonzero"/><path stroke="#e6e6e6" stroke-width="1.0" stroke-linecap="butt" d="M102.5 108.5L581.5 108.5" fill-rule="nonzero"/><path stroke="#e6e6e6" stroke-width="1.0" stroke-linecap="butt" d="M102.5 80.5L581.5 80.5" fill-rule="nonzero"/><path stroke="#e6e6e6" stroke-width="1.0" stroke-linecap="butt" d="M102.5 66.5L581.5 66.5" fill-rule="nonzero"/><path stroke="#e6e6e6" stroke-width="1.0" stroke-linecap="butt" d="M102.5 53.5L581.5 53.5" fill-rule="nonzero"/><path stroke="#e6e6e6" stroke-width="1.0" stroke-linecap="butt" d="M102.5 39.5L581.5 39.5" fill-rule="nonzero"/><clipPath id="id_0"><path d="M102.55 25.55L581.45 25.55L581.45 300.45L102.55 300.45L102.55 25.55Z" clip-rule="nonzero"/></clipPath><path stroke="#4285f4" stroke-width="2.0" stroke-linecap="butt" clip-path="url(#id_0)" d="M102.55 280.82202L107.387375 270.2608L112.22475 263.9591L117.06212 259.30215L121.8995 255.58531L126.73687 252.48358L131.57425 249.81903L136.41162 247.46648L141.249 245.36554L146.08636 243.48059L150.92374 241.7489L155.76111 240.14935L160.59848 238.63084L165.43585 237.19176L170.27324 235.81023L175.11061 234.474L179.94798 233.18724L184.78535 231.93077L189.62273 230.71887L194.4601 229.54538L199.29747 228.41415L204.13484 227.31133L208.97223 226.2325L213.8096 225.18925L218.64697 224.16898L223.48434 223.16489L228.32172 222.17021L233.15909 221.17883L237.99646 220.19238L242.83383 219.21092L247.67122 218.23412L252.50859 217.26382L257.34595 216.30122L262.18332 215.34622L267.02072 214.39606L271.8581 213.45288L276.69547 212.50768L281.53284 211.5729L286.3702 210.63274L291.20758 209.69708L296.04495 208.75064L300.88232 207.81339L305.7197 206.87253L310.55707 205.93233L315.39444 204.9798L320.2318 204.02985L325.06918 203.08171L329.90656 202.12901L334.74393 201.18515L339.5813 200.22964L344.4187 199.27913L349.25607 198.31906L354.09344 197.3625L358.93082 196.40659L363.7682 195.44827L368.60556 194.48212L373.44293 193.52057L378.2803 192.54779L383.11768 191.56104L387.95505 190.55458L392.79242 189.5308L397.6298 188.48741L402.46716 187.42792L407.30453 186.35059L412.1419 185.2585L416.97928 184.14615L421.81668 183.02797L426.65405 181.88829L431.49142 180.72218L436.3288 179.53526L441.16617 178.31586L446.00354 177.06613L450.8409 175.79796L455.67828 174.50671L460.51566 173.18149L465.35303 171.80463L470.1904 170.38841L475.02777 168.91183L479.86514 167.3774L484.7025 165.7721L489.5399 164.0898L494.37726 162.3093L499.21466 160.41473L504.05203 158.40782L508.8894 156.28586L513.72675 154.02937L518.56415 151.63043L523.4015 149.03682L528.2389 146.18855L533.07623 143.07057L537.91364 139.67133L542.75104 135.75279L547.5884 131.30191L552.4258 125.99092L557.2631 119.67955L562.1005 111.57667L566.93787 100.89827L571.77527 85.45434" fill-rule="nonzero"/><path fill="#000000" fill-opacity="0.0" clip-path="url(#id_0)" d="M105.55 280.82202C105.55 282.47888 104.206856 283.82202 102.55 283.82202C100.89314 283.82202 99.55 282.47888 99.55 280.82202C99.55 279.1652 100.89314 277.82202 102.55 277.82202C104.206856 277.82202 105.55 279.1652 105.55 280.82202Z" fill-rule="nonzero"/><path fill="#000000" fill-opacity="0.0" clip-path="url(#id_0)" d="M110.387375 270.2608C110.387375 271.91766 109.04423 273.2608 107.387375 273.2608C105.73052 273.2608 104.387375 271.91766 104.387375 270.2608C104.387375 268.60397 105.73052 267.2608 107.387375 267.2608C109.04423 267.2608 110.387375 268.60397 110.387375 270.2608Z" fill-rule="nonzero"/><path fill="#000000" fill-opacity="0.0" clip-path="url(#id_0)" d="M115.22475 263.9591C115.22475 265.61597 113.8816 266.9591 112.22475 266.9591C110.567894 266.9591 109.22475 265.61597 109.22475 263.9591C109.22475 262.30225 110.567894 260.9591 112.22475 260.9591C113.8816 260.9591 115.22475 262.30225 115.22475 263.9591Z" fill-rule="nonzero"/><path fill="#000000" fill-opacity="0.0" clip-path="url(#id_0)" d="M120.06212 259.30215C120.06212 260.959 118.71898 262.30215 117.06212 262.30215C115.405266 262.30215 114.06212 260.959 114.06212 259.30215C114.06212 257.64532 115.405266 256.30215 117.06212 256.30215C118.71898 256.30215 120.06212 257.64532 120.06212 259.30215Z" fill-rule="nonzero"/><path fill="#000000" fill-opacity="0.0" clip-path="url(#id_0)" d="M124.8995 255.58531C124.8995 257.24216 123.55635 258.5853 121.8995 258.5853C120.24264 258.5853 118.8995 257.24216 118.8995 255.58531C118.8995 253.92845 120.24264 252.58531 121.8995 252.58531C123.55635 252.58531 124.8995 253.92845 124.8995 255.58531Z" fill-rule="nonzero"/><path fill="#000000" fill-opacity="0.0" clip-path="url(#id_0)" d="M129.73686 252.48358C129.73686 254.14043 128.39372 255.48358 126.73687 255.48358C125.08002 255.48358 123.73687 254.14043 123.73687 252.48358C123.73687 250.82672 125.08002 249.48358 126.73687 249.48358C128.39372 249.48358 129.73686 250.82672 129.73686 252.48358Z" fill-rule="nonzero"/><path fill="#000000" fill-opacity="0.0" clip-path="url(#id_0)" d="M134.57425 249.81903C134.57425 251.47588 133.2311 252.81903 131.57425 252.81903C129.91739 252.81903 128.57425 251.47588 128.57425 249.81903C128.57425 248.16217 129.91739 246.81903 131.57425 246.81903C133.2311 246.81903 134.57425 248.16217 134.57425 249.81903Z" fill-rule="nonzero"/><path fill="#000000" fill-opacity="0.0" clip-path="url(#id_0)" d="M139.41162 247.46648C139.41162 249.12334 138.06847 250.46648 136.41162 250.46648C134.75476 250.46648 133.41162 249.12334 133.41162 247.46648C133.41162 245.80963 134.75476 244.46648 136.41162 244.46648C138.06847 244.46648 139.41162 245.80963 139.41162 247.46648Z" fill-rule="nonzero"/><path fill="#000000" fill-opacity="0.0" clip-path="url(#id_0)" d="M144.249 245.36554C144.249 247.02238 142.90584 248.36554 141.249 248.36554C139.59213 248.36554 138.249 247.02238 138.249 245.36554C138.249 243.70868 139.59213 242.36554 141.249 242.36554C142.90584 242.36554 144.249 243.70868 144.249 245.36554Z" fill-rule="nonzero"/><path fill="#000000" fill-opacity="0.0" clip-path="url(#id_0)" d="M149.08636 243.48059C149.08636 245.13745 147.74323 246.48059 146.08636 246.48059C144.4295 246.48059 143.08636 245.13745 143.08636 243.48059C143.08636 241.82373 144.4295 240.48059 146.08636 240.48059C147.74323 240.48059 149.08636 241.82373 149.08636 243.48059Z" fill-rule="nonzero"/><path fill="#000000" fill-opacity="0.0" clip-path="url(#id_0)" d="M153.92374 241.7489C153.92374 243.40575 152.5806 244.7489 150.92374 244.7489C149.26688 244.7489 147.92374 243.40575 147.92374 241.7489C147.92374 240.09204 149.26688 238.7489 150.92374 238.7489C152.5806 238.7489 153.92374 240.09204 153.92374 241.7489Z" fill-rule="nonzero"/><path fill="#000000" fill-opacity="0.0" clip-path="url(#id_0)" d="M158.76111 240.14935C158.76111 241.80621 157.41797 243.14935 155.76111 243.14935C154.10426 243.14935 152.76111 241.80621 152.76111 240.14935C152.76111 238.49251 154.10426 237.14935 155.76111 237.14935C157.41797 237.14935 158.76111 238.49251 158.76111 240.14935Z" fill-rule="nonzero"/><path fill="#000000" fill-opacity="0.0" clip-path="url(#id_0)" d="M163.59848 238.63084C163.59848 240.28769 162.25534 241.63084 160.59848 241.63084C158.94164 241.63084 157.59848 240.28769 157.59848 238.63084C157.59848 236.97398 158.94164 235.63084 160.59848 235.63084C162.25534 235.63084 163.59848 236.97398 163.59848 238.63084Z" fill-rule="nonzero"/><path fill="#000000" fill-opacity="0.0" clip-path="url(#id_0)" d="M168.43585 237.19176C168.43585 238.84862 167.09271 240.19176 165.43585 240.19176C163.779 240.19176 162.43585 238.84862 162.43585 237.19176C162.43585 235.53491 163.779 234.19176 165.43585 234.19176C167.09271 234.19176 168.43585 235.53491 168.43585 237.19176Z" fill-rule="nonzero"/><path fill="#000000" fill-opacity="0.0" clip-path="url(#id_0)" d="M173.27324 235.81023C173.27324 237.46709 171.93008 238.81023 170.27324 238.81023C168.61638 238.81023 167.27324 237.46709 167.27324 235.81023C167.27324 234.15338 168.61638 232.81023 170.27324 232.81023C171.93008 232.81023 173.27324 234.15338 173.27324 235.81023Z" fill-rule="nonzero"/><path fill="#000000" fill-opacity="0.0" clip-path="url(#id_0)" d="M178.11061 234.474C178.11061 236.13086 176.76746 237.474 175.11061 237.474C173.45375 237.474 172.11061 236.13086 172.11061 234.474C172.11061 232.81714 173.45375 231.474 175.11061 231.474C176.76746 231.474 178.11061 232.81714 178.11061 234.474Z" fill-rule="nonzero"/><path fill="#000000" fill-opacity="0.0" clip-path="url(#id_0)" d="M182.94798 233.18724C182.94798 234.84409 181.60483 236.18724 179.94798 236.18724C178.29112 236.18724 176.94798 234.84409 176.94798 233.18724C176.94798 231.53038 178.29112 230.18724 179.94798 230.18724C181.60483 230.18724 182.94798 231.53038 182.94798 233.18724Z" fill-rule="nonzero"/><path fill="#000000" fill-opacity="0.0" clip-path="url(#id_0)" d="M187.78535 231.93077C187.78535 233.58762 186.44221 234.93077 184.78535 234.93077C183.1285 234.93077 181.78535 233.58762 181.78535 231.93077C181.78535 230.27391 183.1285 228.93077 184.78535 228.93077C186.44221 228.93077 187.78535 230.27391 187.78535 231.93077Z" fill-rule="nonzero"/><path fill="#000000" fill-opacity="0.0" clip-path="url(#id_0)" d="M192.62273 230.71887C192.62273 232.37573 191.27959 233.71887 189.62273 233.71887C187.96587 233.71887 186.62273 232.37573 186.62273 230.71887C186.62273 229.06203 187.96587 227.71887 189.62273 227.71887C191.27959 227.71887 192.62273 229.06203 192.62273 230.71887Z" fill-rule="nonzero"/><path fill="#000000" fill-opacity="0.0" clip-path="url(#id_0)" d="M197.4601 229.54538C197.4601 231.20222 196.11696 232.54538 194.4601 232.54538C192.80325 232.54538 191.4601 231.20222 191.4601 229.54538C191.4601 227.88852 192.80325 226.54538 194.4601 226.54538C196.11696 226.54538 197.4601 227.88852 197.4601 229.54538Z" fill-rule="nonzero"/><path fill="#000000" fill-opacity="0.0" clip-path="url(#id_0)" d="M202.29747 228.41415C202.29747 230.07101 200.95433 231.41415 199.29747 231.41415C197.64062 231.41415 196.29747 230.07101 196.29747 228.41415C196.29747 226.75731 197.64062 225.41415 199.29747 225.41415C200.95433 225.41415 202.29747 226.75731 202.29747 228.41415Z" fill-rule="nonzero"/><path fill="#000000" fill-opacity="0.0" clip-path="url(#id_0)" d="M207.13484 227.31133C207.13484 228.96817 205.7917 230.31133 204.13484 230.31133C202.478 230.31133 201.13484 228.96817 201.13484 227.31133C201.13484 225.65446 202.478 224.31133 204.13484 224.31133C205.7917 224.31133 207.13484 225.65446 207.13484 227.31133Z" fill-rule="nonzero"/><path fill="#000000" fill-opacity="0.0" clip-path="url(#id_0)" d="M211.97223 226.2325C211.97223 227.88934 210.62907 229.2325 208.97223 229.2325C207.31537 229.2325 205.97223 227.88934 205.97223 226.2325C205.97223 224.57564 207.31537 223.2325 208.97223 223.2325C210.62907 223.2325 211.97223 224.57564 211.97223 226.2325Z" fill-rule="nonzero"/><path fill="#000000" fill-opacity="0.0" clip-path="url(#id_0)" d="M216.8096 225.18925C216.8096 226.8461 215.46645 228.18925 213.8096 228.18925C212.15274 228.18925 210.8096 226.8461 210.8096 225.18925C210.8096 223.5324 212.15274 222.18925 213.8096 222.18925C215.46645 222.18925 216.8096 223.5324 216.8096 225.18925Z" fill-rule="nonzero"/><path fill="#000000" fill-opacity="0.0" clip-path="url(#id_0)" d="M221.64697 224.16898C221.64697 225.82584 220.30382 227.16898 218.64697 227.16898C216.99011 227.16898 215.64697 225.82584 215.64697 224.16898C215.64697 222.51213 216.99011 221.16898 218.64697 221.16898C220.30382 221.16898 221.64697 222.51213 221.64697 224.16898Z" fill-rule="nonzero"/><path fill="#000000" fill-opacity="0.0" clip-path="url(#id_0)" d="M226.48434 223.16489C226.48434 224.82175 225.1412 226.16489 223.48434 226.16489C221.82748 226.16489 220.48434 224.82175 220.48434 223.16489C220.48434 221.50804 221.82748 220.16489 223.48434 220.16489C225.1412 220.16489 226.48434 221.50804 226.48434 223.16489Z" fill-rule="nonzero"/><path fill="#000000" fill-opacity="0.0" clip-path="url(#id_0)" d="M231.32172 222.17021C231.32172 223.82707 229.97858 225.17021 228.32172 225.17021C226.66486 225.17021 225.32172 223.82707 225.32172 222.17021C225.32172 220.51337 226.66486 219.17021 228.32172 219.17021C229.97858 219.17021 231.32172 220.51337 231.32172 222.17021Z" fill-rule="nonzero"/><path fill="#000000" fill-opacity="0.0" clip-path="url(#id_0)" d="M236.15909 221.17883C236.15909 222.83568 234.81595 224.17883 233.15909 224.17883C231.50224 224.17883 230.15909 222.83568 230.15909 221.17883C230.15909 219.52197 231.50224 218.17883 233.15909 218.17883C234.81595 218.17883 236.15909 219.52197 236.15909 221.17883Z" fill-rule="nonzero"/><path fill="#000000" fill-opacity="0.0" clip-path="url(#id_0)" d="M240.99646 220.19238C240.99646 221.84923 239.65332 223.19238 237.99646 223.19238C236.33961 223.19238 234.99646 221.84923 234.99646 220.19238C234.99646 218.53552 236.33961 217.19238 237.99646 217.19238C239.65332 217.19238 240.99646 218.53552 240.99646 220.19238Z" fill-rule="nonzero"/><path fill="#000000" fill-opacity="0.0" clip-path="url(#id_0)" d="M245.83383 219.21092C245.83383 220.86778 244.49069 222.21092 242.83383 222.21092C241.17699 222.21092 239.83383 220.86778 239.83383 219.21092C239.83383 217.55408 241.17699 216.21092 242.83383 216.21092C244.49069 216.21092 245.83383 217.55408 245.83383 219.21092Z" fill-rule="nonzero"/><path fill="#000000" fill-opacity="0.0" clip-path="url(#id_0)" d="M250.67122 218.23412C250.67122 219.89096 249.32806 221.23412 247.67122 221.23412C246.01436 221.23412 244.67122 219.89096 244.67122 218.23412C244.67122 216.57726 246.01436 215.23412 247.67122 215.23412C249.32806 215.23412 250.67122 216.57726 250.67122 218.23412Z" fill-rule="nonzero"/><path fill="#000000" fill-opacity="0.0" clip-path="url(#id_0)" d="M255.50859 217.26382C255.50859 218.92068 254.16544 220.26382 252.50859 220.26382C250.85173 220.26382 249.50859 218.92068 249.50859 217.26382C249.50859 215.60698 250.85173 214.26382 252.50859 214.26382C254.16544 214.26382 255.50859 215.60698 255.50859 217.26382Z" fill-rule="nonzero"/><path fill="#000000" fill-opacity="0.0" clip-path="url(#id_0)" d="M260.34595 216.30122C260.34595 217.95807 259.0028 219.30122 257.34595 219.30122C255.6891 219.30122 254.34596 217.95807 254.34596 216.30122C254.34596 214.64436 255.6891 213.30122 257.34595 213.30122C259.0028 213.30122 260.34595 214.64436 260.34595 216.30122Z" fill-rule="nonzero"/><path fill="#000000" fill-opacity="0.0" clip-path="url(#id_0)" d="M265.18332 215.34622C265.18332 217.00308 263.84018 218.34622 262.18332 218.34622C260.5265 218.34622 259.18332 217.00308 259.18332 215.34622C259.18332 213.68938 260.5265 212.34622 262.18332 212.34622C263.84018 212.34622 265.18332 213.68938 265.18332 215.34622Z" fill-rule="nonzero"/><path fill="#000000" fill-opacity="0.0" clip-path="url(#id_0)" d="M270.02072 214.39606C270.02072 216.05292 268.67755 217.39606 267.02072 217.39606C265.36386 217.39606 264.02072 216.05292 264.02072 214.39606C264.02072 212.73921 265.36386 211.39606 267.02072 211.39606C268.67755 211.39606 270.02072 212.73921 270.02072 214.39606Z" fill-rule="nonzero"/><path fill="#000000" fill-opacity="0.0" clip-path="url(#id_0)" d="M274.8581 213.45288C274.8581 215.10973 273.51492 216.45288 271.8581 216.45288C270.20123 216.45288 268.8581 215.10973 268.8581 213.45288C268.8581 211.79602 270.20123 210.45288 271.8581 210.45288C273.51492 210.45288 274.8581 211.79602 274.8581 213.45288Z" fill-rule="nonzero"/><path fill="#000000" fill-opacity="0.0" clip-path="url(#id_0)" d="M279.69547 212.50768C279.69547 214.16454 278.3523 215.50768 276.69547 215.50768C275.0386 215.50768 273.69547 214.16454 273.69547 212.50768C273.69547 210.85081 275.0386 209.50768 276.69547 209.50768C278.3523 209.50768 279.69547 210.85081 279.69547 212.50768Z" fill-rule="nonzero"/><path fill="#000000" fill-opacity="0.0" clip-path="url(#id_0)" d="M284.53284 211.5729C284.53284 213.22977 283.1897 214.5729 281.53284 214.5729C279.87598 214.5729 278.53284 213.22977 278.53284 211.5729C278.53284 209.91606 279.87598 208.5729 281.53284 208.5729C283.1897 208.5729 284.53284 209.91606 284.53284 211.5729Z" fill-rule="nonzero"/><path fill="#000000" fill-opacity="0.0" clip-path="url(#id_0)" d="M289.3702 210.63274C289.3702 212.28958 288.02707 213.63274 286.3702 213.63274C284.71335 213.63274 283.3702 212.28958 283.3702 210.63274C283.3702 208.97588 284.71335 207.63274 286.3702 207.63274C288.02707 207.63274 289.3702 208.97588 289.3702 210.63274Z" fill-rule="nonzero"/><path fill="#000000" fill-opacity="0.0" clip-path="url(#id_0)" d="M294.20758 209.69708C294.20758 211.35393 292.86444 212.69708 291.20758 212.69708C289.55072 212.69708 288.20758 211.35393 288.20758 209.69708C288.20758 208.04022 289.55072 206.69708 291.20758 206.69708C292.86444 206.69708 294.20758 208.04022 294.20758 209.69708Z" fill-rule="nonzero"/><path fill="#000000" fill-opacity="0.0" clip-path="url(#id_0)" d="M299.04495 208.75064C299.04495 210.4075 297.7018 211.75064 296.04495 211.75064C294.3881 211.75064 293.04495 210.4075 293.04495 208.75064C293.04495 207.0938 294.3881 205.75064 296.04495 205.75064C297.7018 205.75064 299.04495 207.0938 299.04495 208.75064Z" fill-rule="nonzero"/><path fill="#000000" fill-opacity="0.0" clip-path="url(#id_0)" d="M303.88232 207.81339C303.88232 209.47023 302.53918 210.81339 300.88232 210.81339C299.22546 210.81339 297.88232 209.47023 297.88232 207.81339C297.88232 206.15652 299.22546 204.81339 300.88232 204.81339C302.53918 204.81339 303.88232 206.15652 303.88232 207.81339Z" fill-rule="nonzero"/><path fill="#000000" fill-opacity="0.0" clip-path="url(#id_0)" d="M308.7197 206.87253C308.7197 208.52939 307.37656 209.87253 305.7197 209.87253C304.06284 209.87253 302.7197 208.52939 302.7197 206.87253C302.7197 205.21567 304.06284 203.87253 305.7197 203.87253C307.37656 203.87253 308.7197 205.21567 308.7197 206.87253Z" fill-rule="nonzero"/><path fill="#000000" fill-opacity="0.0" clip-path="url(#id_0)" d="M313.55707 205.93233C313.55707 207.58917 312.21393 208.93233 310.55707 208.93233C308.9002 208.93233 307.55707 207.58917 307.55707 205.93233C307.55707 204.27547 308.9002 202.93233 310.55707 202.93233C312.21393 202.93233 313.55707 204.27547 313.55707 205.93233Z" fill-rule="nonzero"/><path fill="#000000" fill-opacity="0.0" clip-path="url(#id_0)" d="M318.39444 204.9798C318.39444 206.63666 317.0513 207.9798 315.39444 207.9798C313.73758 207.9798 312.39444 206.63666 312.39444 204.9798C312.39444 203.32295 313.73758 201.9798 315.39444 201.9798C317.0513 201.9798 318.39444 203.32295 318.39444 204.9798Z" fill-rule="nonzero"/><path fill="#000000" fill-opacity="0.0" clip-path="url(#id_0)" d="M323.2318 204.02985C323.2318 205.6867 321.88867 207.02985 320.2318 207.02985C318.57495 207.02985 317.2318 205.6867 317.2318 204.02985C317.2318 202.373 318.57495 201.02985 320.2318 201.02985C321.88867 201.02985 323.2318 202.373 323.2318 204.02985Z" fill-rule="nonzero"/><path fill="#000000" fill-opacity="0.0" clip-path="url(#id_0)" d="M328.06918 203.08171C328.06918 204.73856 326.72604 206.08171 325.06918 206.08171C323.41232 206.08171 322.06918 204.73856 322.06918 203.08171C322.06918 201.42485 323.41232 200.08171 325.06918 200.08171C326.72604 200.08171 328.06918 201.42485 328.06918 203.08171Z" fill-rule="nonzero"/><path fill="#000000" fill-opacity="0.0" clip-path="url(#id_0)" d="M332.90656 202.12901C332.90656 203.78587 331.56342 205.12901 329.90656 205.12901C328.24973 205.12901 326.90656 203.78587 326.90656 202.12901C326.90656 200.47215 328.24973 199.12901 329.90656 199.12901C331.56342 199.12901 332.90656 200.47215 332.90656 202.12901Z" fill-rule="nonzero"/><path fill="#000000" fill-opacity="0.0" clip-path="url(#id_0)" d="M337.74393 201.18515C337.74393 202.842 336.4008 204.18515 334.74393 204.18515C333.0871 204.18515 331.74393 202.842 331.74393 201.18515C331.74393 199.52829 333.0871 198.18515 334.74393 198.18515C336.4008 198.18515 337.74393 199.52829 337.74393 201.18515Z" fill-rule="nonzero"/><path fill="#000000" fill-opacity="0.0" clip-path="url(#id_0)" d="M342.5813 200.22964C342.5813 201.8865 341.23816 203.22964 339.5813 203.22964C337.92447 203.22964 336.5813 201.8865 336.5813 200.22964C336.5813 198.57278 337.92447 197.22964 339.5813 197.22964C341.23816 197.22964 342.5813 198.57278 342.5813 200.22964Z" fill-rule="nonzero"/><path fill="#000000" fill-opacity="0.0" clip-path="url(#id_0)" d="M347.4187 199.27913C347.4187 200.93599 346.07553 202.27913 344.4187 202.27913C342.76184 202.27913 341.4187 200.93599 341.4187 199.27913C341.4187 197.62228 342.76184 196.27913 344.4187 196.27913C346.07553 196.27913 347.4187 197.62228 347.4187 199.27913Z" fill-rule="nonzero"/><path fill="#000000" fill-opacity="0.0" clip-path="url(#id_0)" d="M352.25607 198.31906C352.25607 199.9759 350.9129 201.31906 349.25607 201.31906C347.5992 201.31906 346.25607 199.9759 346.25607 198.31906C346.25607 196.6622 347.5992 195.31906 349.25607 195.31906C350.9129 195.31906 352.25607 196.6622 352.25607 198.31906Z" fill-rule="nonzero"/><path fill="#000000" fill-opacity="0.0" clip-path="url(#id_0)" d="M357.09344 197.3625C357.09344 199.01935 355.75027 200.3625 354.09344 200.3625C352.43658 200.3625 351.09344 199.01935 351.09344 197.3625C351.09344 195.70564 352.43658 194.3625 354.09344 194.3625C355.75027 194.3625 357.09344 195.70564 357.09344 197.3625Z" fill-rule="nonzero"/><path fill="#000000" fill-opacity="0.0" clip-path="url(#id_0)" d="M361.93082 196.40659C361.93082 198.06345 360.58768 199.40659 358.93082 199.40659C357.27396 199.40659 355.93082 198.06345 355.93082 196.40659C355.93082 194.74974 357.27396 193.40659 358.93082 193.40659C360.58768 193.40659 361.93082 194.74974 361.93082 196.40659Z" fill-rule="nonzero"/><path fill="#000000" fill-opacity="0.0" clip-path="url(#id_0)" d="M366.7682 195.44827C366.7682 197.10512 365.42505 198.44827 363.7682 198.44827C362.11133 198.44827 360.7682 197.10512 360.7682 195.44827C360.7682 193.79141 362.11133 192.44827 363.7682 192.44827C365.42505 192.44827 366.7682 193.79141 366.7682 195.44827Z" fill-rule="nonzero"/><path fill="#000000" fill-opacity="0.0" clip-path="url(#id_0)" d="M371.60556 194.48212C371.60556 196.13898 370.26242 197.48212 368.60556 197.48212C366.9487 197.48212 365.60556 196.13898 365.60556 194.48212C365.60556 192.82527 366.9487 191.48212 368.60556 191.48212C370.26242 191.48212 371.60556 192.82527 371.60556 194.48212Z" fill-rule="nonzero"/><path fill="#000000" fill-opacity="0.0" clip-path="url(#id_0)" d="M376.44293 193.52057C376.44293 195.17741 375.0998 196.52057 373.44293 196.52057C371.78607 196.52057 370.44293 195.17741 370.44293 193.52057C370.44293 191.86371 371.78607 190.52057 373.44293 190.52057C375.0998 190.52057 376.44293 191.86371 376.44293 193.52057Z" fill-rule="nonzero"/><path fill="#000000" fill-opacity="0.0" clip-path="url(#id_0)" d="M381.2803 192.54779C381.2803 194.20465 379.93716 195.54779 378.2803 195.54779C376.62344 195.54779 375.2803 194.20465 375.2803 192.54779C375.2803 190.89095 376.62344 189.54779 378.2803 189.54779C379.93716 189.54779 381.2803 190.89095 381.2803 192.54779Z" fill-rule="nonzero"/><path fill="#000000" fill-opacity="0.0" clip-path="url(#id_0)" d="M386.11768 191.56104C386.11768 193.2179 384.77454 194.56104 383.11768 194.56104C381.46082 194.56104 380.11768 193.2179 380.11768 191.56104C380.11768 189.90419 381.46082 188.56104 383.11768 188.56104C384.77454 188.56104 386.11768 189.90419 386.11768 191.56104Z" fill-rule="nonzero"/><path fill="#000000" fill-opacity="0.0" clip-path="url(#id_0)" d="M390.95505 190.55458C390.95505 192.21144 389.6119 193.55458 387.95505 193.55458C386.2982 193.55458 384.95505 192.21144 384.95505 190.55458C384.95505 188.89772 386.2982 187.55458 387.95505 187.55458C389.6119 187.55458 390.95505 188.89772 390.95505 190.55458Z" fill-rule="nonzero"/><path fill="#000000" fill-opacity="0.0" clip-path="url(#id_0)" d="M395.79242 189.5308C395.79242 191.18767 394.44928 192.5308 392.79242 192.5308C391.13556 192.5308 389.79242 191.18767 389.79242 189.5308C389.79242 187.87396 391.13556 186.5308 392.79242 186.5308C394.44928 186.5308 395.79242 187.87396 395.79242 189.5308Z" fill-rule="nonzero"/><path fill="#000000" fill-opacity="0.0" clip-path="url(#id_0)" d="M400.6298 188.48741C400.6298 190.14427 399.28665 191.48741 397.6298 191.48741C395.97293 191.48741 394.6298 190.14427 394.6298 188.48741C394.6298 186.83057 395.97293 185.48741 397.6298 185.48741C399.28665 185.48741 400.6298 186.83057 400.6298 188.48741Z" fill-rule="nonzero"/><path fill="#000000" fill-opacity="0.0" clip-path="url(#id_0)" d="M405.46716 187.42792C405.46716 189.08476 404.12402 190.42792 402.46716 190.42792C400.8103 190.42792 399.46716 189.08476 399.46716 187.42792C399.46716 185.77106 400.8103 184.42792 402.46716 184.42792C404.12402 184.42792 405.46716 185.77106 405.46716 187.42792Z" fill-rule="nonzero"/><path fill="#000000" fill-opacity="0.0" clip-path="url(#id_0)" d="M410.30453 186.35059C410.30453 188.00743 408.9614 189.35059 407.30453 189.35059C405.6477 189.35059 404.30453 188.00743 404.30453 186.35059C404.30453 184.69373 405.6477 183.35059 407.30453 183.35059C408.9614 183.35059 410.30453 184.69373 410.30453 186.35059Z" fill-rule="nonzero"/><path fill="#000000" fill-opacity="0.0" clip-path="url(#id_0)" d="M415.1419 185.2585C415.1419 186.91534 413.79877 188.2585 412.1419 188.2585C410.48508 188.2585 409.1419 186.91534 409.1419 185.2585C409.1419 183.60164 410.48508 182.2585 412.1419 182.2585C413.79877 182.2585 415.1419 183.60164 415.1419 185.2585Z" fill-rule="nonzero"/><path fill="#000000" fill-opacity="0.0" clip-path="url(#id_0)" d="M419.97928 184.14615C419.97928 185.80301 418.63614 187.14615 416.97928 187.14615C415.32245 187.14615 413.97928 185.80301 413.97928 184.14615C413.97928 182.4893 415.32245 181.14615 416.97928 181.14615C418.63614 181.14615 419.97928 182.4893 419.97928 184.14615Z" fill-rule="nonzero"/><path fill="#000000" fill-opacity="0.0" clip-path="url(#id_0)" d="M424.81668 183.02797C424.81668 184.68481 423.4735 186.02797 421.81668 186.02797C420.15982 186.02797 418.81668 184.68481 418.81668 183.02797C418.81668 181.37111 420.15982 180.02797 421.81668 180.02797C423.4735 180.02797 424.81668 181.37111 424.81668 183.02797Z" fill-rule="nonzero"/><path fill="#000000" fill-opacity="0.0" clip-path="url(#id_0)" d="M429.65405 181.88829C429.65405 183.54515 428.31088 184.88829 426.65405 184.88829C424.9972 184.88829 423.65405 183.54515 423.65405 181.88829C423.65405 180.23143 424.9972 178.88829 426.65405 178.88829C428.31088 178.88829 429.65405 180.23143 429.65405 181.88829Z" fill-rule="nonzero"/><path fill="#000000" fill-opacity="0.0" clip-path="url(#id_0)" d="M434.49142 180.72218C434.49142 182.37904 433.14825 183.72218 431.49142 183.72218C429.83456 183.72218 428.49142 182.37904 428.49142 180.72218C428.49142 179.06534 429.83456 177.72218 431.49142 177.72218C433.14825 177.72218 434.49142 179.06534 434.49142 180.72218Z" fill-rule="nonzero"/><path fill="#000000" fill-opacity="0.0" clip-path="url(#id_0)" d="M439.3288 179.53526C439.3288 181.19211 437.98566 182.53526 436.3288 182.53526C434.67194 182.53526 433.3288 181.19211 433.3288 179.53526C433.3288 177.8784 434.67194 176.53526 436.3288 176.53526C437.98566 176.53526 439.3288 177.8784 439.3288 179.53526Z" fill-rule="nonzero"/><path fill="#000000" fill-opacity="0.0" clip-path="url(#id_0)" d="M444.16617 178.31586C444.16617 179.97272 442.82303 181.31586 441.16617 181.31586C439.5093 181.31586 438.16617 179.97272 438.16617 178.31586C438.16617 176.659 439.5093 175.31586 441.16617 175.31586C442.82303 175.31586 444.16617 176.659 444.16617 178.31586Z" fill-rule="nonzero"/><path fill="#000000" fill-opacity="0.0" clip-path="url(#id_0)" d="M449.00354 177.06613C449.00354 178.72299 447.6604 180.06613 446.00354 180.06613C444.34668 180.06613 443.00354 178.72299 443.00354 177.06613C443.00354 175.40929 444.34668 174.06613 446.00354 174.06613C447.6604 174.06613 449.00354 175.40929 449.00354 177.06613Z" fill-rule="nonzero"/><path fill="#000000" fill-opacity="0.0" clip-path="url(#id_0)" d="M453.8409 175.79796C453.8409 177.4548 452.49777 178.79796 450.8409 178.79796C449.18405 178.79796 447.8409 177.4548 447.8409 175.79796C447.8409 174.1411 449.18405 172.79796 450.8409 172.79796C452.49777 172.79796 453.8409 174.1411 453.8409 175.79796Z" fill-rule="nonzero"/><path fill="#000000" fill-opacity="0.0" clip-path="url(#id_0)" d="M458.67828 174.50671C458.67828 176.16356 457.33514 177.50671 455.67828 177.50671C454.02142 177.50671 452.67828 176.16356 452.67828 174.50671C452.67828 172.84985 454.02142 171.50671 455.67828 171.50671C457.33514 171.50671 458.67828 172.84985 458.67828 174.50671Z" fill-rule="nonzero"/><path fill="#000000" fill-opacity="0.0" clip-path="url(#id_0)" d="M463.51566 173.18149C463.51566 174.83833 462.17252 176.18149 460.51566 176.18149C458.8588 176.18149 457.51566 174.83833 457.51566 173.18149C457.51566 171.52463 458.8588 170.18149 460.51566 170.18149C462.17252 170.18149 463.51566 171.52463 463.51566 173.18149Z" fill-rule="nonzero"/><path fill="#000000" fill-opacity="0.0" clip-path="url(#id_0)" d="M468.35303 171.80463C468.35303 173.46149 467.0099 174.80463 465.35303 174.80463C463.69617 174.80463 462.35303 173.46149 462.35303 171.80463C462.35303 170.14777 463.69617 168.80463 465.35303 168.80463C467.0099 168.80463 468.35303 170.14777 468.35303 171.80463Z" fill-rule="nonzero"/><path fill="#000000" fill-opacity="0.0" clip-path="url(#id_0)" d="M473.1904 170.38841C473.1904 172.04527 471.84726 173.38841 470.1904 173.38841C468.53354 173.38841 467.1904 172.04527 467.1904 170.38841C467.1904 168.73157 468.53354 167.38841 470.1904 167.38841C471.84726 167.38841 473.1904 168.73157 473.1904 170.38841Z" fill-rule="nonzero"/><path fill="#000000" fill-opacity="0.0" clip-path="url(#id_0)" d="M478.02777 168.91183C478.02777 170.56868 476.68463 171.91183 475.02777 171.91183C473.3709 171.91183 472.02777 170.56868 472.02777 168.91183C472.02777 167.25497 473.3709 165.91183 475.02777 165.91183C476.68463 165.91183 478.02777 167.25497 478.02777 168.91183Z" fill-rule="nonzero"/><path fill="#000000" fill-opacity="0.0" clip-path="url(#id_0)" d="M482.86514 167.3774C482.86514 169.03424 481.522 170.3774 479.86514 170.3774C478.20828 170.3774 476.86514 169.03424 476.86514 167.3774C476.86514 165.72054 478.20828 164.3774 479.86514 164.3774C481.522 164.3774 482.86514 165.72054 482.86514 167.3774Z" fill-rule="nonzero"/><path fill="#000000" fill-opacity="0.0" clip-path="url(#id_0)" d="M487.7025 165.7721C487.7025 167.42896 486.35938 168.7721 484.7025 168.7721C483.0457 168.7721 481.7025 167.42896 481.7025 165.7721C481.7025 164.11525 483.0457 162.7721 484.7025 162.7721C486.35938 162.7721 487.7025 164.11525 487.7025 165.7721Z" fill-rule="nonzero"/><path fill="#000000" fill-opacity="0.0" clip-path="url(#id_0)" d="M492.5399 164.0898C492.5399 165.74664 491.19675 167.0898 489.5399 167.0898C487.88306 167.0898 486.5399 165.74664 486.5399 164.0898C486.5399 162.43294 487.88306 161.0898 489.5399 161.0898C491.19675 161.0898 492.5399 162.43294 492.5399 164.0898Z" fill-rule="nonzero"/><path fill="#000000" fill-opacity="0.0" clip-path="url(#id_0)" d="M497.37726 162.3093C497.37726 163.96616 496.03412 165.3093 494.37726 165.3093C492.72043 165.3093 491.37726 163.96616 491.37726 162.3093C491.37726 160.65244 492.72043 159.3093 494.37726 159.3093C496.03412 159.3093 497.37726 160.65244 497.37726 162.3093Z" fill-rule="nonzero"/><path fill="#000000" fill-opacity="0.0" clip-path="url(#id_0)" d="M502.21466 160.41473C502.21466 162.0716 500.8715 163.41473 499.21466 163.41473C497.5578 163.41473 496.21466 162.0716 496.21466 160.41473C496.21466 158.75787 497.5578 157.41473 499.21466 157.41473C500.8715 157.41473 502.21466 158.75787 502.21466 160.41473Z" fill-rule="nonzero"/><path fill="#000000" fill-opacity="0.0" clip-path="url(#id_0)" d="M507.05203 158.40782C507.05203 160.06468 505.70886 161.40782 504.05203 161.40782C502.39517 161.40782 501.05203 160.06468 501.05203 158.40782C501.05203 156.75098 502.39517 155.40782 504.05203 155.40782C505.70886 155.40782 507.05203 156.75098 507.05203 158.40782Z" fill-rule="nonzero"/><path fill="#000000" fill-opacity="0.0" clip-path="url(#id_0)" d="M511.8894 156.28586C511.8894 157.9427 510.54623 159.28586 508.8894 159.28586C507.23254 159.28586 505.8894 157.9427 505.8894 156.28586C505.8894 154.629 507.23254 153.28586 508.8894 153.28586C510.54623 153.28586 511.8894 154.629 511.8894 156.28586Z" fill-rule="nonzero"/><path fill="#000000" fill-opacity="0.0" clip-path="url(#id_0)" d="M516.72675 154.02937C516.72675 155.68622 515.3836 157.02937 513.72675 157.02937C512.0699 157.02937 510.72678 155.68622 510.72678 154.02937C510.72678 152.37251 512.0699 151.02937 513.72675 151.02937C515.3836 151.02937 516.72675 152.37251 516.72675 154.02937Z" fill-rule="nonzero"/><path fill="#000000" fill-opacity="0.0" clip-path="url(#id_0)" d="M521.56415 151.63043C521.56415 153.28728 520.221 154.63043 518.56415 154.63043C516.9073 154.63043 515.56415 153.28728 515.56415 151.63043C515.56415 149.97357 516.9073 148.63043 518.56415 148.63043C520.221 148.63043 521.56415 149.97357 521.56415 151.63043Z" fill-rule="nonzero"/><path fill="#000000" fill-opacity="0.0" clip-path="url(#id_0)" d="M526.4015 149.03682C526.4015 150.69368 525.05835 152.03682 523.4015 152.03682C521.7447 152.03682 520.4015 150.69368 520.4015 149.03682C520.4015 147.37997 521.7447 146.03682 523.4015 146.03682C525.05835 146.03682 526.4015 147.37997 526.4015 149.03682Z" fill-rule="nonzero"/><path fill="#000000" fill-opacity="0.0" clip-path="url(#id_0)" d="M531.2389 146.18855C531.2389 147.8454 529.89575 149.18855 528.2389 149.18855C526.58203 149.18855 525.2389 147.8454 525.2389 146.18855C525.2389 144.5317 526.58203 143.18855 528.2389 143.18855C529.89575 143.18855 531.2389 144.5317 531.2389 146.18855Z" fill-rule="nonzero"/><path fill="#000000" fill-opacity="0.0" clip-path="url(#id_0)" d="M536.07623 143.07057C536.07623 144.72743 534.7331 146.07057 533.07623 146.07057C531.41943 146.07057 530.07623 144.72743 530.07623 143.07057C530.07623 141.41373 531.41943 140.07057 533.07623 140.07057C534.7331 140.07057 536.07623 141.41373 536.07623 143.07057Z" fill-rule="nonzero"/><path fill="#000000" fill-opacity="0.0" clip-path="url(#id_0)" d="M540.91364 139.67133C540.91364 141.32819 539.5705 142.67133 537.91364 142.67133C536.2568 142.67133 534.91364 141.32819 534.91364 139.67133C534.91364 138.01448 536.2568 136.67133 537.91364 136.67133C539.5705 136.67133 540.91364 138.01448 540.91364 139.67133Z" fill-rule="nonzero"/><path fill="#000000" fill-opacity="0.0" clip-path="url(#id_0)" d="M545.75104 135.75279C545.75104 137.40965 544.40784 138.75279 542.75104 138.75279C541.0942 138.75279 539.75104 137.40965 539.75104 135.75279C539.75104 134.09595 541.0942 132.75279 542.75104 132.75279C544.40784 132.75279 545.75104 134.09595 545.75104 135.75279Z" fill-rule="nonzero"/><path fill="#000000" fill-opacity="0.0" clip-path="url(#id_0)" d="M550.5884 131.30191C550.5884 132.95877 549.24524 134.30191 547.5884 134.30191C545.9315 134.30191 544.5884 132.95877 544.5884 131.30191C544.5884 129.64507 545.9315 128.30191 547.5884 128.30191C549.24524 128.30191 550.5884 129.64507 550.5884 131.30191Z" fill-rule="nonzero"/><path fill="#000000" fill-opacity="0.0" clip-path="url(#id_0)" d="M555.4258 125.99092C555.4258 127.64777 554.08264 128.99092 552.4258 128.99092C550.7689 128.99092 549.4258 127.64777 549.4258 125.99092C549.4258 124.33407 550.7689 122.99092 552.4258 122.99092C554.08264 122.99092 555.4258 124.33407 555.4258 125.99092Z" fill-rule="nonzero"/><path fill="#000000" fill-opacity="0.0" clip-path="url(#id_0)" d="M560.2631 119.67955C560.2631 121.3364 558.92 122.67955 557.2631 122.67955C555.60626 122.67955 554.2631 121.3364 554.2631 119.67955C554.2631 118.0227 555.60626 116.67955 557.2631 116.67955C558.92 116.67955 560.2631 118.0227 560.2631 119.67955Z" fill-rule="nonzero"/><path fill="#000000" fill-opacity="0.0" clip-path="url(#id_0)" d="M565.1005 111.57667C565.1005 113.23352 563.7574 114.57667 562.1005 114.57667C560.44366 114.57667 559.1005 113.23352 559.1005 111.57667C559.1005 109.919815 560.44366 108.57667 562.1005 108.57667C563.7574 108.57667 565.1005 109.919815 565.1005 111.57667Z" fill-rule="nonzero"/><path fill="#000000" fill-opacity="0.0" clip-path="url(#id_0)" d="M569.93787 100.89827C569.93787 102.55512 568.5947 103.89827 566.93787 103.89827C565.281 103.89827 563.93787 102.55512 563.93787 100.89827C563.93787 99.24141 565.281 97.89827 566.93787 97.89827C568.5947 97.89827 569.93787 99.24141 569.93787 100.89827Z" fill-rule="nonzero"/><path fill="#000000" fill-opacity="0.0" clip-path="url(#id_0)" d="M574.77527 85.45434C574.77527 87.11119 573.4321 88.45434 571.77527 88.45434C570.1184 88.45434 568.77527 87.11119 568.77527 85.45434C568.77527 83.797485 570.1184 82.45434 571.77527 82.45434C573.4321 82.45434 574.77527 83.797485 574.77527 85.45434Z" fill-rule="nonzero"/><path fill="#000000" d="M315.42188 349.45L315.42188 340.85626L318.67188 340.85626Q319.51562 340.85626 319.96875 340.9344Q320.60938 341.04376 321.03125 341.34064Q321.46875 341.6375 321.71875 342.16876Q321.98438 342.7 321.98438 343.34064Q321.98438 344.4344 321.28125 345.2Q320.59375 345.95 318.76562 345.95L316.5625 345.95L316.5625 349.45L315.42188 349.45ZM316.5625 344.95L318.78125 344.95Q319.89062 344.95 320.34375 344.54376Q320.8125 344.1219 320.8125 343.3719Q320.8125 342.84064 320.53125 342.46564Q320.26562 342.075 319.82812 341.95Q319.53125 341.8719 318.76562 341.8719L316.5625 341.8719L316.5625 344.95ZM327.54688 347.45L328.64062 347.575Q328.39062 348.52814 327.6875 349.0594Q326.98438 349.59064 325.90625 349.59064Q324.54688 349.59064 323.73438 348.7469Q322.9375 347.90314 322.9375 346.3875Q322.9375 344.825 323.75 343.96564Q324.5625 343.09064 325.84375 343.09064Q327.09375 343.09064 327.875 343.9344Q328.67188 344.77814 328.67188 346.325Q328.67188 346.41876 328.67188 346.60626L324.03125 346.60626Q324.09375 347.6375 324.60938 348.1844Q325.125 348.71564 325.90625 348.71564Q326.48438 348.71564 326.89062 348.41876Q327.3125 348.10626 327.54688 347.45ZM324.09375 345.7469L327.5625 345.7469Q327.5 344.95 327.17188 344.5594Q326.65625 343.95 325.85938 343.95Q325.125 343.95 324.625 344.4344Q324.14062 344.91876 324.09375 345.7469ZM330.28125 349.45L330.28125 343.23126L331.23438 343.23126L331.23438 344.16876Q331.59375 343.5125 331.89062 343.3094Q332.20312 343.09064 332.57812 343.09064Q333.10938 343.09064 333.65625 343.41876L333.29688 344.40314Q332.90625 344.16876 332.53125 344.16876Q332.17188 344.16876 331.89062 344.3875Q331.625 344.59064 331.51562 344.96564Q331.32812 345.52814 331.32812 346.1844L331.32812 349.45L330.28125 349.45ZM338.35938 347.16876L339.39062 347.3094Q339.21875 348.3719 338.51562 348.98126Q337.8125 349.59064 336.79688 349.59064Q335.51562 349.59064 334.73438 348.7625Q333.96875 347.91876 333.96875 346.35626Q333.96875 345.35626 334.29688 344.60626Q334.64062 343.84064 335.3125 343.46564Q336.0 343.09064 336.8125 343.09064Q337.8125 343.09064 338.45312 343.60626Q339.10938 344.10626 339.29688 345.0594L338.26562 345.21564Q338.125 344.59064 337.75 344.27814Q337.375 343.95 336.84375 343.95Q336.04688 343.95 335.54688 344.52814Q335.04688 345.09064 335.04688 346.325Q335.04688 347.59064 335.53125 348.15314Q336.01562 348.71564 336.78125 348.71564Q337.40625 348.71564 337.8125 348.34064Q338.23438 347.96564 338.35938 347.16876ZM344.54688 347.45L345.64062 347.575Q345.39062 348.52814 344.6875 349.0594Q343.98438 349.59064 342.90625 349.59064Q341.54688 349.59064 340.73438 348.7469Q339.9375 347.90314 339.9375 346.3875Q339.9375 344.825 340.75 343.96564Q341.5625 343.09064 342.84375 343.09064Q344.09375 343.09064 344.875 343.9344Q345.67188 344.77814 345.67188 346.325Q345.67188 346.41876 345.67188 346.60626L341.03125 346.60626Q341.09375 347.6375 341.60938 348.1844Q342.125 348.71564 342.90625 348.71564Q343.48438 348.71564 343.89062 348.41876Q344.3125 348.10626 344.54688 347.45ZM341.09375 345.7469L344.5625 345.7469Q344.5 344.95 344.17188 344.5594Q343.65625 343.95 342.85938 343.95Q342.125 343.95 341.625 344.4344Q341.14062 344.91876 341.09375 345.7469ZM347.29688 349.45L347.29688 343.23126L348.23438 343.23126L348.23438 344.10626Q348.92188 343.09064 350.21875 343.09064Q350.78125 343.09064 351.25 343.29376Q351.73438 343.4969 351.96875 343.825Q352.20312 344.15314 352.29688 344.59064Q352.34375 344.8875 352.34375 345.6219L352.34375 349.45L351.29688 349.45L351.29688 345.66876Q351.29688 345.0125 351.17188 344.7Q351.04688 344.3875 350.73438 344.2Q350.42188 343.9969 350.0 343.9969Q349.32812 343.9969 348.82812 344.4344Q348.34375 344.85626 348.34375 346.04376L348.34375 349.45L347.29688 349.45ZM356.59375 348.5125L356.75 349.4344Q356.29688 349.52814 355.95312 349.52814Q355.375 349.52814 355.0625 349.35626Q354.75 349.16876 354.60938 348.8719Q354.48438 348.575 354.48438 347.6219L354.48438 344.04376L353.71875 344.04376L353.71875 343.23126L354.48438 343.23126L354.48438 341.6844L355.53125 341.0594L355.53125 343.23126L356.59375 343.23126L356.59375 344.04376L355.53125 344.04376L355.53125 347.6844Q355.53125 348.1375 355.57812 348.2625Q355.64062 348.3875 355.76562 348.46564Q355.89062 348.54376 356.125 348.54376Q356.3125 348.54376 356.59375 348.5125ZM357.29688 342.075L357.29688 340.85626L358.35938 340.85626L358.35938 342.075L357.29688 342.075ZM357.29688 349.45L357.29688 343.23126L358.35938 343.23126L358.35938 349.45L357.29688 349.45ZM360.26562 349.45L360.26562 340.85626L361.32812 340.85626L361.32812 349.45L360.26562 349.45ZM367.54688 347.45L368.64062 347.575Q368.39062 348.52814 367.6875 349.0594Q366.98438 349.59064 365.90625 349.59064Q364.54688 349.59064 363.73438 348.7469Q362.9375 347.90314 362.9375 346.3875Q362.9375 344.825 363.75 343.96564Q364.5625 343.09064 365.84375 343.09064Q367.09375 343.09064 367.875 343.9344Q368.67188 344.77814 368.67188 346.325Q368.67188 346.41876 368.67188 346.60626L364.03125 346.60626Q364.09375 347.6375 364.60938 348.1844Q365.125 348.71564 365.90625 348.71564Q366.48438 348.71564 366.89062 348.41876Q367.3125 348.10626 367.54688 347.45ZM364.09375 345.7469L367.5625 345.7469Q367.5 344.95 367.17188 344.5594Q366.65625 343.95 365.85938 343.95Q365.125 343.95 364.625 344.4344Q364.14062 344.91876 364.09375 345.7469Z" fill-rule="nonzero"/><path fill="#000000" d="M26.175013 194.04688L25.175013 194.04688L25.159388 190.42188L28.346888 190.42188Q29.018763 191.25 29.362513 192.14062Q29.690638 193.03125 29.690638 193.96875Q29.690638 195.23438 29.159388 196.28125Q28.612513 197.3125 27.596888 197.84375Q26.565638 198.35938 25.300013 198.35938Q24.034388 198.35938 22.956263 197.84375Q21.862513 197.3125 21.346888 196.32812Q20.815638 195.34375 20.815638 194.0625Q20.815638 193.125 21.112513 192.375Q21.409388 191.625 21.956263 191.20312Q22.487513 190.76562 23.362513 190.54688L23.643763 191.5625Q22.987513 191.76562 22.612513 192.0625Q22.237513 192.34375 22.018763 192.875Q21.784388 193.40625 21.784388 194.04688Q21.784388 194.82812 22.018763 195.40625Q22.253138 195.96875 22.643763 196.32812Q23.034388 196.67188 23.503138 196.85938Q24.300013 197.1875 25.221888 197.1875Q26.378138 197.1875 27.159388 196.79688Q27.925013 196.39062 28.300013 195.64062Q28.675013 194.89062 28.675013 194.03125Q28.675013 193.29688 28.393763 192.59375Q28.096888 191.89062 27.784388 191.53125L26.175013 191.53125L26.175013 194.04688ZM28.784388 185.14062Q29.284388 185.73438 29.487513 186.28125Q29.690638 186.8125 29.690638 187.4375Q29.690638 188.46875 29.190638 189.01562Q28.690638 189.5625 27.909388 189.5625Q27.456263 189.5625 27.081263 189.35938Q26.690638 189.15625 26.471888 188.8125Q26.237513 188.46875 26.128138 188.04688Q26.034388 187.75 25.956263 187.10938Q25.815638 185.84375 25.596888 185.23438Q25.378138 185.23438 25.331263 185.23438Q24.675013 185.23438 24.409388 185.53125Q24.065638 185.9375 24.065638 186.73438Q24.065638 187.46875 24.331263 187.82812Q24.581263 188.1875 25.237513 188.35938L25.096888 189.39062Q24.440638 189.25 24.034388 188.92188Q23.628138 188.59375 23.409388 187.98438Q23.190638 187.375 23.190638 186.57812Q23.190638 185.78125 23.378138 185.28125Q23.565638 184.78125 23.846888 184.54688Q24.128138 184.3125 24.565638 184.21875Q24.831263 184.17188 25.534388 184.17188L26.940638 184.17188Q28.409388 184.17188 28.800013 184.10938Q29.190638 184.03125 29.550013 183.82812L29.550013 184.9375Q29.221888 185.09375 28.784388 185.14062ZM26.425013 185.23438Q26.659388 185.8125 26.831263 186.95312Q26.925013 187.60938 27.050013 187.875Q27.159388 188.14062 27.378138 188.29688Q27.596888 188.4375 27.878138 188.4375Q28.300013 188.4375 28.581263 188.125Q28.862513 187.79688 28.862513 187.1875Q28.862513 186.57812 28.596888 186.10938Q28.331263 185.625 27.862513 185.40625Q27.503138 185.23438 26.815638 185.23438L26.425013 185.23438ZM22.175013 182.20312L20.956263 182.20312L20.956263 181.14062L22.175013 181.14062L22.175013 182.20312ZM29.550013 182.20312L23.331263 182.20312L23.331263 181.14062L29.550013 181.14062L29.550013 182.20312ZM29.550013 179.20312L23.331263 179.20312L23.331263 178.26562L24.206263 178.26562Q23.190638 177.57812 23.190638 176.28125Q23.190638 175.71875 23.393763 175.25Q23.596888 174.76562 23.925013 174.53125Q24.253138 174.29688 24.690638 174.20312Q24.987513 174.15625 25.721888 174.15625L29.550013 174.15625L29.550013 175.20312L25.768763 175.20312Q25.112513 175.20312 24.800013 175.32812Q24.487513 175.45312 24.300013 175.76562Q24.096888 176.07812 24.096888 176.5Q24.096888 177.17188 24.534388 177.67188Q24.956263 178.15625 26.143763 178.15625L29.550013 178.15625L29.550013 179.20312ZM31.940638 169.20312L23.331263 169.20312L23.331263 168.25L24.128138 168.25Q23.659388 167.90625 23.425013 167.48438Q23.190638 167.04688 23.190638 166.4375Q23.190638 165.64062 23.596888 165.03125Q24.003138 164.42188 24.753138 164.125Q25.503138 163.8125 26.393763 163.8125Q27.346888 163.8125 28.112513 164.15625Q28.878138 164.48438 29.284388 165.14062Q29.690638 165.79688 29.690638 166.51562Q29.690638 167.04688 29.471888 167.46875Q29.237513 167.89062 28.909388 168.15625L31.940638 168.15625L31.940638 169.20312ZM26.471888 168.25Q27.675013 168.25 28.253138 167.76562Q28.815638 167.28125 28.815638 166.59375Q28.815638 165.89062 28.221888 165.39062Q27.628138 164.89062 26.378138 164.89062Q25.190638 164.89062 24.612513 165.375Q24.018763 165.85938 24.018763 166.54688Q24.018763 167.21875 24.643763 167.73438Q25.268763 168.25 26.471888 168.25ZM26.440638 162.59375Q24.706263 162.59375 23.878138 161.64062Q23.190638 160.84375 23.190638 159.6875Q23.190638 158.40625 24.034388 157.59375Q24.862513 156.76562 26.346888 156.76562Q27.550013 156.76562 28.237513 157.125Q28.925013 157.48438 29.315638 158.1875Q29.690638 158.875 29.690638 159.6875Q29.690638 160.98438 28.862513 161.79688Q28.018763 162.59375 26.440638 162.59375ZM26.440638 161.51562Q27.628138 161.51562 28.221888 161.0Q28.815638 160.46875 28.815638 159.6875Q28.815638 158.89062 28.221888 158.375Q27.628138 157.85938 26.409388 157.85938Q25.253138 157.85938 24.659388 158.39062Q24.065638 158.90625 24.065638 159.6875Q24.065638 160.46875 24.659388 161.0Q25.237513 161.51562 26.440638 161.51562ZM22.175013 155.20312L20.956263 155.20312L20.956263 154.14062L22.175013 154.14062L22.175013 155.20312ZM29.550013 155.20312L23.331263 155.20312L23.331263 154.14062L29.550013 154.14062L29.550013 155.20312ZM29.550013 148.17188L28.768763 148.17188Q29.690638 148.76562 29.690638 149.90625Q29.690638 150.65625 29.284388 151.28125Q28.862513 151.90625 28.128138 152.25Q27.393763 152.59375 26.440638 152.59375Q25.518763 152.59375 24.753138 152.28125Q23.987513 151.96875 23.596888 151.34375Q23.190638 150.71875 23.190638 149.95312Q23.190638 149.39062 23.425013 148.95312Q23.659388 148.51562 24.034388 148.23438L20.956263 148.23438L20.956263 147.1875L29.550013 147.1875L29.550013 148.17188ZM26.440638 151.5Q27.643763 151.5 28.237513 151.0Q28.815638 150.5 28.815638 149.8125Q28.815638 149.125 28.253138 148.64062Q27.690638 148.15625 26.534388 148.15625Q25.253138 148.15625 24.659388 148.65625Q24.065638 149.14062 24.065638 149.85938Q24.065638 150.5625 24.643763 151.03125Q25.206263 151.5 26.440638 151.5ZM27.690638 145.625L27.534388 144.59375Q28.159388 144.5 28.487513 144.10938Q28.815638 143.70312 28.815638 142.96875Q28.815638 142.25 28.534388 141.90625Q28.237513 141.54688 27.831263 141.54688Q27.471888 141.54688 27.268763 141.85938Q27.128138 142.07812 26.909388 142.9375Q26.612513 144.09375 26.409388 144.54688Q26.190638 144.98438 25.815638 145.21875Q25.440638 145.45312 24.971888 145.45312Q24.565638 145.45312 24.206263 145.26562Q23.846888 145.07812 23.612513 144.75Q23.440638 144.5 23.315638 144.07812Q23.190638 143.65625 23.190638 143.15625Q23.190638 142.4375 23.409388 141.89062Q23.612513 141.32812 23.971888 141.0625Q24.331263 140.79688 24.925013 140.70312L25.065638 141.73438Q24.596888 141.79688 24.331263 142.14062Q24.050013 142.46875 24.050013 143.09375Q24.050013 143.8125 24.300013 144.125Q24.534388 144.4375 24.862513 144.4375Q25.065638 144.4375 25.221888 144.3125Q25.393763 144.17188 25.503138 143.90625Q25.565638 143.75 25.768763 142.96875Q26.081263 141.84375 26.268763 141.40625Q26.456263 140.96875 26.815638 140.71875Q27.175013 140.46875 27.721888 140.46875Q28.253138 140.46875 28.721888 140.78125Q29.175013 141.07812 29.440638 141.65625Q29.690638 142.23438 29.690638 142.96875Q29.690638 144.1875 29.190638 144.82812Q28.675013 145.45312 27.690638 145.625Z" fill-rule="nonzero"/><path fill="#000000" d="M50.925 301.8719L50.925 300.8094L54.175 300.8094L54.175 301.8719L50.925 301.8719ZM55.05 302.2L56.159374 302.10626Q56.284374 302.91876 56.721874 303.325Q57.175 303.73126 57.815624 303.73126Q58.565624 303.73126 59.096874 303.15314Q59.628124 302.575 59.628124 301.6375Q59.628124 300.73126 59.1125 300.21564Q58.6125 299.6844 57.784374 299.6844Q57.284374 299.6844 56.8625 299.91876Q56.45625 300.15314 56.221874 300.5125L55.2375 300.3875L56.065624 295.98126L60.346874 295.98126L60.346874 296.98126L56.909374 296.98126L56.45625 299.29376Q57.221874 298.7469 58.065624 298.7469Q59.190624 298.7469 59.95625 299.52814Q60.7375 300.3094 60.7375 301.54376Q60.7375 302.7 60.065624 303.5594Q59.2375 304.59064 57.815624 304.59064Q56.64375 304.59064 55.89375 303.9344Q55.159374 303.27814 55.05 302.2ZM62.05 300.21564Q62.05 298.6844 62.3625 297.7625Q62.675 296.825 63.284374 296.325Q63.909374 295.825 64.84688 295.825Q65.53438 295.825 66.05 296.10626Q66.58125 296.3875 66.925 296.91876Q67.26875 297.4344 67.45625 298.1844Q67.64375 298.9344 67.64375 300.21564Q67.64375 301.73126 67.33125 302.65314Q67.03438 303.575 66.40938 304.09064Q65.8 304.59064 64.84688 304.59064Q63.6125 304.59064 62.89375 303.7Q62.05 302.6375 62.05 300.21564ZM63.128124 300.21564Q63.128124 302.325 63.628124 303.02814Q64.12813 303.73126 64.84688 303.73126Q65.58125 303.73126 66.06563 303.02814Q66.56563 302.325 66.56563 300.21564Q66.56563 298.09064 66.06563 297.40314Q65.58125 296.7 64.83125 296.7Q64.1125 296.7 63.675 297.3094Q63.128124 298.09064 63.128124 300.21564ZM69.6125 304.45L69.6125 303.2469L70.81563 303.2469L70.81563 304.45Q70.81563 305.10626 70.58125 305.5125Q70.34688 305.9344 69.84688 306.15314L69.55 305.7Q69.87813 305.5594 70.03438 305.2625Q70.19063 304.98126 70.22188 304.45L69.6125 304.45ZM72.05 300.21564Q72.05 298.6844 72.3625 297.7625Q72.675 296.825 73.28438 296.325Q73.90938 295.825 74.84688 295.825Q75.53438 295.825 76.05 296.10626Q76.58125 296.3875 76.925 296.91876Q77.26875 297.4344 77.45625 298.1844Q77.64375 298.9344 77.64375 300.21564Q77.64375 301.73126 77.33125 302.65314Q77.03438 303.575 76.40938 304.09064Q75.8 304.59064 74.84688 304.59064Q73.6125 304.59064 72.89375 303.7Q72.05 302.6375 72.05 300.21564ZM73.12813 300.21564Q73.12813 302.325 73.62813 303.02814Q74.12813 303.73126 74.84688 303.73126Q75.58125 303.73126 76.06563 303.02814Q76.56563 302.325 76.56563 300.21564Q76.56563 298.09064 76.06563 297.40314Q75.58125 296.7 74.83125 296.7Q74.1125 296.7 73.675 297.3094Q73.12813 298.09064 73.12813 300.21564ZM79.05 300.21564Q79.05 298.6844 79.3625 297.7625Q79.675 296.825 80.28438 296.325Q80.90938 295.825 81.84688 295.825Q82.53438 295.825 83.05 296.10626Q83.58125 296.3875 83.925 296.91876Q84.26875 297.4344 84.45625 298.1844Q84.64375 298.9344 84.64375 300.21564Q84.64375 301.73126 84.33125 302.65314Q84.03438 303.575 83.40938 304.09064Q82.8 304.59064 81.84688 304.59064Q80.6125 304.59064 79.89375 303.7Q79.05 302.6375 79.05 300.21564ZM80.12813 300.21564Q80.12813 302.325 80.62813 303.02814Q81.12813 303.73126 81.84688 303.73126Q82.58125 303.73126 83.06563 303.02814Q83.56563 302.325 83.56563 300.21564Q83.56563 298.09064 83.06563 297.40314Q82.58125 296.7 81.83125 296.7Q81.1125 296.7 80.675 297.3094Q80.12813 298.09064 80.12813 300.21564ZM86.25313 297.91876Q86.25313 296.9969 86.70625 296.35626Q87.175 295.71564 88.05 295.71564Q88.8625 295.71564 89.39375 296.29376Q89.925 296.8719 89.925 297.98126Q89.925 299.075 89.37813 299.66876Q88.84688 300.2469 88.06563 300.2469Q87.28438 300.2469 86.76875 299.66876Q86.25313 299.09064 86.25313 297.91876ZM88.08125 296.4344Q87.69063 296.4344 87.425 296.77814Q87.175 297.1219 87.175 298.02814Q87.175 298.85626 87.425 299.2Q87.69063 299.52814 88.08125 299.52814Q88.4875 299.52814 88.7375 299.1844Q89.00313 298.84064 89.00313 297.95Q89.00313 297.10626 88.7375 296.77814Q88.47188 296.4344 88.08125 296.4344ZM88.08125 304.7625L92.78438 295.71564L93.64375 295.71564L88.95625 304.7625L88.08125 304.7625ZM91.8 302.4344Q91.8 301.5125 92.25313 300.8719Q92.72188 300.23126 93.6125 300.23126Q94.425 300.23126 94.95625 300.8094Q95.4875 301.3719 95.4875 302.4969Q95.4875 303.59064 94.94063 304.1844Q94.40938 304.7625 93.6125 304.7625Q92.84688 304.7625 92.31563 304.1844Q91.8 303.60626 91.8 302.4344ZM93.64375 300.95Q93.2375 300.95 92.97188 301.29376Q92.72188 301.6375 92.72188 302.54376Q92.72188 303.35626 92.9875 303.7Q93.25313 304.04376 93.64375 304.04376Q94.03438 304.04376 94.3 303.7Q94.56563 303.35626 94.56563 302.45Q94.56563 301.6219 94.3 301.29376Q94.03438 300.95 93.64375 300.95Z" fill-rule="nonzero"/><path fill="#000000" d="M50.925 233.14688L50.925 232.08438L54.175 232.08438L54.175 233.14688L50.925 233.14688ZM60.596874 234.70938L60.596874 235.725L54.909374 235.725Q54.909374 235.35 55.034374 234.99063Q55.253124 234.4125 55.721874 233.85Q56.20625 233.2875 57.1125 232.55313Q58.51875 231.39688 59.003124 230.725Q59.503124 230.05313 59.503124 229.45938Q59.503124 228.83438 59.05 228.4125Q58.596874 227.975 57.878124 227.975Q57.1125 227.975 56.659374 228.42813Q56.20625 228.88126 56.190624 229.69376L55.1125 229.58438Q55.221874 228.36563 55.940624 227.74063Q56.675 227.1 57.909374 227.1Q59.14375 227.1 59.8625 227.7875Q60.58125 228.475 60.58125 229.49063Q60.58125 230.00626 60.3625 230.50626Q60.159374 230.99063 59.659374 231.55313Q59.175 232.1 58.05 233.05313Q57.096874 233.85 56.815624 234.14688Q56.55 234.42813 56.378124 234.70938L60.596874 234.70938ZM62.05 233.475L63.159374 233.38126Q63.284374 234.19376 63.721874 234.6Q64.175 235.00626 64.81563 235.00626Q65.56563 235.00626 66.09688 234.42813Q66.62813 233.85 66.62813 232.9125Q66.62813 232.00626 66.1125 231.49063Q65.6125 230.95938 64.78438 230.95938Q64.28438 230.95938 63.8625 231.19376Q63.45625 231.42813 63.221874 231.7875L62.2375 231.6625L63.065624 227.25626L67.34688 227.25626L67.34688 228.25626L63.909374 228.25626L63.45625 230.56876Q64.22188 230.02188 65.06563 230.02188Q66.19063 230.02188 66.95625 230.80313Q67.7375 231.58438 67.7375 232.81876Q67.7375 233.975 67.06563 234.83438Q66.2375 235.86563 64.81563 235.86563Q63.64375 235.86563 62.89375 235.20938Q62.159374 234.55313 62.05 233.475ZM69.6125 235.725L69.6125 234.52188L70.81563 234.52188L70.81563 235.725Q70.81563 236.38126 70.58125 236.7875Q70.34688 237.20938 69.84688 237.42813L69.55 236.975Q69.87813 236.83438 70.03438 236.5375Q70.19063 236.25626 70.22188 235.725L69.6125 235.725ZM72.05 231.49063Q72.05 229.95938 72.3625 229.0375Q72.675 228.1 73.28438 227.6Q73.90938 227.1 74.84688 227.1Q75.53438 227.1 76.05 227.38126Q76.58125 227.6625 76.925 228.19376Q77.26875 228.70938 77.45625 229.45938Q77.64375 230.20938 77.64375 231.49063Q77.64375 233.00626 77.33125 233.92813Q77.03438 234.85 76.40938 235.36563Q75.8 235.86563 74.84688 235.86563Q73.6125 235.86563 72.89375 234.975Q72.05 233.9125 72.05 231.49063ZM73.12813 231.49063Q73.12813 233.6 73.62813 234.30313Q74.12813 235.00626 74.84688 235.00626Q75.58125 235.00626 76.06563 234.30313Q76.56563 233.6 76.56563 231.49063Q76.56563 229.36563 76.06563 228.67813Q75.58125 227.975 74.83125 227.975Q74.1125 227.975 73.675 228.58438Q73.12813 229.36563 73.12813 231.49063ZM79.05 231.49063Q79.05 229.95938 79.3625 229.0375Q79.675 228.1 80.28438 227.6Q80.90938 227.1 81.84688 227.1Q82.53438 227.1 83.05 227.38126Q83.58125 227.6625 83.925 228.19376Q84.26875 228.70938 84.45625 229.45938Q84.64375 230.20938 84.64375 231.49063Q84.64375 233.00626 84.33125 233.92813Q84.03438 234.85 83.40938 235.36563Q82.8 235.86563 81.84688 235.86563Q80.6125 235.86563 79.89375 234.975Q79.05 233.9125 79.05 231.49063ZM80.12813 231.49063Q80.12813 233.6 80.62813 234.30313Q81.12813 235.00626 81.84688 235.00626Q82.58125 235.00626 83.06563 234.30313Q83.56563 233.6 83.56563 231.49063Q83.56563 229.36563 83.06563 228.67813Q82.58125 227.975 81.83125 227.975Q81.1125 227.975 80.675 228.58438Q80.12813 229.36563 80.12813 231.49063ZM86.25313 229.19376Q86.25313 228.27188 86.70625 227.63126Q87.175 226.99063 88.05 226.99063Q88.8625 226.99063 89.39375 227.56876Q89.925 228.14688 89.925 229.25626Q89.925 230.35 89.37813 230.94376Q88.84688 231.52188 88.06563 231.52188Q87.28438 231.52188 86.76875 230.94376Q86.25313 230.36563 86.25313 229.19376ZM88.08125 227.70938Q87.69063 227.70938 87.425 228.05313Q87.175 228.39688 87.175 229.30313Q87.175 230.13126 87.425 230.475Q87.69063 230.80313 88.08125 230.80313Q88.4875 230.80313 88.7375 230.45938Q89.00313 230.11563 89.00313 229.225Q89.00313 228.38126 88.7375 228.05313Q88.47188 227.70938 88.08125 227.70938ZM88.08125 236.0375L92.78438 226.99063L93.64375 226.99063L88.95625 236.0375L88.08125 236.0375ZM91.8 233.70938Q91.8 232.7875 92.25313 232.14688Q92.72188 231.50626 93.6125 231.50626Q94.425 231.50626 94.95625 232.08438Q95.4875 232.64688 95.4875 233.77188Q95.4875 234.86563 94.94063 235.45938Q94.40938 236.0375 93.6125 236.0375Q92.84688 236.0375 92.31563 235.45938Q91.8 234.88126 91.8 233.70938ZM93.64375 232.225Q93.2375 232.225 92.97188 232.56876Q92.72188 232.9125 92.72188 233.81876Q92.72188 234.63126 92.9875 234.975Q93.25313 235.31876 93.64375 235.31876Q94.03438 235.31876 94.3 234.975Q94.56563 234.63126 94.56563 233.725Q94.56563 232.89688 94.3 232.56876Q94.03438 232.225 93.64375 232.225Z" fill-rule="nonzero"/><path fill="#000000" d="M62.05 162.76562Q62.05 161.23438 62.3625 160.3125Q62.675 159.375 63.284374 158.875Q63.909374 158.375 64.84688 158.375Q65.53438 158.375 66.05 158.65625Q66.58125 158.9375 66.925 159.46875Q67.26875 159.98438 67.45625 160.73438Q67.64375 161.48438 67.64375 162.76562Q67.64375 164.28125 67.33125 165.20312Q67.03438 166.125 66.40938 166.64062Q65.8 167.14062 64.84688 167.14062Q63.6125 167.14062 62.89375 166.25Q62.05 165.1875 62.05 162.76562ZM63.128124 162.76562Q63.128124 164.875 63.628124 165.57812Q64.12813 166.28125 64.84688 166.28125Q65.58125 166.28125 66.06563 165.57812Q66.56563 164.875 66.56563 162.76562Q66.56563 160.64062 66.06563 159.95312Q65.58125 159.25 64.83125 159.25Q64.1125 159.25 63.675 159.85938Q63.128124 160.64062 63.128124 162.76562ZM69.6125 167.0L69.6125 165.79688L70.81563 165.79688L70.81563 167.0Q70.81563 167.65625 70.58125 168.0625Q70.34688 168.48438 69.84688 168.70312L69.55 168.25Q69.87813 168.10938 70.03438 167.8125Q70.19063 167.53125 70.22188 167.0L69.6125 167.0ZM72.05 162.76562Q72.05 161.23438 72.3625 160.3125Q72.675 159.375 73.28438 158.875Q73.90938 158.375 74.84688 158.375Q75.53438 158.375 76.05 158.65625Q76.58125 158.9375 76.925 159.46875Q77.26875 159.98438 77.45625 160.73438Q77.64375 161.48438 77.64375 162.76562Q77.64375 164.28125 77.33125 165.20312Q77.03438 166.125 76.40938 166.64062Q75.8 167.14062 74.84688 167.14062Q73.6125 167.14062 72.89375 166.25Q72.05 165.1875 72.05 162.76562ZM73.12813 162.76562Q73.12813 164.875 73.62813 165.57812Q74.12813 166.28125 74.84688 166.28125Q75.58125 166.28125 76.06563 165.57812Q76.56563 164.875 76.56563 162.76562Q76.56563 160.64062 76.06563 159.95312Q75.58125 159.25 74.83125 159.25Q74.1125 159.25 73.675 159.85938Q73.12813 160.64062 73.12813 162.76562ZM79.05 162.76562Q79.05 161.23438 79.3625 160.3125Q79.675 159.375 80.28438 158.875Q80.90938 158.375 81.84688 158.375Q82.53438 158.375 83.05 158.65625Q83.58125 158.9375 83.925 159.46875Q84.26875 159.98438 84.45625 160.73438Q84.64375 161.48438 84.64375 162.76562Q84.64375 164.28125 84.33125 165.20312Q84.03438 166.125 83.40938 166.64062Q82.8 167.14062 81.84688 167.14062Q80.6125 167.14062 79.89375 166.25Q79.05 165.1875 79.05 162.76562ZM80.12813 162.76562Q80.12813 164.875 80.62813 165.57812Q81.12813 166.28125 81.84688 166.28125Q82.58125 166.28125 83.06563 165.57812Q83.56563 164.875 83.56563 162.76562Q83.56563 160.64062 83.06563 159.95312Q82.58125 159.25 81.83125 159.25Q81.1125 159.25 80.675 159.85938Q80.12813 160.64062 80.12813 162.76562ZM86.25313 160.46875Q86.25313 159.54688 86.70625 158.90625Q87.175 158.26562 88.05 158.26562Q88.8625 158.26562 89.39375 158.84375Q89.925 159.42188 89.925 160.53125Q89.925 161.625 89.37813 162.21875Q88.84688 162.79688 88.06563 162.79688Q87.28438 162.79688 86.76875 162.21875Q86.25313 161.64062 86.25313 160.46875ZM88.08125 158.98438Q87.69063 158.98438 87.425 159.32812Q87.175 159.67188 87.175 160.57812Q87.175 161.40625 87.425 161.75Q87.69063 162.07812 88.08125 162.07812Q88.4875 162.07812 88.7375 161.73438Q89.00313 161.39062 89.00313 160.5Q89.00313 159.65625 88.7375 159.32812Q88.47188 158.98438 88.08125 158.98438ZM88.08125 167.3125L92.78438 158.26562L93.64375 158.26562L88.95625 167.3125L88.08125 167.3125ZM91.8 164.98438Q91.8 164.0625 92.25313 163.42188Q92.72188 162.78125 93.6125 162.78125Q94.425 162.78125 94.95625 163.35938Q95.4875 163.92188 95.4875 165.04688Q95.4875 166.14062 94.94063 166.73438Q94.40938 167.3125 93.6125 167.3125Q92.84688 167.3125 92.31563 166.73438Q91.8 166.15625 91.8 164.98438ZM93.64375 163.5Q93.2375 163.5 92.97188 163.84375Q92.72188 164.1875 92.72188 165.09375Q92.72188 165.90625 92.9875 166.25Q93.25313 166.59375 93.64375 166.59375Q94.03438 166.59375 94.3 166.25Q94.56563 165.90625 94.56563 165.0Q94.56563 164.17188 94.3 163.84375Q94.03438 163.5 93.64375 163.5Z" fill-rule="nonzero"/><path fill="#000000" d="M60.596874 97.25938L60.596874 98.275L54.909374 98.275Q54.909374 97.9 55.034374 97.54063Q55.253124 96.9625 55.721874 96.4Q56.20625 95.8375 57.1125 95.10313Q58.51875 93.94688 59.003124 93.275Q59.503124 92.60313 59.503124 92.00938Q59.503124 91.38438 59.05 90.9625Q58.596874 90.525 57.878124 90.525Q57.1125 90.525 56.659374 90.97813Q56.20625 91.43125 56.190624 92.24375L55.1125 92.13438Q55.221874 90.91563 55.940624 90.29063Q56.675 89.65 57.909374 89.65Q59.14375 89.65 59.8625 90.3375Q60.58125 91.025 60.58125 92.04063Q60.58125 92.55625 60.3625 93.05625Q60.159374 93.54063 59.659374 94.10313Q59.175 94.65 58.05 95.60313Q57.096874 96.4 56.815624 96.69688Q56.55 96.97813 56.378124 97.25938L60.596874 97.25938ZM62.05 96.025L63.159374 95.93125Q63.284374 96.74375 63.721874 97.15Q64.175 97.55625 64.81563 97.55625Q65.56563 97.55625 66.09688 96.97813Q66.62813 96.4 66.62813 95.4625Q66.62813 94.55625 66.1125 94.04063Q65.6125 93.50938 64.78438 93.50938Q64.28438 93.50938 63.8625 93.74375Q63.45625 93.97813 63.221874 94.3375L62.2375 94.2125L63.065624 89.80625L67.34688 89.80625L67.34688 90.80625L63.909374 90.80625L63.45625 93.11875Q64.22188 92.57188 65.06563 92.57188Q66.19063 92.57188 66.95625 93.35313Q67.7375 94.13438 67.7375 95.36875Q67.7375 96.525 67.06563 97.38438Q66.2375 98.41563 64.81563 98.41563Q63.64375 98.41563 62.89375 97.75938Q62.159374 97.10313 62.05 96.025ZM69.6125 98.275L69.6125 97.07188L70.81563 97.07188L70.81563 98.275Q70.81563 98.93125 70.58125 99.3375Q70.34688 99.75938 69.84688 99.97813L69.55 99.525Q69.87813 99.38438 70.03438 99.0875Q70.19063 98.80625 70.22188 98.275L69.6125 98.275ZM72.05 94.04063Q72.05 92.50938 72.3625 91.5875Q72.675 90.65 73.28438 90.15Q73.90938 89.65 74.84688 89.65Q75.53438 89.65 76.05 89.93125Q76.58125 90.2125 76.925 90.74375Q77.26875 91.25938 77.45625 92.00938Q77.64375 92.75938 77.64375 94.04063Q77.64375 95.55625 77.33125 96.47813Q77.03438 97.4 76.40938 97.91563Q75.8 98.41563 74.84688 98.41563Q73.6125 98.41563 72.89375 97.525Q72.05 96.4625 72.05 94.04063ZM73.12813 94.04063Q73.12813 96.15 73.62813 96.85313Q74.12813 97.55625 74.84688 97.55625Q75.58125 97.55625 76.06563 96.85313Q76.56563 96.15 76.56563 94.04063Q76.56563 91.91563 76.06563 91.22813Q75.58125 90.525 74.83125 90.525Q74.1125 90.525 73.675 91.13438Q73.12813 91.91563 73.12813 94.04063ZM79.05 94.04063Q79.05 92.50938 79.3625 91.5875Q79.675 90.65 80.28438 90.15Q80.90938 89.65 81.84688 89.65Q82.53438 89.65 83.05 89.93125Q83.58125 90.2125 83.925 90.74375Q84.26875 91.25938 84.45625 92.00938Q84.64375 92.75938 84.64375 94.04063Q84.64375 95.55625 84.33125 96.47813Q84.03438 97.4 83.40938 97.91563Q82.8 98.41563 81.84688 98.41563Q80.6125 98.41563 79.89375 97.525Q79.05 96.4625 79.05 94.04063ZM80.12813 94.04063Q80.12813 96.15 80.62813 96.85313Q81.12813 97.55625 81.84688 97.55625Q82.58125 97.55625 83.06563 96.85313Q83.56563 96.15 83.56563 94.04063Q83.56563 91.91563 83.06563 91.22813Q82.58125 90.525 81.83125 90.525Q81.1125 90.525 80.675 91.13438Q80.12813 91.91563 80.12813 94.04063ZM86.25313 91.74375Q86.25313 90.82188 86.70625 90.18125Q87.175 89.54063 88.05 89.54063Q88.8625 89.54063 89.39375 90.11875Q89.925 90.69688 89.925 91.80625Q89.925 92.9 89.37813 93.49375Q88.84688 94.07188 88.06563 94.07188Q87.28438 94.07188 86.76875 93.49375Q86.25313 92.91563 86.25313 91.74375ZM88.08125 90.25938Q87.69063 90.25938 87.425 90.60313Q87.175 90.94688 87.175 91.85313Q87.175 92.68125 87.425 93.025Q87.69063 93.35313 88.08125 93.35313Q88.4875 93.35313 88.7375 93.00938Q89.00313 92.66563 89.00313 91.775Q89.00313 90.93125 88.7375 90.60313Q88.47188 90.25938 88.08125 90.25938ZM88.08125 98.5875L92.78438 89.54063L93.64375 89.54063L88.95625 98.5875L88.08125 98.5875ZM91.8 96.25938Q91.8 95.3375 92.25313 94.69688Q92.72188 94.05625 93.6125 94.05625Q94.425 94.05625 94.95625 94.63438Q95.4875 95.19688 95.4875 96.32188Q95.4875 97.41563 94.94063 98.00938Q94.40938 98.5875 93.6125 98.5875Q92.84688 98.5875 92.31563 98.00938Q91.8 97.43125 91.8 96.25938ZM93.64375 94.775Q93.2375 94.775 92.97188 95.11875Q92.72188 95.4625 92.72188 96.36875Q92.72188 97.18125 92.9875 97.525Q93.25313 97.86875 93.64375 97.86875Q94.03438 97.86875 94.3 97.525Q94.56563 97.18125 94.56563 96.275Q94.56563 95.44688 94.3 95.11875Q94.03438 94.775 93.64375 94.775Z" fill-rule="nonzero"/><path fill="#000000" d="M55.05 27.3L56.159374 27.20625Q56.284374 28.01875 56.721874 28.425Q57.175 28.83125 57.815624 28.83125Q58.565624 28.83125 59.096874 28.253124Q59.628124 27.675 59.628124 26.7375Q59.628124 25.83125 59.1125 25.315624Q58.6125 24.784374 57.784374 24.784374Q57.284374 24.784374 56.8625 25.01875Q56.45625 25.253124 56.221874 25.6125L55.2375 25.4875L56.065624 21.08125L60.346874 21.08125L60.346874 22.08125L56.909374 22.08125L56.45625 24.39375Q57.221874 23.846874 58.065624 23.846874Q59.190624 23.846874 59.95625 24.628124Q60.7375 25.409374 60.7375 26.64375Q60.7375 27.8 60.065624 28.659374Q59.2375 29.690624 57.815624 29.690624Q56.64375 29.690624 55.89375 29.034374Q55.159374 28.378124 55.05 27.3ZM62.05 25.315624Q62.05 23.784374 62.3625 22.8625Q62.675 21.925 63.284374 21.425Q63.909374 20.925 64.84688 20.925Q65.53438 20.925 66.05 21.20625Q66.58125 21.4875 66.925 22.01875Q67.26875 22.534374 67.45625 23.284374Q67.64375 24.034374 67.64375 25.315624Q67.64375 26.83125 67.33125 27.753124Q67.03438 28.675 66.40938 29.190624Q65.8 29.690624 64.84688 29.690624Q63.6125 29.690624 62.89375 28.8Q62.05 27.7375 62.05 25.315624ZM63.128124 25.315624Q63.128124 27.425 63.628124 28.128124Q64.12813 28.83125 64.84688 28.83125Q65.58125 28.83125 66.06563 28.128124Q66.56563 27.425 66.56563 25.315624Q66.56563 23.190624 66.06563 22.503124Q65.58125 21.8 64.83125 21.8Q64.1125 21.8 63.675 22.409374Q63.128124 23.190624 63.128124 25.315624ZM69.6125 29.55L69.6125 28.346874L70.81563 28.346874L70.81563 29.55Q70.81563 30.20625 70.58125 30.6125Q70.34688 31.034374 69.84688 31.253124L69.55 30.8Q69.87813 30.659374 70.03438 30.3625Q70.19063 30.08125 70.22188 29.55L69.6125 29.55ZM72.05 25.315624Q72.05 23.784374 72.3625 22.8625Q72.675 21.925 73.28438 21.425Q73.90938 20.925 74.84688 20.925Q75.53438 20.925 76.05 21.20625Q76.58125 21.4875 76.925 22.01875Q77.26875 22.534374 77.45625 23.284374Q77.64375 24.034374 77.64375 25.315624Q77.64375 26.83125 77.33125 27.753124Q77.03438 28.675 76.40938 29.190624Q75.8 29.690624 74.84688 29.690624Q73.6125 29.690624 72.89375 28.8Q72.05 27.7375 72.05 25.315624ZM73.12813 25.315624Q73.12813 27.425 73.62813 28.128124Q74.12813 28.83125 74.84688 28.83125Q75.58125 28.83125 76.06563 28.128124Q76.56563 27.425 76.56563 25.315624Q76.56563 23.190624 76.06563 22.503124Q75.58125 21.8 74.83125 21.8Q74.1125 21.8 73.675 22.409374Q73.12813 23.190624 73.12813 25.315624ZM79.05 25.315624Q79.05 23.784374 79.3625 22.8625Q79.675 21.925 80.28438 21.425Q80.90938 20.925 81.84688 20.925Q82.53438 20.925 83.05 21.20625Q83.58125 21.4875 83.925 22.01875Q84.26875 22.534374 84.45625 23.284374Q84.64375 24.034374 84.64375 25.315624Q84.64375 26.83125 84.33125 27.753124Q84.03438 28.675 83.40938 29.190624Q82.8 29.690624 81.84688 29.690624Q80.6125 29.690624 79.89375 28.8Q79.05 27.7375 79.05 25.315624ZM80.12813 25.315624Q80.12813 27.425 80.62813 28.128124Q81.12813 28.83125 81.84688 28.83125Q82.58125 28.83125 83.06563 28.128124Q83.56563 27.425 83.56563 25.315624Q83.56563 23.190624 83.06563 22.503124Q82.58125 21.8 81.83125 21.8Q81.1125 21.8 80.675 22.409374Q80.12813 23.190624 80.12813 25.315624ZM86.25313 23.01875Q86.25313 22.096874 86.70625 21.45625Q87.175 20.815624 88.05 20.815624Q88.8625 20.815624 89.39375 21.39375Q89.925 21.971874 89.925 23.08125Q89.925 24.175 89.37813 24.76875Q88.84688 25.346874 88.06563 25.346874Q87.28438 25.346874 86.76875 24.76875Q86.25313 24.190624 86.25313 23.01875ZM88.08125 21.534374Q87.69063 21.534374 87.425 21.878124Q87.175 22.221874 87.175 23.128124Q87.175 23.95625 87.425 24.3Q87.69063 24.628124 88.08125 24.628124Q88.4875 24.628124 88.7375 24.284374Q89.00313 23.940624 89.00313 23.05Q89.00313 22.20625 88.7375 21.878124Q88.47188 21.534374 88.08125 21.534374ZM88.08125 29.8625L92.78438 20.815624L93.64375 20.815624L88.95625 29.8625L88.08125 29.8625ZM91.8 27.534374Q91.8 26.6125 92.25313 25.971874Q92.72188 25.33125 93.6125 25.33125Q94.425 25.33125 94.95625 25.909374Q95.4875 26.471874 95.4875 27.596874Q95.4875 28.690624 94.94063 29.284374Q94.40938 29.8625 93.6125 29.8625Q92.84688 29.8625 92.31563 29.284374Q91.8 28.70625 91.8 27.534374ZM93.64375 26.05Q93.2375 26.05 92.97188 26.39375Q92.72188 26.7375 92.72188 27.64375Q92.72188 28.45625 92.9875 28.8Q93.25313 29.14375 93.64375 29.14375Q94.03438 29.14375 94.3 28.8Q94.56563 28.45625 94.56563 27.55Q94.56563 26.721874 94.3 26.39375Q94.03438 26.05 93.64375 26.05Z" fill-rule="nonzero"/><path fill="#000000" d="M143.55511 317.45L142.50824 317.45L142.50824 310.73126Q142.11761 311.09064 141.49261 311.46564Q140.88324 311.825 140.39886 311.9969L140.39886 310.98126Q141.27386 310.5594 141.93011 309.98126Q142.60199 309.3875 142.88324 308.825L143.55511 308.825L143.55511 317.45ZM146.58636 313.21564Q146.58636 311.6844 146.89886 310.7625Q147.21136 309.825 147.82074 309.325Q148.44574 308.825 149.38324 308.825Q150.07074 308.825 150.58636 309.10626Q151.11761 309.3875 151.46136 309.91876Q151.80511 310.4344 151.99261 311.1844Q152.18011 311.9344 152.18011 313.21564Q152.18011 314.73126 151.86761 315.65314Q151.57074 316.575 150.94574 317.09064Q150.33636 317.59064 149.38324 317.59064Q148.14886 317.59064 147.43011 316.7Q146.58636 315.6375 146.58636 313.21564ZM147.66449 313.21564Q147.66449 315.325 148.16449 316.02814Q148.66449 316.73126 149.38324 316.73126Q150.11761 316.73126 150.60199 316.02814Q151.10199 315.325 151.10199 313.21564Q151.10199 311.09064 150.60199 310.40314Q150.11761 309.7 149.36761 309.7Q148.64886 309.7 148.21136 310.3094Q147.66449 311.09064 147.66449 313.21564Z" fill-rule="nonzero"/><path fill="#000000" d="M193.50697 316.4344L193.50697 317.45L187.81947 317.45Q187.81947 317.075 187.94447 316.71564Q188.16322 316.1375 188.63197 315.575Q189.11635 315.0125 190.0226 314.27814Q191.42885 313.1219 191.91322 312.45Q192.41322 311.77814 192.41322 311.1844Q192.41322 310.5594 191.9601 310.1375Q191.50697 309.7 190.78822 309.7Q190.0226 309.7 189.56947 310.15314Q189.11635 310.60626 189.10072 311.41876L188.0226 311.3094Q188.13197 310.09064 188.85072 309.46564Q189.5851 308.825 190.81947 308.825Q192.05385 308.825 192.7726 309.5125Q193.49135 310.2 193.49135 311.21564Q193.49135 311.73126 193.2726 312.23126Q193.06947 312.71564 192.56947 313.27814Q192.0851 313.825 190.9601 314.77814Q190.00697 315.575 189.72572 315.8719Q189.4601 316.15314 189.28822 316.4344L193.50697 316.4344ZM194.9601 313.21564Q194.9601 311.6844 195.2726 310.7625Q195.5851 309.825 196.19447 309.325Q196.81947 308.825 197.75697 308.825Q198.44447 308.825 198.9601 309.10626Q199.49135 309.3875 199.8351 309.91876Q200.17885 310.4344 200.36635 311.1844Q200.55385 311.9344 200.55385 313.21564Q200.55385 314.73126 200.24135 315.65314Q199.94447 316.575 199.31947 317.09064Q198.7101 317.59064 197.75697 317.59064Q196.5226 317.59064 195.80385 316.7Q194.9601 315.6375 194.9601 313.21564ZM196.03822 313.21564Q196.03822 315.325 196.53822 316.02814Q197.03822 316.73126 197.75697 316.73126Q198.49135 316.73126 198.97572 316.02814Q199.47572 315.325 199.47572 313.21564Q199.47572 311.09064 198.97572 310.40314Q198.49135 309.7 197.74135 309.7Q197.0226 309.7 196.5851 310.3094Q196.03822 311.09064 196.03822 313.21564Z" fill-rule="nonzero"/><path fill="#000000" d="M236.33383 315.1844L237.39633 315.04376Q237.5682 315.9344 238.0057 316.34064Q238.4432 316.73126 239.0682 316.73126Q239.8182 316.73126 240.33383 316.21564Q240.84946 315.7 240.84946 314.9344Q240.84946 314.21564 240.36508 313.7469Q239.89633 313.2625 239.16196 313.2625Q238.86508 313.2625 238.41196 313.3875L238.53696 312.45Q238.64633 312.46564 238.70883 312.46564Q239.3807 312.46564 239.91196 312.1219Q240.45883 311.7625 240.45883 311.02814Q240.45883 310.45 240.0682 310.075Q239.67758 309.6844 239.05258 309.6844Q238.4432 309.6844 238.02133 310.075Q237.61508 310.46564 237.5057 311.23126L236.4432 311.04376Q236.6307 309.9969 237.3182 309.41876Q238.0057 308.825 239.02133 308.825Q239.72446 308.825 240.3182 309.1375Q240.91196 309.4344 241.22446 309.95Q241.53696 310.46564 241.53696 311.0594Q241.53696 311.60626 241.24008 312.075Q240.9432 312.52814 240.36508 312.79376Q241.11508 312.96564 241.53696 313.52814Q241.95883 314.075 241.95883 314.91876Q241.95883 316.04376 241.1307 316.825Q240.3182 317.60626 239.0682 317.60626Q237.9432 317.60626 237.1932 316.9344Q236.4432 316.2469 236.33383 315.1844ZM243.33383 313.21564Q243.33383 311.6844 243.64633 310.7625Q243.95883 309.825 244.5682 309.325Q245.1932 308.825 246.1307 308.825Q246.8182 308.825 247.33383 309.10626Q247.86508 309.3875 248.20883 309.91876Q248.55258 310.4344 248.74008 311.1844Q248.92758 311.9344 248.92758 313.21564Q248.92758 314.73126 248.61508 315.65314Q248.3182 316.575 247.6932 317.09064Q247.08383 317.59064 246.1307 317.59064Q244.89633 317.59064 244.17758 316.7Q243.33383 315.6375 243.33383 313.21564ZM244.41196 313.21564Q244.41196 315.325 244.91196 316.02814Q245.41196 316.73126 246.1307 316.73126Q246.86508 316.73126 247.34946 316.02814Q247.84946 315.325 247.84946 313.21564Q247.84946 311.09064 247.34946 310.40314Q246.86508 309.7 246.11508 309.7Q245.39633 309.7 244.95883 310.3094Q244.41196 311.09064 244.41196 313.21564Z" fill-rule="nonzero"/><path fill="#000000" d="M288.08258 317.45L288.08258 315.3875L284.36383 315.3875L284.36383 314.41876L288.2857 308.85626L289.14508 308.85626L289.14508 314.41876L290.30133 314.41876L290.30133 315.3875L289.14508 315.3875L289.14508 317.45L288.08258 317.45ZM288.08258 314.41876L288.08258 310.5594L285.39508 314.41876L288.08258 314.41876ZM291.70758 313.21564Q291.70758 311.6844 292.02008 310.7625Q292.33258 309.825 292.94196 309.325Q293.56696 308.825 294.50446 308.825Q295.19196 308.825 295.70758 309.10626Q296.23883 309.3875 296.58258 309.91876Q296.92633 310.4344 297.11383 311.1844Q297.30133 311.9344 297.30133 313.21564Q297.30133 314.73126 296.98883 315.65314Q296.69196 316.575 296.06696 317.09064Q295.45758 317.59064 294.50446 317.59064Q293.27008 317.59064 292.55133 316.7Q291.70758 315.6375 291.70758 313.21564ZM292.7857 313.21564Q292.7857 315.325 293.2857 316.02814Q293.7857 316.73126 294.50446 316.73126Q295.23883 316.73126 295.7232 316.02814Q296.2232 315.325 296.2232 313.21564Q296.2232 311.09064 295.7232 310.40314Q295.23883 309.7 294.48883 309.7Q293.77008 309.7 293.33258 310.3094Q292.7857 311.09064 292.7857 313.21564Z" fill-rule="nonzero"/><path fill="#000000" d="M333.0813 315.2L334.19067 315.10626Q334.31567 315.91876 334.75317 316.325Q335.2063 316.73126 335.84692 316.73126Q336.59692 316.73126 337.12817 316.15314Q337.65942 315.575 337.65942 314.6375Q337.65942 313.73126 337.1438 313.21564Q336.6438 312.6844 335.81567 312.6844Q335.31567 312.6844 334.8938 312.91876Q334.48755 313.15314 334.25317 313.5125L333.2688 313.3875L334.09692 308.98126L338.37817 308.98126L338.37817 309.98126L334.94067 309.98126L334.48755 312.29376Q335.25317 311.7469 336.09692 311.7469Q337.22192 311.7469 337.98755 312.52814Q338.7688 313.3094 338.7688 314.54376Q338.7688 315.7 338.09692 316.5594Q337.2688 317.59064 335.84692 317.59064Q334.67505 317.59064 333.92505 316.9344Q333.19067 316.27814 333.0813 315.2ZM340.0813 313.21564Q340.0813 311.6844 340.3938 310.7625Q340.7063 309.825 341.31567 309.325Q341.94067 308.825 342.87817 308.825Q343.56567 308.825 344.0813 309.10626Q344.61255 309.3875 344.9563 309.91876Q345.30005 310.4344 345.48755 311.1844Q345.67505 311.9344 345.67505 313.21564Q345.67505 314.73126 345.36255 315.65314Q345.06567 316.575 344.44067 317.09064Q343.8313 317.59064 342.87817 317.59064Q341.6438 317.59064 340.92505 316.7Q340.0813 315.6375 340.0813 313.21564ZM341.15942 313.21564Q341.15942 315.325 341.65942 316.02814Q342.15942 316.73126 342.87817 316.73126Q343.61255 316.73126 344.09692 316.02814Q344.59692 315.325 344.59692 313.21564Q344.59692 311.09064 344.09692 310.40314Q343.61255 309.7 342.86255 309.7Q342.1438 309.7 341.7063 310.3094Q341.15942 311.09064 341.15942 313.21564Z" fill-rule="nonzero"/><path fill="#000000" d="M386.9238 310.96564L385.87692 311.04376Q385.7363 310.41876 385.4863 310.1375Q385.0488 309.6844 384.4238 309.6844Q383.9238 309.6844 383.53317 309.96564Q383.0488 310.34064 382.75192 311.04376Q382.47067 311.73126 382.45505 313.0125Q382.83005 312.4344 383.37692 312.15314Q383.93942 311.8719 384.5488 311.8719Q385.59567 311.8719 386.33005 312.65314Q387.08005 313.4344 387.08005 314.65314Q387.08005 315.46564 386.72067 316.16876Q386.37692 316.85626 385.76755 317.23126Q385.15817 317.59064 384.39255 317.59064Q383.06442 317.59064 382.2363 316.6219Q381.40817 315.65314 381.40817 313.4344Q381.40817 310.9344 382.33005 309.8094Q383.12692 308.825 384.4863 308.825Q385.50192 308.825 386.14255 309.40314Q386.7988 309.96564 386.9238 310.96564ZM382.62692 314.66876Q382.62692 315.21564 382.84567 315.71564Q383.08005 316.2 383.4863 316.46564Q383.90817 316.73126 384.37692 316.73126Q385.03317 316.73126 385.51755 316.2Q386.00192 315.65314 386.00192 314.73126Q386.00192 313.84064 385.51755 313.325Q385.0488 312.8094 384.33005 312.8094Q383.6113 312.8094 383.1113 313.325Q382.62692 313.84064 382.62692 314.66876ZM388.45505 313.21564Q388.45505 311.6844 388.76755 310.7625Q389.08005 309.825 389.68942 309.325Q390.31442 308.825 391.25192 308.825Q391.93942 308.825 392.45505 309.10626Q392.9863 309.3875 393.33005 309.91876Q393.6738 310.4344 393.8613 311.1844Q394.0488 311.9344 394.0488 313.21564Q394.0488 314.73126 393.7363 315.65314Q393.43942 316.575 392.81442 317.09064Q392.20505 317.59064 391.25192 317.59064Q390.01755 317.59064 389.2988 316.7Q388.45505 315.6375 388.45505 313.21564ZM389.53317 313.21564Q389.53317 315.325 390.03317 316.02814Q390.53317 316.73126 391.25192 316.73126Q391.9863 316.73126 392.47067 316.02814Q392.97067 315.325 392.97067 313.21564Q392.97067 311.09064 392.47067 310.40314Q391.9863 309.7 391.2363 309.7Q390.51755 309.7 390.08005 310.3094Q389.53317 311.09064 389.53317 313.21564Z" fill-rule="nonzero"/><path fill="#000000" d="M429.8913 309.98126L429.8913 308.96564L435.4538 308.96564L435.4538 309.79376Q434.6413 310.66876 433.8288 312.1219Q433.03192 313.5594 432.59442 315.09064Q432.2663 316.16876 432.18817 317.45L431.09442 317.45Q431.11005 316.4344 431.48505 314.9969Q431.87567 313.5594 432.5788 312.23126Q433.29755 310.90314 434.11005 309.98126L429.8913 309.98126ZM436.8288 313.21564Q436.8288 311.6844 437.1413 310.7625Q437.4538 309.825 438.06317 309.325Q438.68817 308.825 439.62567 308.825Q440.31317 308.825 440.8288 309.10626Q441.36005 309.3875 441.7038 309.91876Q442.04755 310.4344 442.23505 311.1844Q442.42255 311.9344 442.42255 313.21564Q442.42255 314.73126 442.11005 315.65314Q441.81317 316.575 441.18817 317.09064Q440.5788 317.59064 439.62567 317.59064Q438.3913 317.59064 437.67255 316.7Q436.8288 315.6375 436.8288 313.21564ZM437.90692 313.21564Q437.90692 315.325 438.40692 316.02814Q438.90692 316.73126 439.62567 316.73126Q440.36005 316.73126 440.84442 316.02814Q441.34442 315.325 441.34442 313.21564Q441.34442 311.09064 440.84442 310.40314Q440.36005 309.7 439.61005 309.7Q438.8913 309.7 438.4538 310.3094Q437.90692 311.09064 437.90692 313.21564Z" fill-rule="nonzero"/><path fill="#000000" d="M479.8275 312.79376Q479.17126 312.54376 478.84314 312.10626Q478.53064 311.65314 478.53064 311.04376Q478.53064 310.10626 479.2025 309.46564Q479.89 308.825 480.9994 308.825Q482.1244 308.825 482.8119 309.48126Q483.4994 310.1375 483.4994 311.075Q483.4994 311.66876 483.1869 312.10626Q482.8744 312.54376 482.23376 312.79376Q483.03064 313.04376 483.4369 313.6219Q483.84314 314.2 483.84314 314.9969Q483.84314 316.09064 483.0619 316.84064Q482.29626 317.59064 481.015 317.59064Q479.7494 317.59064 478.96814 316.84064Q478.1869 316.09064 478.1869 314.96564Q478.1869 314.1219 478.60876 313.5594Q479.04626 312.9969 479.8275 312.79376ZM479.60876 310.9969Q479.60876 311.60626 479.9994 311.9969Q480.40564 312.3875 481.03064 312.3875Q481.64 312.3875 482.03064 312.0125Q482.42126 311.6219 482.42126 311.0594Q482.42126 310.48126 482.015 310.09064Q481.60876 309.6844 481.015 309.6844Q480.40564 309.6844 479.9994 310.075Q479.60876 310.46564 479.60876 310.9969ZM479.28064 314.96564Q479.28064 315.41876 479.48376 315.84064Q479.7025 316.2625 480.1244 316.4969Q480.54626 316.73126 481.03064 316.73126Q481.78064 316.73126 482.265 316.2469Q482.765 315.7625 482.765 315.0125Q482.765 314.2469 482.265 313.7469Q481.765 313.2469 480.9994 313.2469Q480.2494 313.2469 479.765 313.7469Q479.28064 314.23126 479.28064 314.96564ZM485.2025 313.21564Q485.2025 311.6844 485.515 310.7625Q485.8275 309.825 486.4369 309.325Q487.0619 308.825 487.9994 308.825Q488.6869 308.825 489.2025 309.10626Q489.73376 309.3875 490.0775 309.91876Q490.42126 310.4344 490.60876 311.1844Q490.79626 311.9344 490.79626 313.21564Q490.79626 314.73126 490.48376 315.65314Q490.1869 316.575 489.5619 317.09064Q488.9525 317.59064 487.9994 317.59064Q486.765 317.59064 486.04626 316.7Q485.2025 315.6375 485.2025 313.21564ZM486.28064 313.21564Q486.28064 315.325 486.78064 316.02814Q487.28064 316.73126 487.9994 316.73126Q488.73376 316.73126 489.21814 316.02814Q489.71814 315.325 489.71814 313.21564Q489.71814 311.09064 489.21814 310.40314Q488.73376 309.7 487.98376 309.7Q487.265 309.7 486.8275 310.3094Q486.28064 311.09064 486.28064 313.21564Z" fill-rule="nonzero"/><path fill="#000000" d="M526.7325 315.46564L527.7481 315.3719Q527.8731 316.09064 528.2325 316.41876Q528.6075 316.73126 529.17 316.73126Q529.65436 316.73126 530.01373 316.5125Q530.38873 316.27814 530.6231 315.91876Q530.8575 315.54376 531.01373 314.91876Q531.17 314.27814 531.17 313.6219Q531.17 313.54376 531.17 313.40314Q530.8575 313.90314 530.3106 314.23126Q529.76373 314.54376 529.1231 314.54376Q528.045 314.54376 527.3106 313.77814Q526.57623 312.9969 526.57623 311.73126Q526.57623 310.41876 527.34186 309.6219Q528.1231 308.825 529.27936 308.825Q530.1075 308.825 530.795 309.27814Q531.4981 309.73126 531.8575 310.575Q532.21686 311.40314 532.21686 312.98126Q532.21686 314.6219 531.8575 315.60626Q531.51373 316.575 530.795 317.09064Q530.09186 317.59064 529.15436 317.59064Q528.13873 317.59064 527.4981 317.04376Q526.8575 316.48126 526.7325 315.46564ZM531.045 311.66876Q531.045 310.7625 530.5606 310.23126Q530.09186 309.7 529.40436 309.7Q528.70123 309.7 528.17 310.27814Q527.65436 310.84064 527.65436 311.7625Q527.65436 312.575 528.15436 313.09064Q528.65436 313.60626 529.3731 313.60626Q530.1075 313.60626 530.57623 313.09064Q531.045 312.575 531.045 311.66876ZM533.57623 313.21564Q533.57623 311.6844 533.88873 310.7625Q534.20123 309.825 534.8106 309.325Q535.4356 308.825 536.3731 308.825Q537.0606 308.825 537.57623 309.10626Q538.1075 309.3875 538.45123 309.91876Q538.795 310.4344 538.9825 311.1844Q539.17 311.9344 539.17 313.21564Q539.17 314.73126 538.8575 315.65314Q538.5606 316.575 537.9356 317.09064Q537.32623 317.59064 536.3731 317.59064Q535.13873 317.59064 534.42 316.7Q533.57623 315.6375 533.57623 313.21564ZM534.65436 313.21564Q534.65436 315.325 535.15436 316.02814Q535.65436 316.73126 536.3731 316.73126Q537.1075 316.73126 537.59186 316.02814Q538.09186 315.325 538.09186 313.21564Q538.09186 311.09064 537.59186 310.40314Q537.1075 309.7 536.3575 309.7Q535.63873 309.7 535.20123 310.3094Q534.65436 311.09064 534.65436 313.21564Z" fill-rule="nonzero"/><path fill="#000000" d="M575.41876 317.45L574.3719 317.45L574.3719 310.73126Q573.98126 311.09064 573.35626 311.46564Q572.7469 311.825 572.2625 311.9969L572.2625 310.98126Q573.1375 310.5594 573.79376 309.98126Q574.46564 309.3875 574.7469 308.825L575.41876 308.825L575.41876 317.45ZM578.45 313.21564Q578.45 311.6844 578.7625 310.7625Q579.075 309.825 579.6844 309.325Q580.3094 308.825 581.2469 308.825Q581.9344 308.825 582.45 309.10626Q582.98126 309.3875 583.325 309.91876Q583.66876 310.4344 583.85626 311.1844Q584.04376 311.9344 584.04376 313.21564Q584.04376 314.73126 583.73126 315.65314Q583.4344 316.575 582.8094 317.09064Q582.2 317.59064 581.2469 317.59064Q580.0125 317.59064 579.29376 316.7Q578.45 315.6375 578.45 313.21564ZM579.52814 313.21564Q579.52814 315.325 580.02814 316.02814Q580.52814 316.73126 581.2469 316.73126Q581.98126 316.73126 582.46564 316.02814Q582.96564 315.325 582.96564 313.21564Q582.96564 311.09064 582.46564 310.40314Q581.98126 309.7 581.23126 309.7Q580.5125 309.7 580.075 310.3094Q579.52814 311.09064 579.52814 313.21564ZM585.45 313.21564Q585.45 311.6844 585.7625 310.7625Q586.075 309.825 586.6844 309.325Q587.3094 308.825 588.2469 308.825Q588.9344 308.825 589.45 309.10626Q589.98126 309.3875 590.325 309.91876Q590.66876 310.4344 590.85626 311.1844Q591.04376 311.9344 591.04376 313.21564Q591.04376 314.73126 590.73126 315.65314Q590.4344 316.575 589.8094 317.09064Q589.2 317.59064 588.2469 317.59064Q587.0125 317.59064 586.29376 316.7Q585.45 315.6375 585.45 313.21564ZM586.52814 313.21564Q586.52814 315.325 587.02814 316.02814Q587.52814 316.73126 588.2469 316.73126Q588.98126 316.73126 589.46564 316.02814Q589.96564 315.325 589.96564 313.21564Q589.96564 311.09064 589.46564 310.40314Q588.98126 309.7 588.23126 309.7Q587.5125 309.7 587.075 310.3094Q586.52814 311.09064 586.52814 313.21564Z" fill-rule="nonzero"/></svg>